<?xml version="1.0" encoding="utf-8"?>
<!-- Generator: Adobe Illustrator 16.0.0, SVG Export Plug-In . SVG Version: 6.00 Build 0)  -->
<!DOCTYPE svg PUBLIC "-//W3C//DTD SVG 1.1//EN" "http://www.w3.org/Graphics/SVG/1.1/DTD/svg11.dtd">
<svg version="1.1" id="Layer_1" xmlns="http://www.w3.org/2000/svg" xmlns:xlink="http://www.w3.org/1999/xlink" x="0px" y="0px"
	 width="265.333px" height="269.833px" viewBox="0 0 265.333 269.833" enable-background="new 0 0 265.333 269.833"
	 xml:space="preserve">
<g>
	<g>
		<path fill="#AFC636" d="M1.982,242.713c0-0.268,0.356-0.533,0.712-0.533c0.267,0,0.534,0.266,0.624,0.445
			c0,1.068-0.089,2.137-0.089,3.385c0,2.316,0.356,4.631,1.96,6.324c1.158,1.336,2.227,1.959,3.741,1.959
			c1.959,0,4.008-0.891,4.988-2.76c1.514-2.764,1.782-6.148,1.782-9.354c0-2.049-0.089-4.01-0.089-5.879
			c0-8.285-6.948-11.314-11.58-17.193c-1.603-2.047-1.87-4.809-1.87-7.393c0-2.137,0.267-4.721,0.445-6.682
			c0-0.355-0.178-0.533-0.178-0.801c0-0.088,0-0.355,0.178-0.534c0.98-3.474,3.652-4.632,6.948-4.632
			c1.87,0,3.474,0.089,4.543,1.336c2.049,2.406,2.316,5.791,2.316,9.086c0,1.692-0.089,3.652-0.089,5.166
			c-0.089,0.268-0.445,0.357-0.713,0.357c-0.267,0-0.712-0.09-0.712-0.446v-3.296c0-3.92-0.267-9.264-2.851-10.956l-2.494-0.179
			c-1.871,0-2.316,0-3.919,1.158c-0.713,0.891-1.158,1.516-1.692,2.494c0,2.406-0.445,5.434-0.445,8.195
			c0,1.781,0.178,3.474,0.891,4.988c2.316,4.721,8.462,7.215,11.223,13.449c1.158,2.673,1.514,5.523,1.514,8.285
			c0,2.227-0.178,4.365-0.178,6.68c0,4.721-2.405,9.889-7.75,9.889c-2.049,0-3.563-0.713-4.899-2.049
			c-2.315-2.139-2.315-6.859-2.315-9.889V242.713z"/>
		<path fill="#AFC636" d="M24.072,226.769c4.72,0,8.818-0.089,13.717-0.445c0.268,0,0.445,0.179,0.445,0.356
			c0,0.355-0.356,0.802-0.98,0.802c-4.81,0.444-8.551,0.444-13.183,0.444c0,0.803-0.089,1.516-0.089,2.316
			c-0.267,7.927-0.445,15.5-0.535,23.427c4.988,0.088,5.879,0.178,6.77,0.178c2.583,0,5.167-0.09,7.839-0.268
			c0.445,0,0.623,0.268,0.623,0.623c0,0.268-0.267,0.715-0.712,0.715c-2.405,0.178-4.81,0.266-7.126,0.266
			c-2.851,0-5.612-0.088-8.284-0.266c-0.178,0-0.267-0.18-0.267-0.357c0.178-11.045,0.534-21.912,0.534-32.691
			c0-7.037-0.089-14.52-0.534-21.734c0.089-0.355,0.445-0.891,0.98-0.891c3.028,0,5.522,0.089,8.373,0.089s4.811-0.089,6.592-0.089
			c0.624,0,0.624,0.268,0.624,0.445c0,0.179-0.089,0.624-0.712,0.624c-1.158,0-4.009,0.089-6.948,0.089
			c-1.959,0-4.543,0.09-7.661,0.09c0.445,6.77,0.535,13.807,0.535,20.397V226.769z"/>
		<path fill="#AFC636" d="M47.854,230.688c-0.712,0.179-2.137,0.179-2.939,0.179c0.089,2.138,0.089,4.098,0.089,6.147
			c0,6.68-0.445,12.291-0.445,17.814c0,0.355-0.445,0.445-0.712,0.445c-0.356,0-0.712-0.09-0.712-0.535
			c0.712-18.082,0.891-36.788,0.891-54.87c0-0.356,0.445-0.356,0.623-0.535c0.535,0,1.604-0.089,2.851-0.089
			c3.029,0,7.215,0.355,8.729,2.316c1.247,1.604,1.336,5.077,1.336,7.928c0,14.608,0,20.131-7.571,21.111
			c2.049,5.253,3.652,11.044,4.988,16.388c0.713,2.584,1.248,5.346,2.406,7.84c0,0.09-0.624,0.445-0.98,0.445
			c-0.178,0-0.267-0.09-0.445-0.178c-1.248-2.494-1.782-5.434-2.494-8.018c-1.336-5.344-2.851-11.135-4.81-16.39H47.854z
			 M45.984,229.797l2.939-0.355c0,0,0.178-0.09,0.267-0.09c0.178,0,0.268,0.09,0.356,0.09c0.98,0,1.336,0,1.871-0.178
			c2.851-0.98,4.187-3.475,4.454-6.414c0.356-2.316,0.445-4.721,0.445-7.305c0-2.582-0.089-5.522-0.178-7.749
			c-0.267-1.782,0-4.721-1.514-6.058c-1.336-1.068-4.721-1.158-7.126-1.158H45.36c0,6.682-0.178,13.361-0.178,19.775v3.295
			c0,2.049-0.268,4.009-0.268,6.058L45.984,229.797z"/>
		<path fill="#AFC636" d="M63.709,255.361c-0.357,0-0.713-0.088-0.713-0.443c0.178-3.475,0.178-7.217,0.178-10.689
			c0-4.723-0.178-9.353-0.178-14.164c0-10.332-0.267-20.666-0.267-30.909c0-0.267,0.356-0.444,0.623-0.444
			c0.357,0,0.713,0.178,0.802,0.355c0,10.244,0.089,20.666,0.356,30.908c0.089,4.989,0.267,9.798,0.267,14.876
			c0,3.295-0.089,6.77-0.267,10.154C64.422,255.273,64.066,255.361,63.709,255.361z"/>
		<path fill="#AFC636" d="M79.653,198.711c4.275,0,5.879,5.521,6.948,9.174c1.782,5.789,2.583,12.025,2.583,18.261
			c0,5.345-0.624,10.868-1.335,15.854c-0.713,4.455-2.228,13.451-8.374,13.451c-5.255,0-6.948-7.482-7.928-11.668
			c-1.247-5.613-1.871-11.402-1.871-17.192c0-5.167,0.535-10.423,1.514-15.499C71.993,206.638,74.398,198.711,79.653,198.711z
			 M86.334,241.822c0.801-4.809,1.247-9.797,1.247-14.875c0-4.455-0.356-9.086-1.158-13.629c-0.624-3.296-2.673-13.184-6.77-13.629
			c-4.81,0.713-6.235,7.75-6.948,11.491c-0.98,5.167-1.515,10.421-1.515,15.588c0,5.7,0.624,11.401,1.782,16.924
			c0.802,3.475,1.871,8.373,5.344,10.244c0.535,0.266,1.515,0.266,1.692,0.266c0.089,0,0.713-0.266,1.158-0.355
			C84.731,250.908,85.621,246.277,86.334,241.822z"/>
		<path fill="#AFC636" d="M95.864,235.231c0,2.583-0.089,5.433-0.089,8.195c0,3.83,0.801,8.107,3.474,9.977
			c0.891,0.623,1.871,0.623,2.851,0.623c6.77,0,7.75-2.939,7.75-8.461c0-3.207,0.089-6.414,0.089-9.711
			c0-11.667-0.267-24.583-0.535-36.164c0-0.268,0.356-0.445,0.713-0.445c0.268,0,0.535,0.178,0.624,0.355
			c0.356,8.196,0.624,16.748,0.624,24.941c0,3.385,0.089,7.661,0.089,11.046c0,3.385-0.089,6.77-0.089,10.154
			c0,3.027-0.356,6.412-2.316,7.748c-1.514,0.98-4.543,1.871-7.215,1.871c-1.604,0-3.029-0.266-3.919-1.068
			c-1.604-1.514-1.96-2.404-2.672-4.453c-0.713-2.139-0.891-4.721-0.891-7.215c0-2.316,0.089-4.633,0.089-6.771
			c0-9.708-0.356-18.526-0.356-26.455v-10.065c0-0.355,0.356-0.712,0.624-0.712c0.356,0,0.623,0.356,0.712,0.623v19.419
			c0,4.454,0.446,8.996,0.446,13.539V235.231z"/>
		<path fill="#AFC636" d="M116.618,242.713c0-0.268,0.356-0.533,0.712-0.533c0.268,0,0.535,0.266,0.624,0.445
			c0,1.068-0.089,2.137-0.089,3.385c0,2.316,0.356,4.631,1.959,6.324c1.158,1.336,2.227,1.959,3.742,1.959
			c1.959,0,4.008-0.891,4.988-2.76c1.514-2.764,1.782-6.148,1.782-9.354c0-2.049-0.089-4.01-0.089-5.879
			c0-8.285-6.948-11.314-11.58-17.193c-1.604-2.047-1.871-4.809-1.871-7.393c0-2.137,0.267-4.721,0.445-6.682
			c0-0.355-0.178-0.533-0.178-0.801c0-0.088,0-0.355,0.178-0.534c0.98-3.474,3.652-4.632,6.948-4.632
			c1.871,0,3.474,0.089,4.543,1.336c2.049,2.406,2.316,5.791,2.316,9.086c0,1.692-0.089,3.652-0.089,5.166
			c-0.089,0.268-0.445,0.357-0.713,0.357s-0.712-0.09-0.712-0.446v-3.296c0-3.92-0.267-9.264-2.851-10.956l-2.494-0.179
			c-1.871,0-2.315,0-3.919,1.158c-0.712,0.891-1.158,1.516-1.692,2.494c0,2.406-0.445,5.434-0.445,8.195
			c0,1.781,0.178,3.474,0.891,4.988c2.315,4.721,8.462,7.215,11.223,13.449c1.158,2.673,1.514,5.523,1.514,8.285
			c0,2.227-0.178,4.365-0.178,6.68c0,4.721-2.405,9.889-7.749,9.889c-2.049,0-3.563-0.713-4.899-2.049
			c-2.316-2.139-2.316-6.859-2.316-9.889V242.713z"/>
		<path fill="#AFC636" d="M159.373,200.403c-2.405,0-4.811,0-7.037-0.089c0,4.453,0.267,9.265,0.356,13.718
			c0,4.098,0.178,7.66,0.178,11.312c0.802,0,1.515,0.089,2.138,0.089c1.514,0,2.939-0.089,4.365-0.089c1.158,0,2.315,0,3.563,0.089
			c0.267,0.089,0.534,0.179,0.534,0.356c0,0.356-0.089,0.534-0.534,0.623c-0.089,0.09-2.049,0.179-4.098,0.179
			c-2.583,0-5.612-0.089-6.057-0.179c-0.089,9.263-0.445,18.617-0.445,27.88c0,0.713-0.356,1.068-0.802,1.068
			c-0.178,0-0.356-0.088-0.356-0.355c0-12.648,0.178-25.297,0.267-38.035c0-6.682-0.267-12.025-0.267-17.014
			c0.089-0.357,0.445-0.891,0.98-0.891c4.898,0.178,9.62,0.178,14.43,0.178c0.178,0.178,0.267,0.268,0.267,0.445
			c0,0.268-0.267,0.624-0.445,0.713H159.373z"/>
		<path fill="#AFC636" d="M172.288,235.231c0,2.583-0.089,5.433-0.089,8.195c0,3.83,0.801,8.107,3.474,9.977
			c0.89,0.623,1.87,0.623,2.85,0.623c6.77,0,7.75-2.939,7.75-8.461c0-3.207,0.089-6.414,0.089-9.711
			c0-11.667-0.267-24.583-0.534-36.164c0-0.268,0.356-0.445,0.712-0.445c0.268,0,0.535,0.178,0.624,0.355
			c0.356,8.196,0.624,16.748,0.624,24.941c0,3.385,0.089,7.661,0.089,11.046c0,3.385-0.089,6.77-0.089,10.154
			c0,3.027-0.356,6.412-2.316,7.748c-1.514,0.98-4.543,1.871-7.215,1.871c-1.604,0-3.029-0.266-3.919-1.068
			c-1.604-1.514-1.96-2.404-2.672-4.453c-0.713-2.139-0.891-4.721-0.891-7.215c0-2.316,0.089-4.633,0.089-6.771
			c0-9.708-0.356-18.526-0.356-26.455v-10.065c0-0.355,0.356-0.712,0.624-0.712c0.356,0,0.623,0.356,0.712,0.623v19.419
			c0,4.454,0.445,8.996,0.445,13.539V235.231z"/>
		<path fill="#AFC636" d="M195.268,205.034c-0.089,4.812-0.267,10.512-0.267,15.232c0,10.957,0.267,19.152,0.267,27.347
			c0,2.314,0,4.809-0.089,7.215c-0.089,0.355-0.356,0.445-0.712,0.445c-0.268,0-0.624-0.09-0.624-0.535
			c0.089-5.166,0.179-10.332,0.179-15.5c0-8.818-0.624-13.626-0.624-19.06c0-4.722,0.445-10.422,0.534-15.232
			c0-1.426,0.178-2.85,0.178-4.365c0-0.98-0.089-1.158-0.089-1.336c0.089-0.267,0.356-0.355,0.712-0.355
			c0.267,0,0.534,0.089,0.802,0.533c1.336,5.256,3.207,10.244,4.632,15.322c2.583,9.264,4.988,19.418,6.859,28.771
			c0.445,2.049,0.801,4.186,1.692,6.947c-0.089-9.441-0.267-18.972-0.267-28.593c0-7.125,0.089-15.143,0.624-22.27
			c0.089-0.178,0.356-0.267,0.624-0.267c0.356,0,0.624,0.089,0.712,0.356c-0.267,4.899-0.356,9.799-0.356,14.609
			c0,7.393,0.179,15.588,0.179,22.892c0,5.967-0.089,11.846-0.089,17.727c0,0.355-0.624,0.355-0.713,0.355
			c-0.356,0-0.534-0.355-0.712-0.891c-0.98-2.584-2.583-7.482-3.207-10.779c-1.871-9.352-4.008-19.685-6.77-28.771
			c-1.069-3.562-2.316-7.125-3.474-10.777V205.034z"/>
	</g>
	<g>
		<path fill="#F47630" d="M4.255,179.492l12.215-26.708c0.43-0.946,1.075-1.506,2.15-1.506h0.172c1.032,0,1.72,0.56,2.107,1.506
			l12.214,26.666c0.129,0.301,0.215,0.602,0.215,0.859c0,0.904-0.731,1.635-1.634,1.635c-0.817,0-1.376-0.559-1.678-1.248
			l-3.139-6.924H10.362l-3.14,7.011c-0.301,0.731-0.86,1.161-1.634,1.161c-0.86,0-1.548-0.688-1.548-1.549
			C4.04,180.137,4.083,179.836,4.255,179.492z M25.544,170.676l-6.924-15.398l-6.924,15.398H25.544z"/>
		<path fill="#F47630" d="M40.257,153.17c0-0.902,0.774-1.677,1.678-1.677h0.473c0.774,0,1.248,0.388,1.721,0.989l18.278,23.311
			v-22.709c0-0.902,0.731-1.676,1.677-1.676c0.903,0,1.634,0.773,1.634,1.676v27.182c0,0.903-0.645,1.592-1.548,1.592h-0.172
			c-0.731,0-1.248-0.431-1.763-1.033l-18.666-23.869v23.311c0,0.903-0.731,1.678-1.677,1.678c-0.903,0-1.634-0.774-1.634-1.678
			V153.17z M47.353,149.473c-0.602,0-1.118-0.474-1.118-1.033c0-0.172,0.086-0.516,0.129-0.688c0.86-2.495,1.935-3.484,3.785-3.484
			c1.935,0,4.301,1.721,5.763,1.721c0.989,0,1.463-0.43,1.979-1.506c0.172-0.344,0.516-0.73,0.989-0.73
			c0.603,0,1.118,0.473,1.118,1.032c0,0.171-0.086,0.473-0.129,0.688c-0.86,2.494-1.936,3.482-3.785,3.482
			c-1.936,0-4.301-1.72-5.763-1.72c-0.989,0-1.462,0.431-1.979,1.505C48.17,149.084,47.869,149.473,47.353,149.473z"/>
		<path fill="#F47630" d="M73.334,166.762v-0.086c0-8.301,6.236-15.57,15.396-15.57c9.161,0,15.312,7.184,15.312,15.484v0.086
			c0,8.3-6.236,15.568-15.397,15.568C79.484,182.245,73.334,175.063,73.334,166.762z M100.515,166.762v-0.086
			c0-6.839-4.989-12.43-11.87-12.43s-11.784,5.504-11.784,12.344v0.086c0,6.838,4.988,12.429,11.87,12.429
			S100.515,173.6,100.515,166.762z"/>
		<path fill="#F47630" d="M110.369,178.116c-0.387-0.258-0.646-0.73-0.646-1.29c0-0.946,0.731-1.677,1.634-1.677
			c0.43,0,0.817,0.172,1.032,0.387c2.838,2.408,5.677,3.569,9.504,3.569c4.043,0,6.71-2.15,6.71-5.118v-0.086
			c0-2.795-1.505-4.387-7.828-5.72c-6.924-1.505-10.107-3.742-10.107-8.688v-0.086c0-4.73,4.172-8.214,9.892-8.214
			c3.957,0,6.838,0.989,9.591,2.968c0.344,0.258,0.731,0.73,0.731,1.376c0,0.903-0.731,1.634-1.634,1.634
			c-0.387,0-0.688-0.086-0.989-0.301c-2.538-1.85-4.989-2.623-7.785-2.623c-3.914,0-6.408,2.15-6.408,4.859v0.087
			c0,2.838,1.548,4.429,8.171,5.849c6.71,1.462,9.806,3.914,9.806,8.516v0.086c0,5.16-4.301,8.516-10.279,8.516
			C117.379,182.159,113.723,180.783,110.369,178.116z"/>
		<path fill="#F47630" d="M152.736,153.342c0-0.945,0.774-1.719,1.678-1.719h8.773c9.462,0,16,6.493,16,14.967v0.086
			c0,8.473-6.538,15.053-16,15.053h-8.773c-0.903,0-1.678-0.775-1.678-1.721V153.342z M163.187,178.589
			c7.612,0,12.473-5.161,12.473-11.827v-0.086c0-6.666-4.86-11.914-12.473-11.914h-7.053v23.827H163.187z"/>
		<path fill="#F47630" d="M186.802,180.008v-26.666c0-0.945,0.774-1.719,1.678-1.719h18.708c0.86,0,1.548,0.688,1.548,1.547
			c0,0.86-0.688,1.549-1.548,1.549H190.2v10.279h15.053c0.86,0,1.548,0.73,1.548,1.549c0,0.859-0.688,1.547-1.548,1.547H190.2
			v10.537h17.204c0.86,0,1.548,0.689,1.548,1.549c0,0.86-0.688,1.549-1.548,1.549H188.48
			C187.577,181.729,186.802,180.954,186.802,180.008z"/>
	</g>
	<g>
		<path fill="#5263AC" d="M65.543,96.219H11.822c-5.664,0-10.298-4.118-10.298-9.954c0-4.12,1.544-7.553,4.634-11.156L62.626,8.172
			c3.776-4.463,6.693-6.866,12.872-6.866c5.664,0,10.298,4.462,10.298,10.126v67.453h9.269c4.978,0,8.753,3.947,8.753,8.753
			s-3.776,8.581-8.753,8.581h-9.269v17.851c0,5.663-4.462,9.954-10.126,9.954c-5.664,0-10.126-4.291-10.126-9.954V96.219z
			 M65.543,78.885V31.342L26.068,78.885H65.543z"/>
		<path fill="#5263AC" d="M111.368,63.437v-0.343c0-34.326,20.939-62.131,52.52-62.131c31.409,0,52.176,27.461,52.176,61.789v0.342
			c0,34.327-20.939,62.132-52.52,62.132C131.964,125.226,111.368,97.764,111.368,63.437z M194.267,63.437v-0.343
			c0-23.685-12.186-43.08-30.722-43.08c-18.537,0-30.379,18.88-30.379,42.738v0.342c0,23.686,12.014,43.08,30.723,43.08
			C182.596,106.174,194.267,86.952,194.267,63.437z"/>
	</g>
	<g>
		<path fill="#BACD4A" d="M31.171,265.777l0.54,0.092C31.703,265.826,31.566,265.791,31.171,265.777z"/>
		<path fill="#BACD4A" d="M168.027,265.744c0.043-0.008,0.089-0.014,0.128-0.021C168.064,265.73,168.036,265.736,168.027,265.744z"
			/>
		<path fill="#BACD4A" d="M52.186,268.895c-0.012,0-0.021,0-0.029,0c-0.046,0.008-0.097,0.018-0.14,0.023L52.186,268.895z"/>
		<path fill="#BACD4A" d="M24.605,268.643c7.238,0.113,9.158,0.543,16.659,0.369c3.578,0.035,7.396-0.064,10.894-0.117
			c1.66-0.336,4.593-0.004,6.557-0.287l0.762,0.191c0.677-0.096,1.472-0.162,2.152-0.059l-0.043,0.055
			c1.011-0.145,2.151-0.059,2.654-0.131l-0.042,0.057l1.229-0.025l-0.211,0.08c1.763-0.152,3.58-0.164,5.182-0.094l-0.133-0.23
			c3.424,0.258,4.676-0.221,7.767,0.086l-0.042,0.055c3.906-0.607,6.175,0.416,10.201-0.162c-0.501,0.072,0.215,0.119,0.175,0.174
			c1.854-0.064,3.834-0.1,3.864-0.553c1.352,0.006,1.1,0.141,1.276,0.316c-0.007-0.199,1.167-0.281,2.221-0.293l-0.486,0.076
			l3.023-0.066l-0.594-0.375c1.603,0.107,0.407,0.457,1.942,0.365l-0.019-0.311c2.217,0.062,3.517,0.533,5.664,0.762
			c8.921,0.133,18.506-0.66,26.807-0.113l0.366,0.234c0.16,0.34,2.29-0.506,2.606-0.189l0.966-0.156
			c0.271,0.061,0.843,0.127,0.362,0.203c0.893,0.012,0.915-0.043,1.558-0.146l0.958,0.213c3.523,0.164,6.518-0.244,10.224-0.162
			c4.452,0.434,12.833,0.035,17.662-0.195c6.788-0.51,14.683,0.848,21.632,0.266c0.226,0.047,0.812-0.061,0.807-0.1l6.36,0.047
			c0,0,30.839,0.131,7.41-2.695l0.157-0.072c-3.481-0.182-5.673-0.221-8.073,0.152c-0.379-0.457-2.86-0.047-3.675-0.195l0.077-0.037
			c-2.124,0.354-4.374-0.293-6.421,0.023c0.079-0.037,0.124-0.162,0.594-0.17c-1.492,0.057-3.531,0.16-3.642-0.107
			c-3.562,0.07-8.534-0.053-10.816,0.373l0.156-0.074c-1.3,0.287-1.683,0.043-3.138,0.188c-0.079-0.033-0.182-0.053-0.166-0.066
			c-1.417,0.283-4.135,0.045-5.28,0.164l-0.074-0.176l-2.821,0.041l1.054,0.037c-0.366,0.488-2.134-0.305-4.181,0.012
			c-1.914-0.062-3.883,1.012-5.872,0.773c-0.948,0.229,0.835-0.371-0.583-0.195c-0.046-0.254,0.663-0.16,0.297-0.361
			c-1.393,0.119-2.283-0.262-4-0.088l-0.07-0.199c-2.239,0.361-4.226-0.26-5.717,0.086c-2.31,0.162-1.549-0.588-3.954-0.201
			l-0.935-0.268c-1.029-0.043-0.738,0.328-1.878,0.199c0.069-0.17-1.442-0.135-0.774-0.295c-2.583-0.264-5.244,0.375-8.645-0.072
			c-0.739,0.328-2.452,0.133-3.003,0.379c-0.091-0.143-3.432-0.023-1.508-0.334c0.165-0.023,0.457-0.02,0.437,0.037l0.23-0.195
			c-1.94-0.367-3.525,0.203-5.445,0.146c0.569,0.064,1.326,0.047,0.82,0.18l-1.783-0.025l0.371-0.164l-2.657-0.096l0.366,0.201
			c-1.301-0.104-1.758-0.447-3.225-0.16c-0.664,0.16,1.232,0.273-0.141,0.338c-1.738-0.139-4.343-0.348-6.562-0.408
			c0.208,0.229-0.39,0.221-1.004,0.268l-0.071-0.199c-2.355,0.275-0.863-0.436-3.201-0.217l0.206-0.139l-0.617,0.414
			c-2.109,0.393-1.137-0.41-3.48,0.125c0.926-0.033,0.437,0.438-0.704,0.352l0.289-0.191c-0.631,0.041-0.842,0.121-1.262,0.08
			c0.375-0.104,0.199-0.277-0.729-0.244l0.622-0.24l-1.754,0.352c-1.354-0.205-3.501,0.053-4.058-0.217c0,0-2.912-0.133-3.58,0.162
			c0.585-0.182-1.021-0.252-0.563-0.467c-0.754,0.207-2.983,0.377-3.875,0.156l0.169-0.025c-3.301-0.227-5.644,0.309-8.605,0.035
			c0.135,0.229-1.429,0.104-1.042,0.398c-3.064,0.291-5.586-0.598-6.693,0.311c-1.394,0.049-1.651-0.213-2.372-0.26l0.332-0.049
			c-2.611,0.076-3.369,0.084-5.309,0.062c-0.968,0.09-1.121,0.51-2.855,0.408c0.562-0.168-0.147-0.137-0.797-0.137
			c0.415-0.025,0.543-0.088-0.309-0.199c-0.12,0.051-0.306,0.084-0.479,0.109c-0.007-0.014-0.042-0.023-0.024-0.041
			c-1.083,0.059-0.895,0.111-0.392,0.135c-0.025,0.025,0.017,0.059,0.172,0.105c-1.124-0.217-3.134,0.014-3.27-0.273
			c-3.258,0.066-5.585,0.363-8.296,0.475c-0.304-0.148,0.33-0.279,1.116-0.336l-1.922,0.055c0.016-0.215,1.104-0.123,1.696-0.166
			c-2.289-0.346-4.72,0.344-7.405,0.027l-0.556,0.17l-0.16-0.029c0.008,0.09-0.594,0.211-0.992,0.24
			c-0.379-0.186,0.027-0.43-1.303-0.416c-1.051-0.182-2.986,0.088-4.362,0.189c0.742,0.031,0.502,0.133,0.183,0.197
			c-0.665,0.008-1.047-0.178-1.561-0.098l-0.064-0.252c0.262,0.236-1.736,0.256-1.981,0.357c-0.379-0.186,1.031-0.158,1.197-0.299
			c-2.665,0.023-1.333,0.01-3.997,0.035c-1.422,0.188,0.258,0.236-0.422,0.455c-1.255,0.051-2.48,0.225-3.921,0.074l0.456,0.221
			c-2.358,0.174-3.769,0.148-5.358-0.076c-17.57,1.811-3.702,2.475-3.702,2.475C12.801,269.465,16.372,268.816,24.605,268.643z"/>
	</g>
	<g>
		<path fill="#5263AC" d="M182.399,139.639l0.329,0.17C182.731,139.767,182.651,139.711,182.399,139.639z"/>
		<path fill="#5263AC" d="M237.361,188.536c-0.016,0.025-0.038,0.052-0.051,0.075C237.351,188.563,237.362,188.545,237.361,188.536z
			"/>
		<path fill="#5263AC" d="M195.974,144.87c-0.008,0-0.014-0.002-0.02-0.002c-0.033,0.004-0.066,0.01-0.097,0.014L195.974,144.87z"/>
		<polygon fill="#5263AC" points="227.05,149.157 227.051,149.157 227.243,149.104 		"/>
		<path fill="#5263AC" d="M249.477,215.959l-0.014,0.002c-0.021,0.014-0.038,0.023-0.059,0.035L249.477,215.959z"/>
		<path fill="#5263AC" d="M264.587,228.375c-0.133-0.405-0.964-0.884-2.703-1.808l0.059-0.067c-1.061-0.314-1.718-0.489-2.542-0.27
			c-0.023-0.476-0.876-0.239-1.096-0.442l0.033-0.031c-0.74,0.168-1.269-0.617-1.97-0.512c0.035-0.027,0.084-0.145,0.228-0.108
			c-0.466-0.081-1.119-0.163-1.067-0.437c-1.09-0.285-2.505-0.941-3.324-0.855l0.075-0.049c-0.491,0.098-0.506-0.169-0.985-0.227
			c-0.007-0.043-0.029-0.074-0.018-0.086c-0.52,0.053-1.201-0.523-1.56-0.606l0.064-0.167l-0.792-0.395l0.27,0.193
			c-0.354,0.371-0.424-0.592-1.117-0.673c-0.239-0.181-0.625-0.142-1.006-0.146c-0.381-0.002-0.78-0.018-0.947-0.318
			c-0.373-0.023,0.434-0.111-0.015-0.272c0.154-0.202,0.257,0.015,0.302-0.216c-0.394-0.203-0.371-0.637-0.842-0.891l0.126-0.154
			c-0.353-0.121-0.541-0.396-0.667-0.656c-0.122-0.268-0.226-0.495-0.496-0.571c-0.497-0.497,0.229-0.669-0.431-1.091l0.111-0.363
			c-0.097-0.277-0.403-0.039-0.415-0.402c0.162-0.052-0.04-0.438,0.182-0.324c-0.016-0.249-0.121-0.479-0.243-0.712
			c0.335,0.099,0.708,0.189,1.146,0.271c1.329,0.332,2.861,0.426,4.514-0.027c0.333-0.244,0.752-0.461,1.231-0.648
			c0.467-0.195,0.928-0.533,1.199-0.87c0.002,0.02,0.386-0.087,0.386-0.087c0.171-0.303,0.392-0.583,0.678-0.776l0.03,0.052
			c0.168-0.512,0.574-0.916,0.579-1.207l0.043,0.043c0,0,0.194-0.604,0.194-0.604l0.04,0.127c0.109-0.45,0.08-0.92,0.118-1.361
			c0.006-0.439-0.054-0.861-0.075-1.264l-0.213,0.111c-0.039-0.4-0.14-0.733-0.245-1.02c-0.135-0.267-0.293-0.482-0.441-0.692
			c-0.14-0.219-0.325-0.38-0.492-0.591c-0.154-0.199-0.319-0.417-0.548-0.717l0.051-0.029c-0.429-0.17-0.742-0.363-1.052-0.525
			c-0.301-0.176-0.556-0.402-0.85-0.553c-0.561-0.361-1.232-0.639-2.088-0.449c0.211-0.062-0.076-0.123-0.056-0.178
			c-0.386,0.018-0.783,0.025-1.077,0.104c-0.295,0.105-0.481,0.252-0.459,0.477c-0.52,0.059-0.447-0.086-0.548-0.248
			c0.02,0.098-0.083,0.182-0.237,0.25c-0.149,0.096-0.35,0.188-0.543,0.259l0.159-0.134c0,0-0.277,0.111-0.554,0.223
			c-0.137,0.059-0.273,0.115-0.375,0.158c-0.096,0.061-0.16,0.1-0.16,0.1s0.357,0.225,0.358,0.236
			c-0.577,0.181-0.335-0.342-0.821,0.028l0.162,0.265c-0.188,0.092-0.378,0.142-0.558,0.197c-0.172,0.069-0.349,0.123-0.532,0.178
			c-0.37,0.104-0.771,0.211-1.134,0.516c-0.157,0.182-0.311,0.369-0.459,0.562c-0.118,0.206-0.232,0.418-0.341,0.632
			c-0.245,0.423-0.357,0.878-0.484,1.327c-0.079,0.252-0.113,0.504-0.141,0.756c-0.517-0.273-0.281-0.135-0.955-0.514
			c-0.485-0.074-0.051,0.246-0.35,0.32c-0.372-0.163-0.804-0.225-1.111-0.608l0.003,0.268c-0.741-0.268-1.103-0.565-1.396-1.04
			c-0.092-0.029-0.175-0.055-0.262-0.084c-0.098-0.141-0.205-0.288-0.339-0.456c-0.608-0.778-1.659-1.815-2.985-3.235l0.126,0.002
			c-1.705-1.514-2.519-2.441-3.54-3.437c0.153-0.21-0.023-0.558-0.186-0.94c-0.177-0.384-0.308-0.798-0.272-1.014l0.045,0.035
			c-0.24-0.503-0.123-1.107,0.117-1.67c0.211-0.563,0.544-1.078,0.682-1.688c0.007,0.058,0.101,0.139-0.005,0.387
			c0.312-0.799,0.985-1.888,1.247-1.773c0.629-0.89,1.563-1.871,2.48-2.759c0.909-0.894,1.796-1.696,2.265-2.384l-0.033,0.127
			c0.482-0.814,0.845-0.801,1.491-1.582c0.063-0.012,0.127-0.045,0.129-0.027c0.531-0.854,2.042-1.98,2.515-2.633l0.162,0.086
			c0,0,0.33-0.365,0.659-0.731c0.165-0.184,0.33-0.366,0.453-0.503c0.125-0.137,0.2-0.237,0.2-0.237s-0.125,0.139-0.26,0.263
			c-0.133,0.129-0.266,0.257-0.266,0.257c-0.189-0.504,1.246-0.896,1.879-2.265c0.214-0.266,0.373-0.576,0.502-0.902
			c0.118-0.338,0.191-0.704,0.273-1.056c0.189-0.694,0.26-1.416,0.674-1.983c0.055-0.693,0.119,0.686,0.331-0.305
			c0.252,0.062-0.016,0.504,0.266,0.336c0.111-0.499,0.306-0.867,0.507-1.273c0.191-0.408,0.312-0.887,0.363-1.52l0.206-0.021
			c-0.016-0.426-0.048-0.834-0.011-1.221c0.014-0.195,0.035-0.386,0.059-0.574c0.005-0.186,0.01-0.368,0.014-0.547
			c0.01-0.359,0.019-0.705-0.001-1.025c-0.017-0.322-0.13-0.605-0.26-0.859c-0.247-0.812-0.155-1.125-0.145-1.432
			c0.024-0.308,0.014-0.633-0.447-1.403c0.019-0.008-0.018-0.725-0.018-0.725c-0.269-0.704-0.519-0.354-0.741-1.161
			c0.193-0.045-0.371-0.965,0.005-0.625c-0.342-0.862-0.862-1.668-1.477-2.443c-0.618-0.785-1.167-1.683-1.752-2.75
			c-0.58-0.219-1.157-1.296-1.586-1.445c0.068-0.139-1.595-1.812-0.457-1.008c0.098,0.07,0.232,0.227,0.18,0.253l0.256-0.007
			c-0.651-1.27-1.802-1.751-2.765-2.695c0.248,0.324,0.645,0.682,0.293,0.529l-0.891-0.887l0.302,0.062c0,0-0.325-0.342-0.649-0.685
			c-0.158-0.176-0.338-0.326-0.467-0.447c-0.13-0.119-0.217-0.199-0.217-0.199l0.068,0.318c-0.638-0.658-0.677-1.137-1.658-1.568
			c-0.459-0.17,0.503,0.765-0.283,0.203c-0.903-0.815-2.256-2.096-3.584-2.928c0.005,0.271-0.349,0.044-0.739-0.141l0.058-0.197
			c-1.558-0.608-0.311-0.684-1.862-1.283l-0.385,0.109c-1.479-0.342-0.521-0.755-2.237-0.963c0.601,0.24,0.089,0.521-0.59,0.113
			l0.261-0.09c-0.416-0.146-0.581-0.135-0.83-0.293c0.278,0.016,0.24-0.201-0.364-0.435l0.491-0.041c0,0-0.312-0.057-0.631-0.083
			c-0.317-0.033-0.634-0.064-0.634-0.064c-0.797-0.541-2.272-0.862-2.55-1.221c0,0-1.868-0.8-2.4-0.652
			c0.444-0.057-0.599-0.447-0.231-0.561c-0.566,0.05-2.085-0.248-2.622-0.619l0.12,0.006c-1.074-0.398-2.039-0.581-2.972-0.74
			c-0.937-0.142-1.839-0.283-2.805-0.645c0.042,0.244-0.984-0.092-0.784,0.249c-2.104-0.145-3.663-1.31-4.563-0.547
			c-0.944-0.124-1.092-0.39-1.583-0.509l0.237-0.016c-1.803-0.165-2.307-0.207-3.62-0.375c-0.663,0.016-0.812,0.424-1.969,0.195
			c0.396-0.125-0.084-0.146-0.521-0.191c0.282,0.002,0.375-0.049-0.186-0.223c-0.087,0.043-0.214,0.061-0.333,0.074
			c-0.003-0.014-0.025-0.026-0.011-0.043c-0.734-0.021-0.613,0.045-0.278,0.104c-0.02,0.024,0.004,0.06,0.104,0.117
			c-0.731-0.296-2.103-0.223-2.161-0.519c-2.183-0.193-3.771-0.107-5.586-0.287c-0.178-0.18,0.262-0.237,0.792-0.217l-1.279-0.152
			c0.047-0.209,0.747,0.006,1.146,0.02c-1.45-0.576-3.173-0.182-4.853-0.882l-0.397,0.081l-0.098-0.051
			c-0.014,0.087-0.436,0.123-0.699,0.081c-0.2-0.243,0.119-0.412-0.734-0.618c-0.626-0.344-1.916-0.447-2.812-0.639
			c0.456,0.179,0.274,0.229,0.052,0.225c-0.421-0.133-0.593-0.398-0.939-0.436l0.047-0.249c0.076,0.292-1.155-0.167-1.342-0.14
			c-0.16-0.264,0.69,0.105,0.84,0.015c-1.623-0.632-0.818-0.302-2.401-1.007c-0.909-0.252,0.045,0.289-0.449,0.282
			c-0.382-0.163-0.773-0.301-1.153-0.494c-0.387-0.181-0.77-0.403-1.12-0.733l0.131,0.352c-1.417-0.701-2.139-1.363-2.743-2.243
			c-1.14-0.784-1.943-1.554-2.574-2.179c0.09-0.044,0.18-0.088,0.27-0.132l-0.338,0.041c0.25-0.03,0.505-0.093,0.735-0.179
			c0.2-0.098,0.375-0.219,0.544-0.345c0.125-0.11,0.188-0.196,0.286-0.29c0.06-0.06,0.059-0.065,0.069-0.08l0.033-0.041
			c0.091-0.104,0.217-0.176,0.355-0.064l0.08,0.25c0.049,0.188,0.023,0.044,0.019-0.111c-0.007-0.154,0.011-0.322,0.036-0.139
			c0,0,0.035-0.177,0.034-0.177c0.02,0.073,0.044,0.153,0.025,0.239c0.036,0.022,0.037-0.049,0.073-0.154
			c0,0,0.016,0.256,0.016,0.257c0.045,0.114,0.091,0.075,0.176,0.05c0.042-0.014,0.089-0.025,0.134-0.021l0.033,0.007l0.107,0.066
			c0.078,0.051,0.154,0.106,0.229,0.17c0.186,0.225,0.513,0.52,1.197,0.606c0.07,0.011,0.173,0.022,0.219,0.023l0.084,0.003
			l0.173-0.004c0.117-0.008,0.236-0.021,0.355-0.039l0.18-0.033c0.048-0.008,0.197-0.048,0.288-0.071
			c0.198-0.057,0.397-0.113,0.594-0.169c0.393-0.084,0.643-0.311,0.881-0.437c0.159-0.103,0.288-0.244,0.442-0.354
			c0.077-0.056,0.157-0.106,0.241-0.155c0.074-0.061,0.149-0.122,0.228-0.187c0.077-0.06,0.157-0.122,0.241-0.187
			c0.065-0.074,0.133-0.151,0.203-0.229c0.153-0.151,0.257-0.329,0.366-0.515c0.446-0.706,0.476-1.871,0.019-2.504
			c0.038-0.048-0.093-0.112-0.13-0.103l-0.223-0.96c0,0-0.073-0.272-0.199-0.603c-0.127-0.33-0.294-0.709-0.51-0.98
			c-0.205-0.264-0.49-0.453-0.863-0.354c-0.363,0.099-0.864,0.523-1.319,1.61l-0.078-0.007c-0.034,0.58,0.025,0.946,0.484,1.179
			c-0.425,0.182,0.071-0.408-0.04,0.592h-0.039c0.207,0,0.175,0.223,0.137,0.382c-0.044,0.142-0.125,0.161,0.052,0.225
			c-0.038-0.004-0.165-0.003-0.178-0.03c0.082,0.088,0.19,0.188-0.082,0.163c0.083,0.171-0.048,0.262,0.175,0.659l-0.053-0.064
			c0.165,0.282-0.054,0.086-0.037,0.258c-0.027-0.029-0.044-0.041-0.053-0.056c0.073,0.289-0.266,0.134-0.283,0.246l-0.052-0.171
			l-0.155,0.061l0.067,0.03c0.021,0.242-0.038,0.172-0.089,0.08c-0.082-0.094-0.243-0.216-0.387-0.057
			c-0.141-0.03-0.283,0.223-0.426,0.455c-0.068,0.116-0.07,0.206-0.138,0.268c-0.054,0.062-0.12,0.072-0.147-0.016
			c-0.183,0.164,0.221-0.303,0.028-0.203c0.112-0.229,0.113-0.122,0.176-0.317c-0.06,0.038-0.062-0.026-0.09-0.124
			c-0.011-0.043-0.022-0.085-0.046-0.113c-0.012-0.016-0.027-0.025-0.047-0.031c-0.033-0.018-0.078-0.037-0.125-0.047l0.1-0.173
			c-0.298-0.008-0.435-0.192-0.589-0.373c-0.143-0.192-0.309-0.337-0.494-0.235c-0.232-0.038-0.288-0.175-0.357-0.322
			c-0.069-0.133-0.157-0.264-0.432-0.107l-0.219-0.299c-0.25-0.083-0.143,0.301-0.403,0.251c-0.008-0.173-0.344-0.022-0.225-0.231
			c-0.32-0.006-0.619,0.158-0.855,0.447c-0.129,0.123-0.251,0.26-0.389,0.391c-0.145,0.118-0.307,0.228-0.529,0.314
			c0.014,0.061,0.013,0.113,0.007,0.165l-0.102-0.231c-0.122,0.125-0.226,0.301-0.388,0.313c0.104,0.038,0.215-0.009,0.172,0.141
			l-0.279,0.048l0.013-0.173l-0.382,0.004l0.099,0.183c-0.191-0.057-0.367-0.361-0.383-0.068c-0.022,0.17,0.152,0.248,0.052,0.334
			c-0.221-0.094-0.279-0.303-0.31-0.375c-0.041,0.229-0.059,0.219-0.096,0.26l0.053-0.195c-0.161,0.24,0.136-0.424,0.024-0.229
			l0.067-0.123c0,0-0.051,0.093-0.102,0.185c-0.054,0.09-0.109,0.18-0.109,0.18c-0.284,0.277,0.228-0.346-0.168,0.021
			c0.049-0.004-0.269,0.352-0.277,0.22c0,0,0.153-0.113,0.151-0.116c-0.061-0.012-0.133,0.023-0.127-0.033
			c0.097-0.043,0.214-0.176,0.144-0.213l0.209-0.118c0,0-0.086,0.03-0.173,0.062c-0.091,0.025-0.181,0.053-0.181,0.053
			c0.035-0.086,0.01-0.133-0.023-0.173l-1.122-1.349l-1.139,0.981c-0.143,0.124-0.256,0.262-0.415,0.181
			c-0.016,0.002-0.479,0.27-0.352,0.56c-0.062-0.2-0.302-0.055-0.401-0.259c0.068,0.229-0.084,0.637-0.278,0.524l-0.006-0.031
			c-0.094,0.02-0.17,0.089-0.189,0.132c0.001,0.02,0.016,0.058,0.026,0.1c0.023,0.079,0.013,0.184-0.068,0.066
			c0.093,0.238,0.007,0.141,0.115,0.453c-0.014,0.218-0.125,0.096-0.17,0.025c-0.056-0.064-0.065-0.051-0.127,0.561
			c-0.104,0.096-0.086-0.274-0.112-0.336l0.027-0.062c-0.147,0.082-0.195,0.045-0.261-0.047c-0.08,0.074-0.317,0.527-0.349,0.3
			c0.129-0.138,0.078-0.149,0.049-0.187c0.038-0.002,0.074-0.061,0.122-0.215c-0.038,0.045-0.064,0.064-0.088,0.08
			c0.009-0.014,0.016-0.023,0.027-0.041c-0.074-0.006-0.107,0.047-0.104,0.102c-0.019,0.021-0.04,0.055-0.066,0.108
			c0.112-0.267-0.131-0.206,0.091-0.431c-0.127-0.121-0.472-0.145-0.631-0.389c0.138-0.056,0.279-0.027,0.347,0.01l-0.085-0.127
			c0.211-0.031,0.138,0.053,0.188,0.082c0.296-0.131-0.377-0.411-0.078-0.721l-0.163-0.077l0.03-0.019
			c-0.089-0.004-0.205-0.088-0.229-0.142c0.189-0.038,0.427,0.029,0.429-0.137c0.181-0.108-0.057-0.383-0.121-0.591
			c-0.046,0.096-0.144,0.051-0.201-0.004c0.008-0.092,0.199-0.115,0.131-0.197l0.249,0.032c-0.237-0.003-0.217-0.275-0.31-0.329
			c0.19-0.018,0.134,0.17,0.27,0.215c0.036-0.363,0.021-0.184,0.068-0.555c-0.145-0.234-0.239-0.01-0.436-0.148
			c-0.013-0.186-0.15-0.396,0.044-0.572l-0.231,0.02c-0.095-0.377-0.024-0.57,0.244-0.756c-0.619-1.477-1.27-1.609-1.668-1.496
			c-0.208,0.055-0.37,0.174-0.479,0.279c-0.108,0.103-0.165,0.194-0.168,0.201c-0.661,0.806-0.191,1.496-0.233,2.838
			c-0.158,0.563-0.3,1-0.434,1.416c-0.061,0.494-0.218,0.908,0.209,2.004c0.131,0.492,0.424,0.938,0.651,1.392
			c0.107,0.239,0.295,0.384,0.436,0.574c0.159,0.165,0.278,0.384,0.457,0.493c0.25-0.029,0.423,0.182,0.659,0.323
			c0.232,0.139,0.485,0.284,0.741,0.202l0.129,0.242c0.179-0.073,0.368-0.115,0.517-0.01l-0.014,0.057
			c0.245-0.155,0.501-0.08,0.606-0.199l-0.007,0.059l0.268-0.094l-0.039,0.094c0.189-0.129,0.362-0.279,0.543-0.366
			c0.176-0.108,0.348-0.222,0.524-0.289l-0.111-0.21c0.749-0.248,0.772-0.998,1.371-1.191l0.034,0.045
			c0.01-0.225,0.068-0.359,0.147-0.45c0.124,0.076,0.235,0.14,0.245,0.121l0.053-0.294c0.022-0.006,0.043-0.014,0.064-0.02
			c0.119,0.205-0.153,0.377,0.158,0.436l0.116-0.287c0.184,0.141,0.316,0.309,0.479,0.486c0.159,0.188,0.341,0.396,0.613,0.492
			c0.073,0.004,0.142-0.001,0.212-0.002c0.006,0.012,0.011,0.025,0.017,0.037c0.159,0.365,0.331,0.689,0.476,0.913
			c0.141,0.229,0.228,0.37,0.228,0.37c0.328,0.593,0.739,1.067,1.103,1.549c0.406,0.435,0.781,0.877,1.203,1.227
			c0.412,0.363,0.821,0.707,1.256,0.996c0.424,0.311,0.863,0.58,1.318,0.834c1.813,1.027,3.833,1.805,6.61,2.684
			c2.404,0.879,3.935,1.371,5.497,1.827c1.563,0.44,3.171,0.815,5.746,1.11c2.439,0.391,5.05,0.586,7.412,0.787
			c1.157-0.212,3.086,0.327,4.418,0.209l0.479,0.252c0.462-0.037,0.971-0.035,1.4,0.135l-0.036,0.051
			c0.684-0.025,1.417,0.192,1.758,0.18l-0.037,0.049l0.808,0.119l-0.152,0.054c1.181,0.06,2.374,0.304,3.406,0.58l-0.038-0.245
			c2.168,0.757,3.097,0.475,5.005,1.309l-0.042,0.047c1.339,0.029,2.284,0.467,3.243,0.855c0.949,0.426,1.887,0.869,3.238,1.055
			c-0.333-0.055,0.089,0.164,0.044,0.207c1.155,0.396,2.384,0.84,2.577,0.443c0.812,0.381,0.604,0.436,0.638,0.644
			c0.077-0.184,0.817,0.067,1.458,0.35l-0.325-0.066c0,0,0.115,0.05,0.289,0.122c0.174,0.07,0.404,0.168,0.626,0.283
			c0.448,0.219,0.897,0.439,0.897,0.439l-0.173-0.518c0.892,0.597,0.024,0.531,0.965,0.928l0.139-0.277
			c0.647,0.357,1.058,0.812,1.472,1.234c0.402,0.44,0.812,0.852,1.315,1.356c2.389,1.654,4.759,3.511,6.86,5.611
			c0.504,0.544,1.057,1.044,1.508,1.624c0.459,0.572,0.911,1.146,1.348,1.721c0.425,0.582,0.778,1.213,1.142,1.814
			c0.174,0.306,0.347,0.609,0.52,0.911c0.152,0.31,0.288,0.618,0.422,0.927l-0.089,0.316c-0.125,0.127,0.164,0.381,0.466,0.652
			c0.275,0.275,0.547,0.574,0.446,0.73l0.393,0.491c0.015,0.181,0.102,0.53-0.094,0.284c0.198,0.517,0.223,0.514,0.455,0.855
			l-0.018,0.619c0.129,0.521,0.171,1.015,0.302,1.494c0.097,0.482,0.122,0.953,0.208,1.436c0.016,0.477,0.026,0.963-0.002,1.465
			c-0.044,0.247-0.088,0.498-0.134,0.754c-0.025,0.128-0.051,0.257-0.077,0.387c-0.047,0.127-0.095,0.254-0.144,0.383
			c-0.567,1.193-1.481,2.873-2.732,4.531c-1.222,1.664-2.697,3.291-3.791,4.471c-0.742,0.867-1.609,1.656-2.551,2.406
			c-0.969,0.738-2.02,1.51-3.021,2.356c-1.002,0.852-1.978,1.792-2.793,2.906c-0.81,1.106-1.468,2.415-1.665,3.851
			c-0.107,0.165-0.077,0.671-0.032,0.673c0,0-0.012,0.081-0.033,0.225c-0.014,0.147-0.067,0.337-0.062,0.604
			c-0.002,0.26-0.018,0.567,0.002,0.889c0.054,0.316,0.11,0.651,0.167,0.987c0.084,0.321,0.189,0.632,0.283,0.929
			c0.099,0.291,0.234,0.541,0.332,0.766c0.097,0.227,0.195,0.402,0.271,0.519c0.072,0.12,0.113,0.188,0.113,0.188
			s0.051,0.082,0.144,0.232c0.087,0.157,0.238,0.358,0.43,0.604c0.367,0.517,0.959,1.126,1.653,1.76
			c1.044,0.921,2.335,1.784,3.504,2.485c-0.048,0.078-0.073,0.17-0.063,0.277c0.04,0.289,0.27,0.67,0.494,0.969
			c0.225,0.292,0.439,0.512,0.439,0.512c0.814,0.928,1.589,1.427,2.468,1.844c0.876,0.425,1.852,0.775,3.147,1.366
			c0.287,0.168,0.543,0.321,0.782,0.466c0.189,1.152,0.461,2.236,0.666,3.309l-0.165,0.211c-0.288,0.191,0.792,0.579,0.557,0.808
			l0.305,0.245c-0.008,0.114,0.033,0.334-0.118,0.211c0.143,0.299,0.196,0.281,0.396,0.438l0.012,0.414
			c0.275,0.615,0.719,1.074,1.17,1.503c0.474,0.393,0.923,0.81,1.414,1.263c0.229,0.352,0.568,0.726,0.99,1.046
			c0.208,0.167,0.431,0.335,0.665,0.497c0.239,0.146,0.487,0.29,0.739,0.429c1.007,0.561,2.092,0.948,2.885,1.202
			c1.147,0.285,2.202,0.941,3.311,1.578c1.111,0.61,2.275,1.189,3.499,1.209c0.062,0.064,0.283,0.01,0.291-0.028
			c0,0,0.517,0.158,1.044,0.284c0.527,0.128,1.054,0.256,1.054,0.256s0.647,0.129,1.502,0.25c0.431,0.049,0.917,0.084,1.396,0.107
			c0.484,0.008,0.965-0.014,1.379-0.057C264.162,228.997,264.726,228.762,264.587,228.375z M163.839,130.979
			c0.002,0.025,0.018,0.031,0.03,0.045c-0.011-0.003-0.022-0.004-0.033-0.007C163.835,131.002,163.84,130.995,163.839,130.979z
			 M243.188,211.309l0.144,0.121c0,0,0.208-0.637,0.235-0.615l-0.224,0.027c0.221-0.27,0.53-0.258,0.419-0.658
			c-0.068-0.206-0.39,0.139-0.288-0.174c0.175-0.145,0.327-0.365,0.573-0.492c0.111-0.075,0.216-0.152,0.312-0.232
			c0.105-0.072,0.229-0.117,0.324-0.185c-0.182-0.145-0.076-0.222,0-0.353l0.129,0.148c0.29-0.517,0.396,0.277,0.707-0.167
			l0.023,0.147c0,0-0.061-0.444-0.062-0.444c0.343-0.526,0.375,0.315,0.741-0.388c-0.196,0.129-0.222-0.422,0.104-0.367
			l-0.037,0.195c0.15-0.056,0.192-0.141,0.306-0.115c-0.081,0.113-0.008,0.283,0.21,0.221l-0.119,0.257c0,0,0.093-0.101,0.186-0.201
			c0.097-0.102,0.202-0.209,0.203-0.201c0.334,0.224,0.889-0.032,0.969,0.294c0,0,0.158,0.067,0.343,0.094
			c0.179,0.043,0.368,0.092,0.501-0.022c-0.191,0.126,0.117,0.31-0.067,0.471c0.125-0.084,0.284-0.063,0.451-0.023
			c0.08,0.023,0.16,0.054,0.215,0.103c0.046,0.059,0.074,0.126,0.073,0.197l-0.041-0.002c0.192,0.283,0.392,0.423,0.602,0.588
			c0.08,0.088,0.186,0.176,0.246,0.281c0.032,0.109,0.061,0.229,0.034,0.354c0.219-0.07,0.115,0.203,0.403,0.109
			c0.042,0.066,0.079,0.138,0.086,0.205c-0.008,0.066-0.025,0.13-0.046,0.189l-0.067,0.166c-0.042,0.045-0.083,0.088-0.121,0.129
			c-0.075,0.078-0.093,0.153-0.092,0.242c-0.006,0.087,0.056,0.2,0.211,0.377c-0.111,0.301-0.396,0.152-0.529,0.227l0.017-0.083
			c-0.087,0.112-0.158,0.204-0.221,0.284c-0.091,0.066-0.168,0.123-0.242,0.176c-0.159,0.093-0.265,0.222-0.509,0.287
			c-0.184,0.164-0.07,0.595-0.546,0.662c0.093-0.182-0.075-0.128-0.233-0.102c0.098-0.042,0.106-0.105-0.114-0.184
			c-0.018,0.057-0.055,0.096-0.092,0.129c-0.004-0.012-0.014-0.021-0.012-0.039c-0.246,0.108-0.201,0.154-0.074,0.151
			c-0.003,0.026,0.011,0.058,0.057,0.096c-0.298-0.157-0.866,0.05-0.892-0.222c-0.898,0.004-1.652,0.186-2.497,0.047
			c-0.05-0.168,0.175-0.242,0.418-0.234l-0.579-0.104c0.067-0.203,0.357-0.029,0.541-0.022c-0.487-0.44-1.262-0.173-1.895-0.521
			c-0.064-0.179-0.121-0.36-0.079-0.559c-0.103,0.127-0.075,0.341-0.208,0.189C243.066,211.756,243.188,211.309,243.188,211.309z
			 M239.895,210.771c-0.009-0.149,0.158-0.089,0.304-0.063c-0.004,0.037-0.008,0.074-0.011,0.111
			C240.06,210.786,239.942,210.75,239.895,210.771z"/>
		<path fill="#5263AC" d="M159.201,128.788l-0.098,0.064C159.146,128.852,159.184,128.836,159.201,128.788z"/>
		<path fill="#5263AC" d="M157.787,133.393l-0.005-0.004c-0.015-0.001-0.024-0.002-0.039-0.002L157.787,133.393z"/>
	</g>
</g>
</svg>
