<?xml version="1.0" encoding="utf-8"?>
<!-- Generator: Adobe Illustrator 16.0.0, SVG Export Plug-In . SVG Version: 6.00 Build 0)  -->
<!DOCTYPE svg PUBLIC "-//W3C//DTD SVG 1.1//EN" "http://www.w3.org/Graphics/SVG/1.1/DTD/svg11.dtd">
<svg version="1.1" id="Layer_1" xmlns="http://www.w3.org/2000/svg" xmlns:xlink="http://www.w3.org/1999/xlink" x="0px" y="0px"
	 width="71.66px" height="71.646px" viewBox="0 0 71.66 71.646" enable-background="new 0 0 71.66 71.646" xml:space="preserve">
<g>
	<path fill="#FFFFFF" d="M37.18,54.241V40.284h-5.168V34.3h5.168v-4.409c0-5.127,3.121-7.906,7.707-7.906
		c2.172,0,4.057,0.159,4.615,0.231v5.352h-3.168c-2.479,0-2.975,1.183-2.975,2.909V34.3h5.924l-0.773,5.984h-5.15v13.957H37.18z"/>
	<g>
		<path fill="#FFFFFF" d="M52.376,19.284v33.077h-7.565h-9.852H19.284V19.284H52.376 M53.467,16H18.186
			C16.988,16,16,16.976,16,18.177v35.277c0,1.211,0.988,2.191,2.186,2.191h16.773h9.852h8.656c1.211,0,2.193-0.98,2.193-2.191
			V18.177C55.66,16.976,54.678,16,53.467,16L53.467,16z"/>
	</g>
</g>
</svg>
