<?xml version="1.0" encoding="utf-8"?>
<!-- Generator: Adobe Illustrator 16.0.0, SVG Export Plug-In . SVG Version: 6.00 Build 0)  -->
<!DOCTYPE svg PUBLIC "-//W3C//DTD SVG 1.1//EN" "http://www.w3.org/Graphics/SVG/1.1/DTD/svg11.dtd">
<svg version="1.1" id="Layer_1" xmlns="http://www.w3.org/2000/svg" xmlns:xlink="http://www.w3.org/1999/xlink" x="0px" y="0px"
	 width="82.916px" height="82.625px" viewBox="0 0 82.916 82.625" enable-background="new 0 0 82.916 82.625" xml:space="preserve">
<g>
	<g>
		<path fill="#FFFFFF" d="M26.628,81.059C26.719,81.088,26.767,81.09,26.628,81.059L26.628,81.059z"/>
		<path fill="#FFFFFF" d="M10.043,22.171c0.02-0.022,0.029-0.033,0.048-0.054c0.014-0.06,0.028-0.113,0.046-0.162L10.043,22.171z"/>
		<path fill="#FFFFFF" d="M19.542,15.205c0.026-0.01,0.044-0.016,0.068-0.024C19.597,15.167,19.602,15.146,19.542,15.205z"/>
		<path fill="#FFFFFF" d="M0.506,46.979c0.004,0.102,0.013,0.158,0.025,0.199C0.522,47.113,0.516,47.053,0.506,46.979z"/>
		<path fill="#FFFFFF" d="M47.835,80.133c0,0-0.027,0.012-0.048,0.021c0.041-0.009,0.077-0.016,0.125-0.026L47.835,80.133z"/>
		<path fill="#FFFFFF" d="M47.63,80.263c-0.251,0.068,0.054-0.064,0.157-0.109c-0.281,0.06-0.551,0.155-0.817,0.271
			C46.986,80.469,47.498,80.274,47.63,80.263z"/>
		<path fill="#FFFFFF" d="M71.002,51.277l0.002,0.118C71.006,51.347,71.005,51.311,71.002,51.277z"/>
		<path fill="#FFFFFF" d="M2.814,45.884c0.002,0.056,0.002,0.112,0.003,0.166C2.823,45.964,2.82,45.917,2.814,45.884z"/>
		<path fill="#FFFFFF" d="M69.686,57.263l0.047,0.085C69.724,57.283,69.706,57.264,69.686,57.263z"/>
		<path fill="#FFFFFF" d="M10.137,21.955l0.037-0.083C10.159,21.898,10.147,21.925,10.137,21.955z"/>
		<path fill="#FFFFFF" d="M29.839,11.765c0.008,0.021,0.036,0.036,0.067,0.046c0.014-0.002,0.023-0.003,0.03-0.004L29.839,11.765z"
			/>
		<path fill="#FFFFFF" d="M69.735,39.881c0.009-0.006,0.017-0.017,0.024-0.033l-0.103-0.195
			C69.688,39.743,69.712,39.812,69.735,39.881z"/>
		<path fill="#FFFFFF" d="M44.578,12.601c0.015-0.005,0.051-0.004,0.056-0.012c-0.241-0.077-0.883-0.28-1.721-0.446l-0.069,0.08
			c0,0,0.11,0.015,0.275,0.037c0.162,0.038,0.378,0.088,0.594,0.139C44.146,12.5,44.578,12.601,44.578,12.601z"/>
		<path fill="#FFFFFF" d="M57.489,21.532c0,0-0.062-0.071-0.153-0.178c-0.09-0.108-0.213-0.252-0.352-0.375
			c-0.271-0.259-0.541-0.517-0.541-0.517c1.005,0.661,1.712,1.437,2.43,2.053c0.727,0.613,1.27,1.282,1.828,1.903
			c0.556,0.624,1.117,1.213,1.609,1.922c0.499,0.7,1.122,1.374,1.679,2.235l-0.151-0.173c0.138,0.267,0.334,0.417,0.877,1.242
			c0.251,0.423,0.678,0.968,1.038,1.875c0.363,0.901,0.96,2.022,1.349,3.633l-0.018,0.006c0.082,0.213,0.115,0.199,0.227,0.643
			l-0.287-1.105c0.277,0.623,0.564,1.156,0.891,2.01c0.053,0.187,0.017,0.267-0.001,0.292l0.585,2.157l0.057,0.688
			c0.21,0.65,0.373,0.306,0.523,2.139c0.064-0.709,0.24,0.887,0.292,0.652c-0.002,0.111-0.006,0.307-0.01,0.478
			c0.119,1.083,0.238,3.143,0.364,3.654c0,0,0.04-1.065,0.086-2.304c0.111-1.237-0.049-2.61-0.025-3.208
			c0.191,1.559,0.084,0.407,0.094,0.091l-0.059-0.097c-0.101-0.938,0.007-0.959-0.036-1.433c-0.009,0.001-0.017,0.018-0.024,0.033
			l0.022,0.057c-0.012,0.048-0.028,0.024-0.047-0.023c-0.021,0.016-0.04-0.024-0.102-0.274l0.023,0.046
			c-0.114-0.379-0.267-1.042-0.333-1.332l0.086-0.028c-0.086-0.16-0.186-0.528-0.291-1.007c-0.049-0.234-0.104-0.501-0.164-0.789
			c-0.078-0.271-0.163-0.56-0.249-0.855c-0.352-1.158-0.62-2.4-0.863-2.813c-0.326-0.9-0.919-1.934-1.456-2.996
			c-0.961-1.64-0.38-0.88-0.811-1.741c-0.576-1.055,0.037,0.264-0.219-0.144c0,0-0.159-0.323-0.319-0.646
			c-0.175-0.314-0.371-0.616-0.371-0.616c0.509,0.663,0.282,0.27,0.22,0.126c-0.743-0.994-1.752-2.715-2.198-2.841
			c-1.065-1.301-1.019-1.356-1.499-1.897c0.141,0.202,0.442,0.579,0.418,0.606c-0.396-0.554-0.23-0.225-0.058-0.009
			c-0.195-0.169-0.474-0.542-0.862-0.934c-0.382-0.386-0.839-0.848-1.275-1.289c-0.843-0.915-1.748-1.609-1.893-1.597l0.021-0.029
			c-0.281-0.026-0.062,0.316-0.684-0.046l-0.343-0.338l-0.612-0.378c-0.357-0.328-0.146-0.218-0.136-0.233
			c-0.5-0.306-1.11-0.651-1.726-1.05c-0.624-0.381-1.24-0.845-1.892-1.133c0,0,0.297,0.245,0.577,0.512
			c0.27,0.281,0.539,0.562,0.539,0.562c-0.47-0.373-1.184-0.801-1.814-1.141c-0.625-0.349-1.158-0.622-1.291-0.614
			c0,0-0.148-0.109-0.296-0.217c-0.147-0.11-0.299-0.211-0.299-0.211c-2.159-1.066-1.61-0.471-2.479-0.872
			c0,0-0.271-0.138-0.542-0.276c-0.273-0.133-0.559-0.233-0.559-0.232c0,0,0.294,0.064,0.577,0.163
			c0.282,0.104,0.564,0.207,0.564,0.207c-0.548-0.258-0.945-0.395-1.317-0.517c-0.358-0.129-0.704-0.254-1.165-0.421l-0.011,0.001
			c0.062,0.023,0.103,0.04,0.108,0.051l-0.164-0.039c-0.161,0.041-0.777-0.084-1.602-0.275c-0.594-0.102-1.128-0.161-1.747-0.25
			c-0.31-0.045-0.641-0.097-1.013-0.166c-0.37-0.082-0.784-0.15-1.263-0.199l-0.49,0.126l-1.436-0.162l0.003-0.12
			c0.708,0.048,1.732,0.061,2.801,0.146c1.064,0.153,2.179,0.313,3.081,0.443l0.042-0.049c-1.067-0.148-2.295-0.319-3.005-0.417
			c-0.339-0.105-1.228-0.23-0.568-0.291L38.7,11.468c-1.812-0.078-2.723-0.163-3.654-0.088c-0.462,0.012-0.933,0.024-1.529,0.04
			c-0.296,0.005-0.622,0.012-0.994,0.019c-0.37,0.017-0.781,0.083-1.253,0.132l0.334,0.01c-0.74,0.148-1.474,0.295-1.697,0.231
			c-1.139,0.112-2.252,0.455-3.295,0.662c-1.051,0.19-1.968,0.485-2.692,0.673l-0.257,0.245c-0.455,0.158-1.218,0.21-1.363,0.475
			c-0.012-0.028-0.91,0.489-0.91,0.489c-0.6,0.276-0.927,0.523-1.639,0.777l-0.004,0.001c-0.043,0.015-0.088,0.031-0.136,0.047
			c0.002,0.004,0.008,0.005,0.013,0.007c-1.363,0.613,0.058,0.074-1.454,0.865c-0.521,0.198-0.426,0.468-1.149,0.87l-0.822,0.264
			c-1.276,0.806-1.396,1.093-3.09,2.458c-0.82,0.647-1.317,0.865-0.9,0.279c-0.588,0.786-0.244,0.385-1.124,1.307
			c-0.198,0.077-0.109-0.025,0.052-0.265c-0.906,0.697-0.451,0.539-1.044,1.151c-0.062,0.283-0.085,0.648-0.263,0.857l0.253-0.211
			c-0.527,0.728-1.214,1.417-1.858,2.23l-0.033-0.076l-0.634,0.908l-0.116,0.001c0,0-0.938,1.273-0.907,1.294l0.135-0.17
			c-0.186,0.323-0.789,1.38-1.192,1.95l-0.031-0.047c-0.61,0.785-0.984,1.607-1.355,2.474c-0.379,0.862-0.775,1.759-1.126,2.858
			l0.006-0.322c-0.368,0.701,0.077,0.26-0.293,1.119l-0.138,0.001c-0.109,0.834-0.431,0.98-0.625,1.518l0.228-0.208l-0.302,1.026
			c-0.348,1.127-0.387,0.649-0.43,0.458L1.337,38.59l-0.185,0.119c0.036,0.613-0.214,0.559-0.267,1.604
			c-0.068,0.074-0.061-0.19-0.138,0.153l-0.05,1.719l0.062-1.029l0.196,0.157c0.02,1.077-0.275,1.419-0.258,2.186
			c0,0-0.036-0.529-0.021-0.528c-0.043,1.242-0.116,1.302-0.207,2.001c0.052-0.216,0.129-0.544,0.132-0.041
			c-0.007,0.369-0.087,0.196-0.128,0.544c0.162,0.09,0.125,0.976,0.113,1.781c-0.021-0.01-0.041-0.027-0.057-0.079
			c0.033,0.206,0.076,0.311,0.059,0.669l-0.172-0.207l0.188,0.685c-0.021,0.462,0.13,1.124,0.019,1.071l-0.046-0.259
			c0,0,0.009,0.218,0.021,0.545c0.014,0.327,0.018,0.764,0.096,1.195c0.122,0.865,0.243,1.729,0.243,1.729L0.82,52.676
			c0.113,0.157,0.169,0.63,0.222,1.046c0.048,0.417,0.164,0.763,0.249,0.685c0.045,0.667,0.728,2.491,0.391,2.182
			c0.073,0.279,0.142,0.54,0.209,0.793c0.094,0.239,0.186,0.47,0.275,0.699c0.184,0.441,0.363,0.871,0.547,1.309
			c0.189,0.434,0.353,0.896,0.576,1.392c0.24,0.489,0.493,1.034,0.77,1.676c0.183,1.021,1.646,3.356,2.655,4.84
			c0.545,0.689,1.042,1.318,1.517,1.919c0.479,0.594,1.018,1.087,1.51,1.621c0.965,1.09,2.11,2.008,3.451,3.188
			c0.734,0.796,1.85,1.566,2.967,2.343c1.201,0.656,2.372,1.387,3.374,1.969l0.624,0.171c0.659,0.397,1.514,0.876,2.503,1.229
			c0.994,0.34,2.042,0.754,3.048,1.157c0.528,0.083,0.801,0.137,0.921,0.164c-0.093-0.03-0.231-0.088-0.256-0.172
			c0.581,0.204,1.803,0.45,1.684,0.573L27.9,81.437c-0.062,0.061,0.397,0.163,0.951,0.28c0.563,0.067,1.223,0.145,1.553,0.261
			l-0.347-0.215l1.149,0.203l-0.313-0.017c0.634,0.04,1.217,0.136,1.773,0.145c0.567,0.016,1.083,0.031,1.578,0.045
			c0.998,0.044,1.903,0.132,2.802,0.071c0.896-0.03,1.789-0.033,2.748-0.115c0.95-0.147,1.972-0.333,3.127-0.592
			c-0.294,0.133-0.066,0.076,0.246,0.006c0.306-0.1,0.695-0.219,0.746-0.134c1.215-0.083,2.157-0.563,3.056-0.951
			c-0.003-0.009,0.005-0.023,0.053-0.056l1.616-0.567c-0.875,0.578,1.085-0.611,0.277-0.096c2.123-0.706,4.425-1.908,6.662-3.355
			c1.092-0.761,2.172-1.586,3.219-2.426c0.498-0.452,0.994-0.901,1.486-1.348l0.738-0.661c0.237-0.227,0.449-0.475,0.674-0.708
			l-0.197,0.125c0.887-0.968,1.961-2.19,2.59-2.964c0.666-0.749,1.202-1.819,1.369-2.165c0.475-0.984,1.168-1.719,0.917-1.326
			c0.278-0.512,0.554-1.006,0.782-1.585c0.229-0.581,0.492-1.2,0.884-1.906c0.106-0.103,0.267-0.407,0.452-0.805
			c0.162-0.408,0.312-0.923,0.472-1.416c0.312-0.989,0.603-1.913,0.722-1.901l-0.013-0.022c0.335-0.975,0.559-1.958,0.782-2.954
			c0.209-1.001,0.274-2.044,0.533-3.129c0,0,0.01,0.044,0.014,0.12c0,0,0-0.284-0.002-0.711c-0.002-0.426-0.09-0.999-0.14-1.562
			c-0.119-1.12-0.237-2.239-0.237-2.239L69.791,48c0,0-0.203,0.925-0.406,1.851c-0.078,0.46-0.277,0.905-0.372,1.242
			c-0.11,0.334-0.185,0.558-0.185,0.558s-0.085,0.62-0.213,1.55c-0.17,0.922-0.505,2.13-0.787,3.352
			c-0.397,1.186-0.817,2.37-1.138,3.254c-0.397,0.853-0.663,1.422-0.663,1.422s-0.23,0.444-0.576,1.111
			c-0.354,0.662-0.942,1.479-1.473,2.323c-0.261,0.426-0.545,0.835-0.852,1.191c-0.292,0.365-0.564,0.707-0.797,0.999
			c-0.465,0.584-0.775,0.974-0.775,0.974s-0.811,0.899-2.027,2.249c-0.651,0.632-1.447,1.334-2.279,2.107
			c-0.887,0.708-1.859,1.435-2.839,2.147c-1.046,0.611-2.042,1.313-3.062,1.816c-1.029,0.479-1.959,1.001-2.81,1.323
			c-0.854,0.316-1.564,0.58-2.062,0.764c-0.249,0.093-0.445,0.166-0.578,0.215c-0.137,0.036-0.211,0.056-0.211,0.056l-1.299,0.512
			c-0.475,0.083-0.96,0.179-1.456,0.287c-0.498,0.099-1.022,0.134-1.546,0.217c-1.051,0.15-2.133,0.351-3.245,0.371
			c-1.107,0.063-2.226,0.177-3.323,0.069c-1.097-0.074-2.182-0.078-3.186-0.338l-0.104,0.135c-1.151-0.167-1.059-0.246-1.338-0.315
			c-5.341-0.837-10.459-3.224-14.708-6.47c-4.296-3.227-7.488-7.58-9.497-11.988c-0.406-0.847-1.383-3.521-1.546-4.238
			c-1.057-2.964-1.667-6.3-1.673-9.47l0.022,0.119c0,0-0.038-0.372-0.041-0.744c0.012-0.373,0.024-0.745,0.024-0.745
			c0.016-0.062,0.033-0.07,0.042-0.022c0.002-0.838-0.023-1.932,0.164-3.047c0.218-1.109,0.363-2.28,0.648-3.268l-0.015,0.12
			c0.386-1.446,0.691-2.901,1.256-4.267c0.273-0.683,0.45-1.404,0.796-2.052c0.313-0.661,0.627-1.321,0.939-1.979
			c1.381-2.556,2.953-5.014,4.945-7.112c3.827-4.339,8.928-7.488,14.597-9.249c0.687-0.153,1.37-0.306,2.062-0.46
			c0.349-0.084,0.699-0.169,1.052-0.255c0.357-0.067,0.723-0.106,1.086-0.165c0.729-0.113,1.469-0.227,2.217-0.342
			c0.754-0.046,1.519-0.093,2.289-0.14l1.16-0.07l1.17,0.05c0.781,0.04,1.57,0.057,2.357,0.122c1.556,0.264,3.146,0.42,4.649,0.936
			c0.136,0.054,0.448,0.149,0.894,0.275c0.224,0.062,0.479,0.131,0.761,0.209c0.275,0.104,0.576,0.217,0.898,0.338
			c0.646,0.238,1.376,0.508,2.149,0.792c0.744,0.356,1.527,0.731,2.312,1.106C54.299,19.016,57.062,21.167,57.489,21.532z"/>
		<path fill="#FFFFFF" d="M67.913,36.998L67.9,36.951C67.841,36.971,67.882,37.036,67.913,36.998z"/>
		<polygon fill="#FFFFFF" points="52.07,15.605 52.149,15.646 51.891,15.422 		"/>
		<path fill="#FFFFFF" d="M65.315,27.404c-0.416-0.691-0.487-0.688-0.429-0.591C65.064,27.044,65.209,27.254,65.315,27.404z"/>
		<path fill="#FFFFFF" d="M69.284,43.106c0.056,0.4,0.07,0.244,0.076,0.005c-0.069-0.408-0.117-0.69-0.117-0.69
			C69.256,42.632,69.271,42.89,69.284,43.106z"/>
		<path fill="#FFFFFF" d="M69.879,41.344l0.07,0.12C69.899,41.225,69.883,41.237,69.879,41.344z"/>
	</g>
	<path fill="#FFFFFF" d="M38.193,6.842V0.56c0,0,20.312-0.585,33.465,15.198c13.152,15.784,10.669,28.838,10.669,28.838h-6.576
		c0,0,2.044-13.494-10.522-26.206C52.661,5.673,38.193,6.842,38.193,6.842z"/>
	<g>
		<path fill="#FFFFFF" d="M37.122,31.741C37.128,31.732,37.117,31.728,37.122,31.741L37.122,31.741z"/>
		<path fill="#FFFFFF" d="M37.342,38.709l0.001,0.007c0.03,0.005,0.056,0.01,0.075,0.014L37.342,38.709z"/>
		<path fill="#FFFFFF" d="M37.154,39.83l-0.008,0.007C37.164,39.836,37.183,39.837,37.154,39.83z"/>
		<path fill="#FFFFFF" d="M37.062,36.126c0.001-0.01-0.006-0.015-0.016-0.019C37.054,36.113,37.06,36.119,37.062,36.126z"/>
		<path fill="#FFFFFF" d="M36.962,29.688l0.003,0.005c0.006-0.004,0.01-0.007,0.018-0.012L36.962,29.688z"/>
		<path fill="#FFFFFF" d="M37.014,29.71c-0.022,0.025-0.043-0.007-0.049-0.018c-0.041,0.027-0.044,0.055-0.025,0.083
			C36.986,29.774,36.979,29.722,37.014,29.71z"/>
		<path fill="#FFFFFF" d="M36.834,25.962l0.019,0.011L36.834,25.962z"/>
		<path fill="#FFFFFF" d="M34.788,36.236l-0.011-0.017C34.776,36.229,34.781,36.233,34.788,36.236z"/>
		<path fill="#FFFFFF" d="M36.787,26.55l0.074,0.007C36.83,26.551,36.808,26.55,36.787,26.55z"/>
		<path fill="#FFFFFF" d="M37.418,38.729l0.029,0.008C37.44,38.736,37.43,38.733,37.418,38.729z"/>
		<path fill="#FFFFFF" d="M37.107,40.865c-0.023,0.002-0.041,0.004-0.057,0.005v0.003L37.107,40.865z"/>
		<path fill="#FFFFFF" d="M35.938,46.084l0.028-0.003l-0.052-0.021C35.92,46.072,35.928,46.079,35.938,46.084z"/>
		<path fill="#FFFFFF" d="M36.789,42.285l0.025,0.005c0.024-0.024,0.029-0.088,0.027-0.17l-0.091-0.005L36.789,42.285z"/>
		<path fill="#FFFFFF" d="M34.686,43.839l0.182-0.151c0.083,0.486-0.099,0.712,0.048,1.128l-0.04-0.023
			c-0.041,0.061,0.366,0.095-0.132,0.764h-0.019c0.004,0.023,0.04,0.023-0.009,0.069l0.111-0.116
			c0.046,0.069,0.133,0.13,0.145,0.222c-0.02,0.02-0.058,0.026-0.086,0.028l0.03,0.227l-0.117,0.069
			c0.063,0.069,0.311,0.038,0.173,0.223c0.172-0.069,0.103,0.092,0.19,0.069c-0.021,0.012-0.053,0.03-0.082,0.048
			c0.02,0.11,0.068,0.317,0.156,0.369c0,0,0.361-0.431,0.545-0.547c-0.047,0.155,0.021,0.041,0.078,0.01l-0.043-0.01
			c0.043-0.093,0.15-0.093,0.181-0.139l-0.03,0.002l0.015,0.006c-0.019,0.004-0.032,0.002-0.043-0.003
			c-0.023,0.001-0.041-0.003-0.035-0.029l0.012,0.005c-0.016-0.039,0.001-0.105,0.009-0.135l0.091,0
			c-0.173-0.069,0.263-0.463,0.269-0.555c0.114-0.093-0.028-0.208,0.029-0.324c0.028-0.185,0.132-0.093,0.209-0.186
			c0.058-0.116-0.105,0.023-0.111-0.023l0.126-0.139c0.011,0.081,0.065,0.037,0.101,0.022c0.016-0.12,0.182-0.309,0.001-0.346
			c0.087-0.162,0.159-0.162,0.168-0.231c-0.033,0.023-0.063,0.069-0.1,0.07c0.079-0.065-0.02-0.031-0.037-0.005
			c-0.079-0.099,0.329-0.513,0.131-0.534h0.036c-0.148-0.023-0.291,0.014-0.373-0.055l0.066-0.046l-0.063-0.069
			c0.048-0.046,0.087-0.024,0.104-0.024c-0.067-0.113,0.014-0.271,0.033-0.408l-0.402,0.145c0.094-0.115,0.282-0.324,0.152-0.347
			l0.135-0.07c0.259-0.231-0.111-0.162-0.034-0.254l0.147-0.117L36.6,42.546c0.074-0.116,0.123-0.162,0.219-0.255l-0.004-0.001
			c-0.006,0.006-0.014,0.011-0.022,0.012l-0.003-0.017c-0.074-0.014-0.124-0.074-0.119-0.156c0.021-0.116-0.088-0.207,0.068-0.392
			l-0.151-0.046l0.09-0.139h0.12c-0.008,0.136,0.038,0.392,0.045,0.567l0.055,0.003c0-0.104-0.054-0.222-0.042-0.29
			c0.024-0.034,0.149-0.119,0.229-0.057l-0.117-0.064c-0.014-0.346-0.02-0.349,0.117-0.71l-0.061,0.031
			c-0.035-0.071-0.07-0.143,0.027-0.163c0.021-0.217,0.096-0.441,0.248-0.582l-0.142-0.031c0.008-0.045,0.222-0.114,0.023-0.137
			l-0.062-0.098c0.011-0.062-0.069-0.101,0.011-0.172l0.001,0l0.017-0.013l-0.012,0c0.062-0.142-0.127,0.001-0.045-0.161
			c0.1-0.052-0.18-0.058-0.147-0.137l0.202-0.08c0.117-0.143-0.087-0.167-0.088-0.375c0.072-0.1,0.246-0.148,0.399-0.082
			c-0.187-0.091-0.121-0.041-0.21-0.162c0.076-0.019,0.092-0.006,0.161,0.021c0.089-0.107-0.069-0.066-0.064-0.146
			c-0.145-0.023-0.374-0.051-0.383-0.077l-0.045,0.031c-0.077-0.085-0.112-0.178-0.04-0.278l0.072,0.004L36.91,38.29l0.093-0.006
			l-0.028-0.151l-0.025,0.021c-0.012-0.035-0.044-0.151,0.004-0.218l0.052,0.002c0.16-0.188-0.05-0.342-0.066-0.562l0.104,0.029
			c0.104-0.075-0.161-0.021-0.109-0.109l0.129-0.005c-0.17-0.078,0.036-0.101,0.101-0.155l-0.169,0.025l0.035-0.102
			c0.057-0.112,0.214-0.069,0.303-0.052l-0.134-0.077l0.149-0.015c-0.174-0.056,0.027-0.056-0.065-0.153
			c0.057-0.008,0.089,0.017,0.112-0.017l-0.21-0.162l0.093,0.097l-0.218-0.012c-0.165-0.101,0.024-0.137-0.036-0.209l0.064,0.05
			c-0.053-0.118,0.039-0.125,0.088-0.191c-0.041,0.021-0.101,0.052-0.129,0.004c-0.013-0.035,0.076-0.019,0.101-0.052
			c-0.146-0.008-0.223-0.093-0.154-0.17c0.021,0.001,0.041,0.003,0.054,0.008c-0.023-0.02-0.061-0.03-0.025-0.064l0.161,0.02
			l-0.153-0.065c0.044-0.044-0.073-0.108,0.035-0.102l0.033,0.025l0.039-0.332l0.129-0.004c-0.178-0.033,0.067-0.181-0.154-0.17
			c0.121-0.062-0.086-0.247,0.164-0.209c0.02-0.218-0.221-0.336-0.1-0.601c0.213-0.095,0.145-0.354,0.166-0.523
			c-0.088-0.333-0.168-0.547-0.236-0.887c0.297-0.204-0.102-0.51,0.065-0.729l-0.118-0.06c0.188-0.146-0.041-0.37,0.142-0.575
			c-0.052-0.05-0.068-0.077-0.072-0.088c-0.006,0.009-0.028,0.023-0.103,0.028c0.053-0.058-0.014-0.177,0.136-0.168l0.016,0.015
			c0.149,0.009-0.069-0.178,0.06-0.243l-0.16,0.036l0.027-0.111l0.03,0.03c-0.354-0.482,0.152-0.7-0.172-1.152
			c0.175,0.06-0.092-0.089,0.099-0.095c0.24-0.114-0.051-0.211-0.115-0.305c-0.01,0-0.021-0.001-0.035-0.006l0.023-0.164
			c0.24,0.098-0.2-0.118,0.005-0.028c0.181-0.426-0.003-0.983,0.079-1.477l-0.062,0.022c0.012-0.125-0.063-0.281,0.036-0.376
			c0.099-0.095-0.158-0.208-0.168-0.245c-0.106-0.104,0.105-0.199,0.095-0.154c-0.029-0.111-0.25-0.216-0.155-0.371
			c0.205-0.053-0.201-0.421,0.029-0.426l-0.019-0.001c0.162-0.198-0.114-0.384,0.032-0.598c0,0,0.018,0.006,0.033,0.011
			l-0.699-0.434l-0.77,0.124l-0.625,0.376l0.136,1.019l-0.244,0.813l0.083,1.979l0.173,0.141c-0.303,0.389,0.046,0.887-0.171,1.306
			l0.149,0.009c0.009,0.118-0.083,0.11-0.109,0.139c0.033,1.099,0.231,2.23,0.044,3.218c-0.1,0.095-0.041,0.385-0.146,0.46
			c0.183,0.321,0.181,0.661,0.162,0.982l-0.017-0.012l0.029,0.151c-0.013,0.006-0.03,0.007-0.042,0.002
			c0.133,0.171,0.002,0.44-0.052,0.649l-0.017-0.012c-0.027,1.22,0.252,2.353,0.043,3.563c-0.243,0.563,0.093,1.217-0.11,1.863
			C34.504,42.417,34.615,43.723,34.686,43.839z"/>
		<path fill="#FFFFFF" d="M34.886,45.761l-0.001-0.005C34.822,45.756,34.846,45.764,34.886,45.761z"/>
		<polygon fill="#FFFFFF" points="36.605,43.063 36.604,43.072 36.692,43.04 		"/>
		<path fill="#FFFFFF" d="M36.657,44.791c0.021-0.078,0.005-0.081-0.021-0.07C36.633,44.749,36.638,44.773,36.657,44.791z"/>
		<path fill="#FFFFFF" d="M35.006,46.395C35,46.436,35.038,46.42,35.08,46.396c-0.008-0.045-0.012-0.071-0.012-0.071
			C35.054,46.349,35.021,46.372,35.006,46.395z"/>
		<path fill="#FFFFFF" d="M35.859,46.229l0.051,0.013C35.898,46.217,35.88,46.218,35.859,46.229z"/>
	</g>
	<g>
		<path fill="#FFFFFF" d="M51.426,47.866C51.436,47.871,51.44,47.861,51.426,47.866L51.426,47.866z"/>
		<path fill="#FFFFFF" d="M44.282,48.085l-0.007,0c-0.006,0.03-0.011,0.056-0.015,0.076L44.282,48.085z"/>
		<path fill="#FFFFFF" d="M43.133,47.898l-0.007-0.008C43.127,47.908,43.125,47.926,43.133,47.898z"/>
		<path fill="#FFFFFF" d="M46.93,47.806c0.01,0.002,0.016-0.005,0.02-0.015C46.943,47.797,46.938,47.803,46.93,47.806z"/>
		<path fill="#FFFFFF" d="M53.532,47.706c0,0-0.003,0.001-0.005,0.002c0.004,0.006,0.007,0.01,0.012,0.018L53.532,47.706z"/>
		<path fill="#FFFFFF" d="M53.509,47.757c-0.025-0.022,0.007-0.042,0.019-0.048c-0.028-0.041-0.057-0.044-0.084-0.025
			C53.443,47.729,53.496,47.723,53.509,47.757z"/>
		<path fill="#FFFFFF" d="M57.353,47.577l-0.012,0.019L57.353,47.577z"/>
		<path fill="#FFFFFF" d="M46.817,45.532l0.017-0.011C46.825,45.52,46.82,45.525,46.817,45.532z"/>
		<path fill="#FFFFFF" d="M56.749,47.531l-0.007,0.073C56.748,47.574,56.75,47.551,56.749,47.531z"/>
		<path fill="#FFFFFF" d="M44.261,48.162l-0.009,0.029C44.254,48.184,44.258,48.174,44.261,48.162z"/>
		<path fill="#FFFFFF" d="M42.071,47.851c-0.002-0.022-0.004-0.041-0.006-0.056l-0.003,0L42.071,47.851z"/>
		<path fill="#FFFFFF" d="M36.72,46.682l0.003,0.029l0.021-0.052C36.732,46.663,36.725,46.671,36.72,46.682z"/>
		<path fill="#FFFFFF" d="M40.615,47.532l-0.006,0.025c0.025,0.025,0.091,0.03,0.175,0.027l0.006-0.09L40.615,47.532z"/>
		<path fill="#FFFFFF" d="M39.022,45.429l0.155,0.182c-0.498,0.083-0.73-0.098-1.157,0.048l0.023-0.039
			c-0.062-0.042-0.097,0.365-0.783-0.132v-0.018c-0.023,0.003-0.023,0.039-0.071-0.009l0.119,0.111
			c-0.071,0.046-0.134,0.132-0.229,0.145c-0.02-0.021-0.026-0.058-0.029-0.087l-0.231,0.031l-0.071-0.117
			c-0.071,0.063-0.039,0.311-0.229,0.173c0.071,0.172-0.095,0.103-0.07,0.19c-0.014-0.021-0.032-0.053-0.05-0.083
			c-0.112,0.02-0.325,0.068-0.378,0.156c0,0,0.441,0.361,0.561,0.545c-0.158-0.046-0.042,0.021-0.01,0.079l0.01-0.043
			c0.096,0.042,0.096,0.15,0.143,0.181l-0.002-0.03l-0.006,0.015c-0.005-0.02-0.002-0.033,0.003-0.043
			c-0.001-0.023,0.003-0.042,0.029-0.035l-0.005,0.011c0.039-0.016,0.108,0.001,0.138,0.009l0.001,0.09
			c0.07-0.172,0.475,0.263,0.569,0.269c0.095,0.114,0.214-0.028,0.332,0.029c0.189,0.029,0.095,0.132,0.19,0.21
			c0.119,0.057-0.024-0.105,0.023-0.111l0.143,0.126c-0.083,0.011-0.038,0.065-0.023,0.1c0.123,0.015,0.317,0.181,0.355,0.001
			c0.166,0.086,0.166,0.159,0.237,0.167c-0.023-0.033-0.071-0.062-0.071-0.099c0.066,0.08,0.031-0.02,0.005-0.038
			c0.101-0.078,0.526,0.329,0.548,0.131v0.036c0.023-0.147-0.015-0.291,0.057-0.373l0.047,0.066l0.071-0.063
			c0.048,0.048,0.024,0.087,0.024,0.105c0.115-0.068,0.277,0.013,0.418,0.033l-0.148-0.403c0.118,0.093,0.332,0.282,0.355,0.152
			l0.071,0.135c0.237,0.258,0.166-0.112,0.261-0.034l0.119,0.147l-0.119-0.003c0.119,0.075,0.166,0.123,0.262,0.219v-0.004
			c-0.006-0.006-0.01-0.013-0.011-0.021l0.017-0.004c0.014-0.073,0.076-0.124,0.16-0.119c0.118,0.021,0.211-0.088,0.4,0.068
			l0.048-0.151l0.143,0.09v0.12c-0.14-0.007-0.402,0.039-0.582,0.044l-0.003,0.055c0.106,0,0.228-0.053,0.298-0.041
			c0.034,0.024,0.122,0.148,0.058,0.229l0.066-0.117c0.354-0.014,0.357-0.02,0.728,0.116l-0.032-0.06
			c0.073-0.036,0.146-0.07,0.167,0.028c0.223,0.02,0.453,0.095,0.598,0.247l0.031-0.141c0.047,0.008,0.118,0.221,0.141,0.023
			l0.101-0.062c0.064,0.011,0.104-0.07,0.176,0.011l0,0l0.001,0l0.014,0.017l-0.001-0.012c0.146,0.062-0.001-0.126,0.165-0.045
			c0.054,0.101,0.06-0.179,0.141-0.147l0.081,0.203c0.146,0.116,0.172-0.087,0.385-0.088c0.103,0.072,0.151,0.245,0.084,0.399
			c0.093-0.186,0.043-0.121,0.166-0.21c0.019,0.077,0.006,0.093-0.021,0.161c0.109,0.09,0.067-0.069,0.15-0.064
			c0.023-0.144,0.052-0.373,0.078-0.382l-0.031-0.045c0.087-0.077,0.183-0.113,0.284-0.041l-0.003,0.072l0.107-0.037l0.007,0.093
			l0.155-0.029l-0.021-0.025c0.036-0.012,0.155-0.044,0.224,0.004l-0.003,0.051c0.193,0.161,0.352-0.05,0.577-0.067l-0.03,0.105
			c0.077,0.104,0.021-0.162,0.113-0.109l0.004,0.129c0.081-0.169,0.104,0.036,0.16,0.1l-0.026-0.169l0.104,0.036
			c0.115,0.056,0.07,0.213,0.054,0.302l0.079-0.133l0.015,0.149c0.058-0.173,0.058,0.028,0.157-0.065
			c0.009,0.057-0.017,0.089,0.018,0.113l0.165-0.21l-0.1,0.093l0.013-0.218c0.104-0.166,0.141,0.023,0.215-0.037l-0.051,0.064
			c0.121-0.053,0.127,0.04,0.195,0.088c-0.021-0.041-0.054-0.101-0.004-0.129c0.035-0.012,0.02,0.077,0.053,0.101
			c0.008-0.145,0.096-0.222,0.174-0.153c-0.001,0.021-0.002,0.041-0.008,0.054c0.021-0.023,0.031-0.061,0.066-0.026l-0.021,0.162
			l0.067-0.154c0.045,0.044,0.11-0.073,0.104,0.036l-0.025,0.032l0.34,0.039l0.006,0.129c0.033-0.178,0.185,0.067,0.174-0.154
			c0.064,0.121,0.252-0.085,0.215,0.165c0.224,0.02,0.344-0.221,0.615-0.1c0.098,0.212,0.362,0.144,0.537,0.166
			c0.341-0.089,0.561-0.169,0.909-0.237c0.21,0.296,0.522-0.102,0.749,0.065l0.062-0.118c0.149,0.188,0.378-0.042,0.589,0.141
			c0.052-0.051,0.078-0.067,0.09-0.072c-0.009-0.005-0.023-0.028-0.028-0.103c0.061,0.052,0.182-0.013,0.173,0.136l-0.015,0.016
			c-0.009,0.149,0.182-0.07,0.249,0.06l-0.037-0.16l0.114,0.027l-0.03,0.031c0.494-0.355,0.717,0.152,1.181-0.172
			c-0.062,0.175,0.092-0.091,0.098,0.099c0.117,0.24,0.217-0.052,0.313-0.116c0-0.009,0-0.02,0.006-0.035l0.168,0.022
			c-0.101,0.241,0.121-0.2,0.029,0.005c0.437,0.18,1.008-0.003,1.514,0.08l-0.022-0.062c0.129,0.012,0.288-0.063,0.386,0.036
			s0.213-0.157,0.251-0.167c0.106-0.107,0.204,0.105,0.158,0.094c0.114-0.029,0.222-0.25,0.38-0.155
			c0.054,0.205,0.432-0.201,0.437,0.03l0.002-0.02c0.203,0.162,0.395-0.114,0.612,0.033c0,0-0.006,0.017-0.011,0.032l0.444-0.699
			l-0.127-0.77l-0.385-0.625L56.24,45.62l-0.834-0.244l-2.029,0.083l-0.145,0.174c-0.398-0.304-0.91,0.045-1.34-0.171l-0.009,0.149
			c-0.121,0.009-0.112-0.084-0.143-0.11c-1.126,0.033-2.286,0.232-3.3,0.044c-0.098-0.099-0.395-0.041-0.472-0.145
			c-0.329,0.183-0.678,0.181-1.007,0.162l0.012-0.016l-0.155,0.028c-0.007-0.012-0.007-0.03-0.002-0.041
			c-0.175,0.132-0.451,0.001-0.665-0.053l0.012-0.016c-1.251-0.027-2.412,0.251-3.653,0.043c-0.577-0.244-1.248,0.093-1.909-0.11
			C40.479,45.248,39.141,45.359,39.022,45.429z"/>
		<path fill="#FFFFFF" d="M37.051,45.629l0.006,0C37.057,45.565,37.049,45.589,37.051,45.629z"/>
		<polygon fill="#FFFFFF" points="39.817,47.349 39.809,47.348 39.842,47.437 		"/>
		<path fill="#FFFFFF" d="M38.045,47.401c0.08,0.02,0.084,0.004,0.072-0.021C38.089,47.377,38.063,47.381,38.045,47.401z"/>
		<path fill="#FFFFFF" d="M36.401,45.749c-0.042-0.005-0.026,0.032-0.002,0.074c0.046-0.007,0.073-0.011,0.073-0.011
			C36.449,45.797,36.425,45.764,36.401,45.749z"/>
		<path fill="#FFFFFF" d="M36.572,46.604l-0.014,0.051C36.583,46.642,36.582,46.623,36.572,46.604z"/>
	</g>
</g>
</svg>
