<?xml version="1.0" encoding="utf-8"?>
<!-- Generator: Adobe Illustrator 16.0.0, SVG Export Plug-In . SVG Version: 6.00 Build 0)  -->
<!DOCTYPE svg PUBLIC "-//W3C//DTD SVG 1.1//EN" "http://www.w3.org/Graphics/SVG/1.1/DTD/svg11.dtd">
<svg version="1.1" id="Layer_1" xmlns="http://www.w3.org/2000/svg" xmlns:xlink="http://www.w3.org/1999/xlink" x="0px" y="0px"
	 width="87.188px" height="38.625px" viewBox="0 0 87.188 38.625" enable-background="new 0 0 87.188 38.625" xml:space="preserve">
<g>
	<g>
		<path fill="#FFFFFF" d="M84.384,13.618C84.379,13.712,84.389,13.758,84.384,13.618L84.384,13.618z"/>
		<path fill="#FFFFFF" d="M17.529,5.934c-0.028,0.006-0.041,0.009-0.068,0.014c-0.044,0.04-0.085,0.074-0.126,0.102L17.529,5.934z"
			/>
		<path fill="#FFFFFF" d="M6.688,9.065c-0.024,0.009-0.04,0.014-0.062,0.022C6.638,9.101,6.634,9.123,6.688,9.065z"/>
		<path fill="#FFFFFF" d="M43.885,3.001c0.1,0.003,0.154-0.003,0.194-0.013C44.016,2.992,43.957,2.996,43.885,3.001z"/>
		<path fill="#FFFFFF" d="M78.632,32.494c0,0,0.02-0.019,0.034-0.033c-0.033,0.02-0.064,0.044-0.1,0.062L78.632,32.494z"/>
		<path fill="#FFFFFF" d="M78.762,32.311c0.193-0.141-0.021,0.076-0.096,0.15c0.223-0.143,0.425-0.316,0.614-0.507
			C79.247,31.921,78.873,32.259,78.762,32.311z"/>
		<path fill="#FFFFFF" d="M48.146,22.092l0.107,0.071L48.146,22.092z"/>
		<path fill="#FFFFFF" d="M42.729,0.733c0.06-0.004,0.12-0.008,0.178-0.012C42.814,0.721,42.765,0.727,42.729,0.733z"/>
		<path fill="#FFFFFF" d="M51.906,27.186l0.097,0.019C51.946,27.169,51.92,27.17,51.906,27.186z"/>
		<path fill="#FFFFFF" d="M17.335,6.05L17.26,6.094C17.286,6.083,17.31,6.067,17.335,6.05z"/>
		<path fill="#FFFFFF" d="M2.851,16.709c-0.022,0.004-0.04,0.029-0.054,0.058c0,0.013,0,0.023,0,0.03L2.851,16.709z"/>
		<path fill="#FFFFFF" d="M37.971,24.998c-0.01-0.001-0.022,0.001-0.039,0.009l-0.071,0.21
			C37.918,25.119,37.953,25.047,37.971,24.998z"/>
		<path fill="#FFFFFF" d="M6.145,30.297c0.014,0.005,0.039,0.027,0.048,0.024c-0.116-0.211-0.488-0.714-0.89-1.414L5.198,28.91
			c0,0,0.226,0.356,0.45,0.711C5.896,29.959,6.145,30.297,6.145,30.297z"/>
		<path fill="#FFFFFF" d="M19.75,38.25c0,0-0.408-0.044-0.814-0.119c-0.406-0.067-0.812-0.134-0.812-0.134
			c2.61,0.112,4.523,0.05,6.37-0.211c1.828-0.277,3.602-0.738,5.632-1.899l-0.211,0.154c0.313-0.135,0.511-0.333,1.425-0.971
			c0.873-0.662,2.553-1.815,4.799-4.72l0.015,0.01c0.136-0.212,0.103-0.23,0.414-0.626c0,0-0.192,0.248-0.384,0.496
			c-0.2,0.245-0.399,0.489-0.399,0.489c0.396-0.645,0.662-1.245,1.157-2.088c0.122-0.167,0.189-0.209,0.225-0.212l1.155-2.039
			l0.463-0.533c0.157-0.304,0.138-0.432,0.228-0.65c0.088-0.216,0.267-0.574,0.878-1.181c-0.563,0.365,0.492-0.7,0.298-0.59
			c0.075-0.047,0.234-0.161,0.374-0.226c0.359-0.337,0.933-0.702,1.521-0.895c0.581-0.212,1.17-0.25,1.402-0.309
			c0,0-0.245-0.009-0.633-0.022c-0.191,0.017-0.417,0.036-0.665,0.057c-0.236,0.064-0.515,0.088-0.772,0.201
			c-1.092,0.33-2.103,1.325-2.527,1.732c1.04-1.174,0.242-0.342,0.002-0.132l-0.03,0.11c-0.6,0.736-0.68,0.688-0.967,1.075
			c0.007,0.004,0.024-0.002,0.04-0.008l0.021-0.06c0.041-0.028,0.037,0.002,0.019,0.051c0.026,0.003,0.018,0.05-0.127,0.268
			l0.017-0.048c-0.215,0.352-0.569,0.933-0.728,1.192l-0.081-0.041c-0.109,0.349-0.754,1.366-1.474,2.368
			c-0.711,1.009-1.547,1.945-1.848,2.307c-0.673,0.67-1.371,1.63-2.336,2.324c-1.52,1.097-0.836,0.441-1.652,0.887
			c-1.037,0.519,0.261-0.017-0.141,0.218c0,0-1.296,0.533-1.307,0.504c0.736-0.333,0.311-0.206,0.162-0.178
			c-0.276,0.11-0.592,0.24-0.923,0.352c-0.337,0.099-0.684,0.202-0.999,0.294c-0.652,0.141-1.189,0.305-1.357,0.412
			c-1.611,0.229-1.635,0.081-2.322,0.176c0.234,0.005,0.697-0.02,0.706,0.016c-0.656-0.002-0.308,0.056-0.04,0.042
			c-0.489,0.107-1.787,0.146-2.992,0.062c-1.207-0.038-2.29-0.202-2.404-0.094l0.002-0.036c-0.242,0.127,0.119,0.315-0.588,0.324
			L17.08,36.23l-0.711-0.017c-0.461-0.119-0.225-0.125-0.223-0.141c-1.145-0.108-2.691-0.545-3.966-1.051
			c0,0,0.306,0.216,0.624,0.427c0.318,0.209,0.646,0.421,0.646,0.421c-0.552-0.229-1.324-0.535-1.948-0.869
			c-0.645-0.289-1.13-0.622-1.273-0.603c0,0-0.143-0.105-0.276-0.224c-0.131-0.122-0.262-0.244-0.262-0.244
			c-1.776-1.494-1.392-0.842-2.062-1.495c-0.021,0.017-0.722-0.921-0.722-0.921s0.796,0.83,0.814,0.811
			c-0.791-0.835-1.042-1.228-1.521-2l-0.009-0.006c0.03,0.055,0.048,0.092,0.046,0.104l-0.094-0.128
			c-0.132-0.072-0.545-0.515-0.943-1.224c-0.538-1.009-1.06-1.789-1.48-3.607l-0.281-0.401c0,0-0.068-0.345-0.137-0.69
			c-0.072-0.343-0.117-0.694-0.117-0.694l0.117-0.23c0.254,1.351,1.101,4.049,2,5.049h0.062c-0.503,0-1.025-1.725-1.232-2.377
			c-0.109-0.314-0.223-1.067,0.032-0.504l-0.304-0.518c-0.485-1.65-0.606-2.501-0.737-3.384c-0.119-0.888-0.205-1.79-0.242-3.624
			L2.84,18.421c-0.078-0.724-0.137-1.45-0.043-1.657c-0.023-1.107,0-2.239,0.041-3.286c0.018-0.602,0.068-0.828,0.182-1.125
			c0.078-0.138,0.112-0.272,0.201-0.392c0.092-0.113,0.18-0.223,0.267-0.329c-0.015,0,0.021-0.278,0.032-0.278
			c0.138-0.139,0.316-0.289,0.498-0.419c0.192-0.126,0.343-0.252,0.354-0.395C4.343,10.525,5.06,9.954,5.06,9.954
			c0.495-0.315,0.779-0.576,1.436-0.822l0.003-0.001C6.539,9.117,6.58,9.103,6.625,9.087C6.623,9.083,6.617,9.082,6.612,9.08
			c1.278-0.551-0.085-0.132,1.427-0.701c0.511-0.115,0.469-0.38,1.226-0.635c0,0,0.205-0.021,0.409-0.043
			c0.207-0.016,0.414-0.03,0.414-0.03c1.409-0.341,1.583-0.617,3.632-1.16c1.006-0.179,1.524-0.116,0.905,0.187
			c0.857-0.39,0.376-0.228,1.559-0.576c0.202,0.034,0.077,0.078-0.174,0.203c1.086-0.142,0.643-0.214,1.451-0.376
			c0.206-0.188,0.434-0.466,0.695-0.527l-0.323,0.018c0.845-0.251,1.785-0.454,2.804-0.561l-0.025,0.078l1.068-0.212l0.082,0.081
			l1.53-0.265l-0.214,0.007c0.358-0.07,1.541-0.271,2.227-0.312l-0.018,0.054c1.938-0.092,3.494-0.49,5.751-0.728l-0.286,0.134
			c0.778,0.028,0.195-0.182,1.117-0.215l0.057,0.125c0.792-0.245,1.047-0.057,1.607-0.039L33.26,3.438l1.051-0.051
			c1.158-0.028,0.723,0.162,0.562,0.262l0.775-0.189l0.163,0.138c0.562-0.211,0.575-0.009,1.575-0.166
			c0.086,0.051-0.166,0.098,0.177,0.103l1.646-0.295l-0.995,0.143l0.11-0.224c1.035-0.22,1.414-0.043,2.155-0.133L39.969,3.11
			c1.213-0.096,1.281-0.008,1.966,0.026c-0.213-0.036-0.539-0.089-0.049-0.128c0.36-0.02,0.197,0.072,0.538,0.089
			c0.079-0.148,0.946-0.238,1.733-0.164c-0.01,0.021-0.026,0.041-0.078,0.054c0.201-0.022,0.306-0.059,0.654-0.021l-0.208,0.16
			l0.676-0.143c0.447,0.052,1.107-0.047,1.045,0.062L45.99,3.069c0,0,0.852,0.041,1.703,0.081c0.853,0.051,1.705,0.102,1.705,0.102
			l0.041,0.132c0.347-0.164,1.852,0.18,1.754-0.049c0.636,0.16,2.54,0.099,2.143,0.32c2.234,0.202,3.468,0.074,6.168,0.505
			c0.94,0.321,3.587,0.587,5.308,0.887c3.381,0.459,5.571,0.777,8.948,1.565c1.927,0.8,5.025,1.351,6.873,2.508
			c0,0,0.584,0.156,0.576,0.166c0.559,0.438,1.351,0.871,1.988,1.478c0.653,0.587,1.141,1.343,1.088,2.032
			c0.061,0.131,0.068,0.373,0.08,0.514c0.01,0.154,0.016,0.25,0.019,0.308c0.006-0.096,0.028-0.243,0.103-0.289
			c-0.05,0.609,0.008,1.827-0.143,1.738l-0.014-0.153c-0.144-0.089,0.047,1.821-0.119,2.478l0.174-0.358l-0.08,1.126l-0.016-0.303
			c0.045,2.452-0.252,4.208-0.68,5.857c-0.438,1.65-0.979,3.208-1.933,5.202c0.15-0.592-0.364,0.799-0.576,0.728
			c-0.798,0.777-1.21,1.622-1.82,2.311c0.006,0.007,0.005,0.022-0.023,0.067c0,0-0.302,0.258-0.604,0.516
			c-0.321,0.233-0.643,0.467-0.643,0.467c0.629-0.749-0.816,0.825-0.221,0.159c-1.759,1.093-4.007,2.004-6.502,2.437
			c-2.464,0.452-5.198,0.562-7.593,0.237l0.204,0.087c-1.229-0.124-2.743-0.412-3.564-0.849c-0.423-0.183-0.877-0.38-1.299-0.5
			c-0.4-0.161-0.756-0.274-0.913-0.36c-0.93-0.443-1.51-1.215-1.176-0.931c-0.855-0.641-1.77-1.208-2.662-2.481
			c-0.086-0.267-0.756-1.078-1.341-1.907c-0.59-0.822-1.123-1.632-1.038-1.71l-0.026-0.005c-0.954-1.82-2.11-3.454-3.852-5.149
			c0,0,0.046,0.018,0.117,0.061c0,0-0.271-0.167-0.685-0.386c-0.422-0.213-1.013-0.434-1.611-0.563
			c-0.605-0.115-1.203-0.139-1.642-0.116c-0.435,0.042-0.724,0.07-0.724,0.07s0.308,0.209,0.615,0.418
			c0.147,0.097,0.281,0.225,0.379,0.314c0.095,0.089,0.158,0.149,0.158,0.149c0,0,0.216,0.057,0.501,0.219
			c0.294,0.137,0.653,0.368,0.971,0.638c0.643,0.535,1.112,1.245,1.112,1.245s0.413,0.382,0.973,1.104
			c0.562,0.716,1.253,1.791,1.951,2.914c0.697,1.124,1.442,2.271,2.061,3.103c0.616,0.835,1.085,1.363,1.085,1.363
			s0.344,0.443,0.929,1.062c0.571,0.629,1.43,1.405,2.383,2.061c0.944,0.673,1.993,1.191,2.797,1.512
			c0.805,0.331,1.359,0.479,1.359,0.48s0.336,0.106,0.932,0.231c0.298,0.056,0.66,0.124,1.076,0.202
			c0.416,0.049,0.885,0.104,1.397,0.164c2.06,0.152,4.688,0.128,7.383-0.35c1.339-0.212,2.661-0.606,3.878-1.037
			c1.201-0.489,2.31-1.006,3.18-1.602c0.887-0.563,1.562-1.131,2.016-1.545c0.234-0.2,0.406-0.369,0.518-0.491
			c0.114-0.119,0.175-0.182,0.175-0.182c0,0,0.258-0.311,0.483-0.642c0.22-0.333,0.439-0.667,0.439-0.667
			c1.485-1.615,2.598-3.907,3.251-6.283c0.67-2.384,0.939-4.843,1.188-7.062l-0.143-0.102c0.057-1.251,0.137-1.162,0.175-1.47
			c0.024-0.728,0.029-1.452,0.032-2.175l-0.002-1.079l-0.003-0.537c0.001-0.175-0.04-0.473-0.066-0.702
			c-0.026-0.505-0.247-0.939-0.409-1.394c-0.236-0.384-0.452-0.825-0.747-1.133c-0.282-0.333-0.571-0.658-0.89-0.91
			c-0.308-0.285-0.629-0.529-0.958-0.744c-2.632-1.761-5.453-2.627-8.218-3.431c-5.558-1.495-11.044-2.307-16.164-2.997
			c-0.979-0.225-4.001-0.457-4.771-0.621c-3.362-0.1-6.9-0.313-10.287-0.364l0.129-0.016l-1.597,0.031
			c-0.067-0.012-0.076-0.029-0.025-0.042c-1.795,0.151-4.608,0.144-6.796,0.238l0.127-0.024c-6.365,0.424-12.474,1.18-18.518,2.402
			c-3.021,0.619-6.026,1.355-9.007,2.422C7.047,6.31,5.562,6.936,4.124,7.814C3.767,8.041,3.415,8.294,3.062,8.539
			C2.727,8.841,2.369,9.09,2.057,9.445c-0.652,0.646-1.213,1.547-1.476,2.593c-0.044,0.249-0.081,0.502-0.112,0.758
			c-0.035,0.275-0.021,0.395-0.032,0.601l-0.027,1.13c-0.011,0.765-0.013,1.546,0.009,2.345c0.041,1.594,0.157,3.249,0.413,4.929
			c0.496,3.346,1.553,6.871,3.683,9.89c0.181,0.281,0.869,1.265,2.089,2.334c1.203,1.081,2.96,2.177,4.839,2.875
			C15.225,38.337,19.147,38.241,19.75,38.25z"/>
		<path fill="#FFFFFF" d="M37.166,28.417l-0.025,0.046C37.195,28.493,37.215,28.413,37.166,28.417z"/>
		<polygon fill="#FFFFFF" points="12.103,34.988 12.181,35.022 11.918,34.816 		"/>
		<path fill="#FFFFFF" d="M29.072,34.47c-0.687,0.345-0.729,0.34-0.615,0.33C28.717,34.696,28.923,34.563,29.072,34.47z"/>
		<path fill="#FFFFFF" d="M40.6,23.263c0.278-0.219,0.152-0.165-0.038-0.064c-0.144,0.111-0.253,0.231-0.332,0.311
			s-0.125,0.127-0.125,0.127C40.266,23.506,40.427,23.369,40.6,23.263z"/>
		<path fill="#FFFFFF" d="M38.889,23.83l0.039-0.136C38.788,23.898,38.809,23.901,38.889,23.83z"/>
	</g>
	<g>
		<path fill="#FFFFFF" d="M23.374,23.489l0.006-0.003c-0.007-0.029-0.013-0.055-0.018-0.074L23.374,23.489z"/>
		<path fill="#FFFFFF" d="M24.447,23.133l0.01,0.003C24.447,23.121,24.439,23.104,24.447,23.133z"/>
		<path fill="#FFFFFF" d="M14.741,22.642c0,0,0.003,0,0.006,0.001c0-0.007,0-0.013,0-0.021L14.741,22.642z"/>
		<path fill="#FFFFFF" d="M14.747,22.643c0.001,0.048,0.023,0.066,0.059,0.066c0.026-0.038-0.024-0.061-0.015-0.096
			C14.8,22.644,14.761,22.644,14.747,22.643z"/>
		<path fill="#FFFFFF" d="M25.349,22.577c0.014,0.018,0.026,0.031,0.038,0.042l0.003-0.001L25.349,22.577z"/>
		<path fill="#FFFFFF" d="M26.679,21.844l-0.014-0.021c-0.036,0-0.088,0.044-0.147,0.107l0.059,0.069L26.679,21.844z"/>
		<path fill="#FFFFFF" d="M27.645,20.734l-0.008-0.071C27.621,20.686,27.617,20.709,27.645,20.734z"/>
		<path fill="#FFFFFF" d="M27.791,20.5v0.022c0.042-0.007,0.076-0.022,0.084-0.022H27.791z"/>
		<path fill="#FFFFFF" d="M27.616,20.469l0.021,0.194c0.023-0.036,0.082-0.069,0.155-0.103l-0.001-0.038
			C27.738,20.531,27.673,20.529,27.616,20.469z"/>
		<polygon fill="#FFFFFF" points="27.4,21.365 27.312,21.334 27.394,21.372 		"/>
		<path fill="#FFFFFF" d="M28.408,19.912c0.018-0.024,0.027-0.049,0.02-0.075C28.369,19.898,28.381,19.909,28.408,19.912z"/>
		<path fill="#FFFFFF" d="M11.064,24.782l-0.001,0.002c0.021,0.022,0.038,0.041,0.052,0.056L11.064,24.782z"/>
		<path fill="#FFFFFF" d="M10.537,24.971c-0.016-0.016-0.029-0.028-0.04-0.039h-0.001L10.537,24.971z"/>
		<path fill="#FFFFFF" d="M8.891,24.979l-0.033-0.041c0.002,0.005,0.006,0.012,0.014,0.021L8.891,24.979z"/>
		<path fill="#FFFFFF" d="M10.081,24.97l0.017,0.019c0.021,0.014,0.035,0.007,0.047-0.007l-0.062-0.066L10.081,24.97z"/>
		<path fill="#FFFFFF" d="M10.062,24.975l0.025,0.014l0.013,0.003c-0.017-0.011-0.026-0.017-0.04-0.026
			c0,0.001,0.002,0.002,0.002,0.004V24.975z"/>
		<path fill="#FFFFFF" d="M8.184,24.157L8.184,24.157C8.141,24.111,8.156,24.129,8.184,24.157z"/>
		<polygon fill="#FFFFFF" points="9.826,24.96 9.824,24.96 9.891,25.02 		"/>
		<path fill="#FFFFFF" d="M8.162,24.347c-0.011,0.003,0.019,0.027,0.053,0.053c0.002-0.013,0.003-0.02,0.003-0.02
			C8.205,24.372,8.176,24.354,8.162,24.347z"/>
		<path fill="#FFFFFF" d="M14.008,27.619v0.002c0.024,0.017,0.046,0.031,0.062,0.042L14.008,27.619z"/>
		<path fill="#FFFFFF" d="M13.705,27.762l-0.008-0.002C13.713,27.769,13.729,27.778,13.705,27.762z"/>
		<polygon fill="#FFFFFF" points="14.94,25.742 14.941,25.745 14.956,25.756 		"/>
		<path fill="#FFFFFF" d="M14.941,25.745c-0.033-0.024-0.04-0.022-0.031-0.005c0.033,0.033,0.037,0.02,0.063,0.042
			C14.953,25.771,14.944,25.751,14.941,25.745z"/>
		<path fill="#FFFFFF" d="M13.531,27.96c-0.02-0.011-0.035-0.02-0.049-0.027v0L13.531,27.96z"/>
		<path fill="#FFFFFF" d="M11.863,28.531l-0.041-0.032c0.002,0.005,0.008,0.011,0.017,0.018L11.863,28.531z"/>
		<path fill="#FFFFFF" d="M13.072,28.112l0.021,0.014c0.024,0.007,0.038-0.005,0.046-0.024l-0.077-0.047L13.072,28.112z"/>
		<polygon fill="#FFFFFF" points="12.011,25.837 12.013,25.837 12.019,25.826 		"/>
		<polygon fill="#FFFFFF" points="11.875,28.54 11.874,28.54 11.874,28.539 		"/>
		<polygon fill="#FFFFFF" points="11.89,28.546 11.863,28.531 11.874,28.54 		"/>
		<path fill="#FFFFFF" d="M13.098,28.128c-0.009-0.003-0.014-0.004-0.021-0.006l0.012,0.004L13.098,28.128z"/>
		<polygon fill="#FFFFFF" points="12.812,28.192 12.811,28.193 12.891,28.231 		"/>
		<path fill="#FFFFFF" d="M12.619,28.579c-0.008,0.004-0.007,0.012,0.008,0.027C12.654,28.598,12.643,28.589,12.619,28.579z"/>
		<path fill="#FFFFFF" d="M11.007,28.089c-0.01,0.006,0.024,0.022,0.062,0.04c0-0.014,0-0.021,0-0.021
			C11.055,28.104,11.021,28.093,11.007,28.089z"/>
		<path fill="#FFFFFF" d="M20.981,30.147l0.001,0.002c0.029,0.007,0.054,0.013,0.073,0.017L20.981,30.147z"/>
		<path fill="#FFFFFF" d="M20.955,26.844l0.002,0.002c0.006-0.001,0.011-0.002,0.019-0.004L20.955,26.844z"/>
		<path fill="#FFFFFF" d="M20.957,26.846c-0.04,0.009-0.043,0.02-0.024,0.03c0.046,0.001,0.039-0.019,0.073-0.022
			C20.984,26.863,20.964,26.85,20.957,26.846z"/>
		<path fill="#FFFFFF" d="M20.57,30.855l0.057,0.006C20.604,30.859,20.586,30.856,20.57,30.855L20.57,30.855z"/>
		<path fill="#FFFFFF" d="M19.22,32.467l-0.051-0.014c0.004,0.004,0.012,0.008,0.022,0.011L19.22,32.467z"/>
		<path fill="#FFFFFF" d="M20.849,30.59c-0.032,0.005-0.05,0.004-0.077,0.005c0.005,0.001,0.009,0.002,0.013,0.003L20.849,30.59z"/>
		<path fill="#FFFFFF" d="M20.26,31.5h0.004c-0.011,0-0.016-0.006-0.025-0.007V31.5H20.26z"/>
		<path fill="#FFFFFF" d="M20.784,30.599l-0.073,0.009C20.72,30.595,20.866,30.617,20.784,30.599z"/>
		<polygon fill="#FFFFFF" points="20.014,31.528 20.011,31.531 20.101,31.534 		"/>
		<path fill="#FFFFFF" d="M19.955,32.096c-0.005,0.009-0.002,0.018,0.018,0.027C19.996,32.1,19.98,32.096,19.955,32.096z"/>
		<path fill="#FFFFFF" d="M18.249,32.446c-0.007,0.014,0.031,0.013,0.074,0.01c-0.005-0.018-0.008-0.026-0.008-0.026
			C18.3,32.434,18.266,32.442,18.249,32.446z"/>
		<path fill="#FFFFFF" d="M26.727,26.483L26.727,26.483c0.028-0.012,0.052-0.022,0.07-0.03L26.727,26.483z"/>
		<path fill="#FFFFFF" d="M26.631,26.706l-0.007,0.004C26.641,26.702,26.656,26.694,26.631,26.706z"/>
		<polygon fill="#FFFFFF" points="25.894,25.324 25.896,25.324 25.913,25.317 		"/>
		<path fill="#FFFFFF" d="M25.896,25.324c-0.038,0.016-0.04,0.021-0.021,0.02c0.045-0.013,0.036-0.019,0.068-0.03
			C25.924,25.324,25.902,25.324,25.896,25.324z"/>
		<path fill="#FFFFFF" d="M26.658,26.856c-0.02,0.012-0.035,0.021-0.049,0.028v0L26.658,26.856z"/>
		<path fill="#FFFFFF" d="M26.199,28.16l-0.039,0.035c0.005-0.002,0.012-0.007,0.02-0.014L26.199,28.16z"/>
		<path fill="#FFFFFF" d="M26.328,26.535c-0.04,0.029-0.004,0.025,0.01,0.025l0.021-0.027l0.035-0.019l-0.014-0.002
			c-0.004,0.002-0.002,0.002-0.006,0.005L26.328,26.535z"/>
		<path fill="#FFFFFF" d="M26.601,27.346c0.001-0.001,0,0,0.002-0.001c0.01-0.007,0.019-0.013,0.028-0.02L26.601,27.346z"/>
		<path fill="#FFFFFF" d="M26.371,27.391c0,0.001,0.004,0.007,0.005,0.009l0.017-0.013c-0.001,0.006-0.006,0.016-0.01,0.024
			c0.008,0.018,0.022,0.033,0.047,0.055c0.021-0.016,0.043-0.029,0.067-0.046l0.009-0.087l0.004-0.155
			c-0.074,0.062-0.111,0.093-0.164,0.147l-0.002-0.005C26.344,27.356,26.376,27.375,26.371,27.391z"/>
		<path fill="#FFFFFF" d="M25.38,28.867L25.38,28.867C25.333,28.91,25.352,28.895,25.38,28.867z"/>
		<path fill="#FFFFFF" d="M25.578,28.901c0.004,0.011,0.026-0.019,0.051-0.054c-0.014-0.003-0.02-0.004-0.02-0.004
			C25.602,28.857,25.586,28.888,25.578,28.901z"/>
		<path fill="#FFFFFF" d="M30.493,23.128L30.493,23.128c0.025-0.017,0.046-0.033,0.062-0.045L30.493,23.128z"/>
		<path fill="#FFFFFF" d="M30.486,23.415l-0.005,0.006C30.495,23.41,30.51,23.398,30.486,23.415z"/>
		<path fill="#FFFFFF" d="M30.578,23.602c-0.017,0.015-0.03,0.026-0.042,0.036v0.001L30.578,23.602z"/>
		<path fill="#FFFFFF" d="M30.357,25.137l-0.044,0.029c0.005-0.001,0.013-0.005,0.021-0.011L30.357,25.137z"/>
		<path fill="#FFFFFF" d="M30.378,24.259c0.012,0.024,0.024,0.043,0.024,0.055c0.001,0.001,0.004,0.011,0.006,0.016l0.064-0.062
			c0.003,0.034-0.04,0.11,0.027,0.085c-0.011,0.009-0.037,0.031-0.062,0.055c0.001,0.002,0.002,0.003,0.002,0.005l0.04-0.02
			l-0.031,0.034c0,0.001,0.001,0.002,0.002,0.003c0.022-0.014,0.05-0.034,0.077-0.055l0.008-0.129v-0.038l0.003-0.002l-0.003,0.002
			l0.003-0.2c-0.062,0.075-0.094,0.113-0.136,0.179l-0.014-0.02l-0.023,0.027c0,0.015-0.001,0.03,0.002,0.042
			C30.397,24.217,30.402,24.223,30.378,24.259z"/>
		<path fill="#FFFFFF" d="M29.465,25.754L29.465,25.754C29.414,25.792,29.435,25.778,29.465,25.754z"/>
		<path fill="#FFFFFF" d="M29.637,25.774c0.001,0.009,0.028-0.016,0.059-0.045c-0.012-0.002-0.018-0.003-0.018-0.003
			C29.668,25.737,29.646,25.763,29.637,25.774z"/>
		<path fill="#FFFFFF" d="M33.529,19.598l0.003,0c0.016-0.025,0.029-0.047,0.04-0.064L33.529,19.598z"/>
		<path fill="#FFFFFF" d="M33.711,19.916l-0.003,0.008C33.717,19.908,33.726,19.892,33.711,19.916z"/>
		<path fill="#FFFFFF" d="M31.098,18.595l0.003-0.001c0.002-0.006,0.003-0.01,0.006-0.018L31.098,18.595z"/>
		<path fill="#FFFFFF" d="M31.101,18.593c-0.014,0.039-0.009,0.046,0.009,0.034c0.023-0.04,0.006-0.042,0.021-0.073
			C31.125,18.577,31.106,18.589,31.101,18.593z"/>
		<path fill="#FFFFFF" d="M33.939,20.101c-0.01,0.021-0.018,0.036-0.024,0.05v0L33.939,20.101z"/>
		<path fill="#FFFFFF" d="M34.785,21.76l-0.025,0.046c0.004-0.003,0.01-0.009,0.015-0.019L34.785,21.76z"/>
		<polygon fill="#FFFFFF" points="34.792,21.748 34.791,21.749 34.791,21.749 		"/>
		<polygon fill="#FFFFFF" points="34.795,21.732 34.785,21.76 34.791,21.749 		"/>
		<path fill="#FFFFFF" d="M34.791,21.749c-0.006,0.017-0.011,0.029-0.017,0.038c-0.009,0.021-0.017,0.038-0.021,0.029l0.006-0.01
			c-0.017,0.01-0.028-0.014-0.033-0.025l0.034-0.084c-0.085,0.151-0.021-0.299-0.042-0.315c0.021-0.116-0.065,0.001-0.072-0.065
			c-0.037-0.049,0.028-0.132,0.035-0.215c-0.006-0.066-0.036,0.1-0.051,0.1l0.016-0.132c0.025,0,0.036-0.055,0.046-0.089
			c-0.024-0.028-0.004-0.201-0.087-0.041c-0.006-0.098,0.024-0.164,0.011-0.18c-0.008,0.033-0.009,0.065-0.023,0.099
			c0.017-0.08-0.017,0.014-0.017,0.033c-0.059,0.06,0.009-0.358-0.08-0.181l0.016-0.033c-0.068,0.131-0.119,0.265-0.172,0.331
			l0.016-0.065l-0.044,0.049c0.009-0.049,0.03-0.082,0.038-0.098c-0.058,0.048-0.062-0.043-0.089-0.078l-0.138,0.38
			c0.01-0.098,0.039-0.292-0.023-0.179l0.041-0.13c0.055-0.259-0.091,0.082-0.08,0.001l0.036-0.146l0.028,0.016
			c0.004-0.081,0.014-0.129,0.033-0.225l-0.002-0.026L34.149,20.5h-0.006c-0.003,0-0.005,0.008-0.008,0.009
			c-0.005-0.004-0.003-0.012-0.01-0.015l-0.04,0.077c-0.014,0.026-0.027,0.053-0.035,0.047c-0.02-0.032-0.093,0.069-0.068-0.091
			l-0.08,0.136l0.006-0.092l0.056-0.104c0.03,0.022,0.116,0.012,0.162,0.026l0.025-0.048c-0.025-0.012-0.079,0.022-0.091,0.003
			c0.002-0.024,0.039-0.145,0.091-0.21l-0.069,0.097c-0.092-0.026-0.095-0.028-0.12-0.196l-0.021,0.058
			c-0.034,0.021-0.067,0.042-0.026-0.047c-0.044-0.048-0.063-0.146-0.024-0.298l-0.075,0.12c-0.007-0.014,0.078-0.21-0.021-0.04
			l-0.054,0.042c-0.01-0.018-0.059,0.047-0.037-0.034v0l0.005-0.016l-0.005,0.01c-0.005-0.075-0.061,0.111-0.062,0.018
			c0.036-0.095-0.101,0.149-0.104,0.11l0.079-0.188c0.021-0.122-0.083,0.053-0.134,0.025c0.011-0.077,0.083-0.234,0.174-0.359
			c-0.112,0.15-0.068,0.1-0.142,0.161c0.033-0.069,0.044-0.082,0.084-0.138c0.019-0.093-0.05,0.051-0.066,0.036
			c-0.077,0.123-0.196,0.318-0.207,0.323l-0.015,0.043c-0.059,0.055-0.1,0.073-0.088-0.003l0.037-0.062l-0.045,0.017l0.045-0.082
			l-0.051,0.004l-0.008,0.024c-0.015,0.005-0.06,0.017-0.052-0.034l0.026-0.044c0.034-0.165-0.108-0.004-0.171-0.02l0.06-0.086
			c0.035-0.101-0.086,0.137-0.082,0.079l0.064-0.112c-0.105,0.136-0.007-0.045,0.013-0.107l-0.079,0.149l-0.008-0.045
			c0.002-0.064,0.092-0.193,0.141-0.268l-0.086,0.104l0.072-0.13c-0.102,0.142,0-0.032-0.07,0.035
			c0.026-0.049,0.049-0.074,0.053-0.099l-0.146,0.159l0.071-0.067l-0.114,0.186c-0.109,0.128-0.021-0.04-0.07,0.003l0.045-0.049
			c-0.056,0.029-0.01-0.051-0.001-0.102c-0.016,0.038-0.039,0.094-0.065,0.111c-0.015,0.006,0.035-0.068,0.039-0.093
			c-0.076,0.124-0.137,0.178-0.121,0.107c0.012-0.017,0.022-0.034,0.03-0.045c-0.018,0.017-0.039,0.048-0.029,0.013l0.088-0.136
			l-0.096,0.122c0.012-0.044-0.064,0.046-0.007-0.046l0.022-0.024l-0.062-0.083l0.065-0.111c-0.1,0.147-0.011-0.085-0.122,0.106
			c0.047-0.113-0.105,0.036,0.033-0.173c-0.044-0.049-0.198,0.139-0.201-0.005c0.087-0.196-0.013-0.177-0.044-0.222
			c-0.128,0.026-0.223,0.062-0.343,0.069c0.103-0.285-0.179,0.01-0.147-0.167l-0.075,0.092c0.061-0.183-0.114-0.021-0.07-0.208
			c-0.039,0.037-0.054,0.046-0.059,0.048c-0.001,0.006-0.009,0.027-0.047,0.092c0.013-0.054-0.051-0.016,0.028-0.142l0.012-0.011
			c0.08-0.126-0.08,0.033-0.029-0.087l-0.074,0.142l-0.013-0.04l0.022-0.022c-0.302,0.231-0.098-0.236-0.383-0.027
			c0.105-0.141-0.07,0.065,0.026-0.099c0.094-0.224-0.081,0.012-0.138,0.053c-0.006,0.008-0.012,0.017-0.021,0.029l-0.03-0.044
			c0.148-0.193-0.133,0.154-0.005-0.009c-0.019-0.22-0.257-0.146-0.343-0.292l-0.025,0.057c-0.005-0.005-0.016-0.004-0.023-0.006
			c-0.002-0.006-0.002-0.016-0.006-0.021c0,0-0.016,0.011-0.019,0.013c-0.025-0.004-0.047-0.014-0.032-0.074
			c0.024-0.101-0.131,0.105-0.146,0.108c-0.08,0.077,0.001-0.122,0.007-0.105c-0.044,0.009-0.179,0.186-0.172,0.08
			c0.086-0.186-0.207,0.112-0.096-0.09l-0.01,0.017c0.027-0.172-0.154,0.042-0.139-0.119c0,0,0.01-0.014,0.019-0.027l-0.446,0.549
			l-0.307,0.629c-0.108,0.066-0.215,0.123-0.245,0.15c-0.153,0.036-0.091,0.212-0.206,0.296c-0.127,0.162-0.166,0.023-0.283,0.071
			c-0.112,0.08,0.104,0.032,0.083,0.078l-0.184,0.066c0.034-0.081-0.036-0.068-0.073-0.073c-0.078,0.104-0.316,0.186-0.186,0.319
			c-0.155,0.104-0.226,0.055-0.275,0.109c0.042,0,0.097-0.022,0.127-0.002c-0.108,0.009-0.004,0.037,0.028,0.025
			c-0.003,0.071-0.173,0.133-0.311,0.196l0.003,0.282c-0.068,0.01-0.084,0.087-0.099,0.076c-0.022,0.14-0.19,0.284-0.296,0.387
			l0.404,0.167c-0.152,0.042-0.43,0.115-0.359,0.213l-0.154-0.03c-0.369,0.001-0.044,0.204-0.173,0.222l-0.196-0.012l0.091-0.085
			c-0.143,0.036-0.212,0.038-0.351,0.039l0.003,0.004c0.009-0.001,0.017,0.001,0.023,0.007l-0.01,0.015
			c0.042,0.062,0.03,0.144-0.035,0.203c-0.103,0.072-0.099,0.221-0.345,0.246l0.065,0.147c0,0-0.166,0.038-0.17,0.033l-0.078-0.091
			c0.115-0.087,0.272-0.32,0.401-0.452l-0.036-0.042c-0.077,0.077-0.13,0.204-0.189,0.246c-0.041,0.008-0.188-0.022-0.196-0.128
			l0.031,0.134c-0.258,0.253-0.274,0.243-0.651,0.369l0.062,0.028c-0.037,0.073-0.076,0.146-0.151,0.081
			c-0.19,0.121-0.419,0.202-0.616,0.163l0.054,0.136c-0.046,0.017-0.223-0.129-0.135,0.048l-0.053,0.102
			c-0.061,0.022-0.053,0.11-0.158,0.077l-0.021-0.008l0.007,0.01c-0.157,0.018,0.066,0.108-0.119,0.12
			c-0.096-0.061,0.038,0.185-0.049,0.198l-0.169-0.137c-0.182-0.03-0.106,0.161-0.291,0.269c-0.121-0.013-0.236-0.146-0.247-0.317
			c0.003,0.213,0.017,0.127-0.055,0.252c-0.049-0.063-0.044-0.083-0.049-0.154c-0.133-0.045-0.03,0.085-0.105,0.108
			c0.038,0.14,0.104,0.359,0.082,0.378l0.048,0.03c-0.051,0.102-0.129,0.17-0.25,0.14l-0.023-0.069l-0.087,0.073l-0.039-0.084
			l-0.133,0.083l0.028,0.016c-0.029,0.025-0.13,0.099-0.208,0.077l-0.014-0.05c-0.222-0.071-0.308,0.161-0.522,0.212l0.003-0.107
			c-0.097-0.088,0.019,0.161-0.081,0.126l-0.033-0.125c-0.039,0.18-0.106-0.017-0.169-0.07l0.058,0.161l-0.105-0.016
			c-0.118-0.034-0.104-0.197-0.104-0.287l-0.048,0.145l-0.039-0.144c-0.023,0.182-0.055-0.018-0.131,0.093
			c-0.016-0.054,0.002-0.091-0.031-0.108l-0.122,0.24l0.079-0.111l0.018,0.218c-0.079,0.182-0.133,0.009-0.2,0.074
			c0.001,0.001,0.044-0.067,0.044-0.07c-0.113,0.063-0.132-0.034-0.203-0.079c0.024,0.04,0.062,0.099,0.016,0.128
			c-0.035,0.013-0.025-0.076-0.062-0.099c0.004,0.146-0.079,0.225-0.164,0.159c0-0.021,0.001-0.041,0.005-0.054
			c-0.019,0.024-0.027,0.062-0.064,0.028l0.012-0.162l-0.06,0.156c-0.047-0.042-0.107,0.077-0.106-0.033l0.024-0.033l-0.341-0.027
			l-0.006-0.129c-0.033,0.179-0.183-0.061-0.173,0.161c-0.062-0.119-0.255,0.095-0.21-0.156c-0.218,0.003-0.349,0.197-0.605,0.049
			c-0.073-0.224-0.332-0.187-0.496-0.229c-0.164,0.025-0.314,0.049-0.457,0.071c-0.141,0-0.283-0.004-0.457-0.02
			c-0.118-0.343-0.525-0.045-0.69-0.265l-0.099,0.094c-0.08-0.205-0.362-0.112-0.485-0.36c-0.066,0.026-0.098,0.029-0.11,0.028
			c0.007,0.009,0.011,0.036-0.015,0.106c-0.034-0.073-0.172-0.063-0.102-0.196l0.021-0.008c0.07-0.132-0.194-0.011-0.199-0.155
			l-0.036,0.159l-0.092-0.071l0.042-0.015c-0.629,0.13-0.547-0.483-1.116-0.442c0.147-0.113-0.129,0.027-0.029-0.136
			c0.034-0.263-0.213-0.073-0.334-0.074c-0.006,0.008-0.013,0.016-0.026,0.025c0,0-0.133-0.108-0.131-0.111
			c0.223-0.132-0.215,0.083-0.02-0.023c-0.229-0.438-0.814-0.641-1.136-1.065l-0.026,0.062c-0.084-0.104-0.252-0.17-0.252-0.313
			c0.001-0.142-0.266-0.049-0.302-0.071c-0.155-0.007-0.071-0.225-0.046-0.183c-0.104-0.064-0.346,0.002-0.392-0.181
			c0.108-0.166-0.438-0.227-0.267-0.377l-0.017,0.011c-0.005-0.27-0.346-0.257-0.372-0.529c0,0,0.018-0.005,0.033-0.01l-0.859,0.036
			l-0.538,0.56l-0.223,0.729c0,0,0.068,0.072,0.163,0.171c-0.027,0.079-0.056,0.154-0.056,0.154l0.131,0.118
			c-0.286-0.112-0.05,0.163-0.278,0.1l0.119,0.09c-0.008,0.023-0.081-0.033-0.105-0.044c-0.098,0.183-0.081,0.489-0.364,0.515
			c-0.087-0.051-0.082,0.031-0.17-0.027c0.094,0.17,0.251,0.222,0.194,0.258l0.195-0.013v0.042c0-0.008-0.229-0.02-0.237-0.028
			c0.071,0.116-0.167,0.068-0.235,0.062l-0.062-0.013c-0.194,0.164-0.192,0.535-0.534,0.572c-0.256-0.089-0.137,0.252-0.386,0.209
			c-0.122-0.088-0.271,0.197-0.241,0.266l0.15,0.107c-0.021,0.135-0.186,0.043-0.154,0.216L8.34,23.991
			c-0.04-0.02,0.24,0.276-0.221,0.031l-0.014-0.013c-0.001,0.006,0.024,0.032-0.018,0.005l0.098,0.06
			c0.021,0.044,0.07,0.116,0.064,0.14c-0.018-0.011-0.045-0.037-0.066-0.057l-0.016,0.059l-0.095-0.072
			c0.033,0.057,0.213,0.227,0.085,0.159c0.132,0.11,0.057,0.088,0.122,0.146c-0.017-0.013-0.042-0.032-0.065-0.051
			C8.21,24.432,8.209,24.5,8.263,24.57c0,0,0.327,0.186,0.476,0.298C8.68,24.86,8.746,24.89,8.791,24.926l-0.027-0.032
			c0.044,0.015,0.12,0.092,0.149,0.106l-0.022-0.021L8.9,24.99c-0.014-0.014-0.022-0.023-0.029-0.031
			c-0.018-0.017-0.029-0.03-0.021-0.029l0.007,0.009c-0.004-0.018,0.019-0.016,0.028-0.015l0.063,0.064
			c-0.109-0.134,0.26,0.114,0.279,0.104c0.094,0.067,0.014-0.053,0.072-0.03c0.05-0.008,0.106,0.08,0.176,0.122
			c0.059,0.022-0.077-0.072-0.074-0.084l0.11,0.068c-0.006,0.021,0.04,0.053,0.066,0.076c0.03-0.007,0.175,0.083,0.056-0.053
			c0.086,0.037,0.136,0.089,0.153,0.084c-0.026-0.02-0.055-0.034-0.08-0.061c0.065,0.047-0.009-0.019-0.025-0.027
			c-0.038-0.072,0.312,0.156,0.179,0.01l0.024,0.026c-0.099-0.11-0.204-0.208-0.249-0.277l0.053,0.04l-0.032-0.057
			c0.041,0.027,0.064,0.059,0.077,0.072c-0.029-0.067,0.053-0.033,0.09-0.041l-0.304-0.267c0.084,0.049,0.249,0.152,0.163,0.055
			l0.104,0.087c0.218,0.149-0.051-0.106,0.019-0.065l0.121,0.088l-0.021,0.016c0.058,0.028,0.1,0.056,0.154,0.092
			c-0.003-0.053-0.062-0.098-0.047-0.106c0.033-0.003-0.022-0.096,0.116-0.013l-0.095-0.116l0.087,0.042l0.085,0.086
			c-0.027,0.016-0.038,0.089-0.062,0.122l0.037,0.04c0.018-0.017,0-0.073,0.02-0.076c0.021,0.012,0.123,0.088,0.168,0.156
			l-0.07-0.094c0.047-0.064,0.044-0.07,0.199-0.031l-0.047-0.038c-0.014-0.037-0.025-0.074,0.046-0.007
			c0.05-0.021,0.141-0.004,0.271,0.081l-0.094-0.106c0.014-0.002,0.174,0.139,0.039-0.005l-0.027-0.061
			c0.019-0.003-0.031-0.066,0.037-0.021l0.015,0.01l-0.009-0.008c0.067,0.021-0.089-0.09-0.005-0.059
			c0.079,0.063-0.116-0.137-0.081-0.127l0.156,0.131c0.105,0.059-0.033-0.09,0.001-0.124c0.067,0.035,0.198,0.149,0.296,0.269
			c-0.116-0.147-0.079-0.093-0.122-0.176c0.058,0.051,0.066,0.065,0.11,0.118c0.082,0.046-0.037-0.06-0.021-0.07
			c-0.098-0.106-0.256-0.272-0.258-0.284l-0.037-0.026c-0.04-0.069-0.051-0.11,0.018-0.076l0.051,0.052l-0.009-0.044l0.067,0.064
			l0.005-0.046l-0.021-0.014c-0.003-0.015-0.006-0.057,0.039-0.034l0.036,0.036c0.146,0.08,0.022-0.094,0.046-0.143l0.071,0.078
			c0.087,0.06-0.113-0.115-0.061-0.095l0.094,0.089c-0.109-0.131,0.043,0.007,0.099,0.042l-0.127-0.112l0.043,0.007
			c0.059,0.02,0.166,0.136,0.228,0.2l-0.084-0.105l0.11,0.1c-0.116-0.129,0.03,0.01-0.021-0.071
			c0.042,0.037,0.062,0.063,0.085,0.074l-0.126-0.173l0.052,0.081l-0.157-0.151c-0.103-0.131,0.04-0.008,0.009-0.062l0.038,0.053
			c-0.019-0.057,0.05,0.005,0.097,0.027c-0.033-0.024-0.082-0.06-0.095-0.087c-0.003-0.015,0.059,0.049,0.082,0.06
			c-0.104-0.101-0.147-0.168-0.084-0.134c0.015,0.015,0.028,0.029,0.038,0.038c-0.014-0.02-0.04-0.046-0.009-0.029l0.115,0.113
			l-0.102-0.117c0.039,0.022-0.036-0.069,0.043,0.005l0.02,0.027l0.084-0.036l0.096,0.086c-0.126-0.126,0.08,0.011-0.086-0.136
			c0.101,0.069-0.022-0.103,0.157,0.071c0.051-0.028-0.109-0.21,0.025-0.179c0.176,0.123,0.168,0.028,0.213,0.01
			c-0.012-0.123-0.036-0.211-0.035-0.323c0.263,0.146,0.002-0.168,0.168-0.108l-0.083-0.085c0.123,0.062,0.083-0.017,0.117-0.04
			c0.354,0.292,0.874,0.699,1.224,0.954c-0.088,0.048-0.062,0.217-0.233,0.182l0.11,0.1c-0.016,0.033-0.084-0.03-0.109-0.04
			c-0.183,0.276-0.24,0.648-0.545,0.769c-0.096-0.035-0.097,0.067-0.194,0.024c0.097,0.181-0.042,0.257-0.11,0.323l-0.094-0.012
			v0.051c0-0.005,0.056-0.015,0.047-0.022c0.084,0.112-0.021,0.104-0.097,0.122c-0.197,0.274-0.118,0.671-0.452,0.834
			c-0.287,0.006-0.079,0.325-0.336,0.361c-0.144-0.05-0.21,0.292-0.164,0.354l0.176,0.06c0.008,0.151-0.176,0.101-0.104,0.265
			l-0.03-0.025c-0.043-0.01,0.3,0.21-0.211,0.09l-0.015-0.009c-0.001,0.006,0.03,0.025-0.017,0.01l0.109,0.034
			c0.03,0.038,0.096,0.096,0.095,0.122c-0.02-0.006-0.052-0.024-0.077-0.039l-0.003,0.063l-0.108-0.047
			c0.045,0.048,0.259,0.172,0.118,0.138c0.154,0.076,0.075,0.074,0.152,0.115c-0.02-0.008-0.049-0.021-0.076-0.033
			c0.003,0.034,0.017,0.103,0.085,0.161c0,0,0.361,0.101,0.533,0.172c-0.061,0.009,0.013,0.021,0.065,0.044l-0.035-0.024
			c0.043,0.002,0.117,0.045,0.156,0.058c-0.015-0.01-0.026-0.017-0.035-0.022c-0.02-0.012-0.034-0.023-0.025-0.025l0.009,0.007
			c-0.008-0.017,0.016-0.022,0.025-0.025l0.077,0.048c-0.138-0.105,0.286,0.037,0.304,0.019c0.109,0.039,0.004-0.061,0.068-0.057
			c0.05-0.026,0.125,0.048,0.205,0.067c0.064,0.003-0.094-0.049-0.093-0.063l0.127,0.034c-0.002,0.024,0.051,0.042,0.083,0.057
			c0.029-0.019,0.197,0.024,0.048-0.077c0.097,0.008,0.159,0.045,0.176,0.034c-0.031-0.012-0.063-0.017-0.095-0.035
			c0.077,0.026-0.013-0.017-0.031-0.02c-0.053-0.062,0.351,0.053,0.184-0.053l0.031,0.019c-0.125-0.081-0.253-0.146-0.314-0.203
			l0.063,0.023l-0.046-0.048c0.048,0.015,0.078,0.04,0.094,0.049c-0.044-0.06,0.047-0.054,0.082-0.074l-0.365-0.173
			c0.095,0.022,0.285,0.072,0.176,0l0.126,0.053C13,28.154,12.672,27.981,12.75,28l0.143,0.049l-0.018,0.024
			c0.072,0.011,0.121,0.025,0.201,0.048l-0.014-0.005v-0.005c0-0.041-0.092-0.08-0.077-0.095c0.033-0.015-0.046-0.09,0.112-0.053
			l-0.122-0.086l0.097,0.014l0.104,0.061c-0.024,0.027-0.019,0.107-0.036,0.149l0.047,0.028c0.014-0.023-0.017-0.076,0.003-0.085
			c0.024,0.004,0.144,0.048,0.205,0.104l-0.093-0.074c0.034-0.084,0.029-0.087,0.192-0.097l-0.056-0.023
			c-0.021-0.033-0.042-0.066,0.044-0.021c0.045-0.037,0.139-0.047,0.287,0l-0.117-0.079c0.013-0.006,0.205,0.089,0.038-0.017
			l-0.041-0.053c0.017-0.008-0.048-0.058,0.031-0.031h0.001l0.016,0.006l-0.01-0.006c0.071,0.001-0.109-0.065-0.019-0.058
			c0.093,0.041-0.146-0.104-0.109-0.105l0.185,0.087c0.117,0.029-0.054-0.081-0.027-0.126c0.074,0.016,0.229,0.095,0.352,0.189
			c-0.147-0.116-0.099-0.071-0.159-0.144c0.067,0.036,0.079,0.047,0.135,0.088c0.091,0.024-0.051-0.05-0.036-0.063
			c-0.12-0.08-0.312-0.205-0.316-0.215l-0.043-0.017c-0.055-0.057-0.072-0.096,0.002-0.078l0.061,0.039l-0.018-0.041l0.08,0.047
			l-0.005-0.046l-0.024-0.009c-0.005-0.014-0.018-0.054,0.032-0.042l0.044,0.028c0.16,0.047,0.002-0.096,0.016-0.151l0.085,0.062
			c0.099,0.041-0.134-0.091-0.078-0.081l0.109,0.068c-0.133-0.107,0.044-0.001,0.104,0.022l-0.146-0.086l0.043-0.002
			c0.062,0.008,0.188,0.102,0.261,0.153l-0.102-0.088l0.127,0.078c-0.139-0.105,0.03,0.004-0.035-0.066
			c0.048,0.029,0.072,0.052,0.097,0.058l-0.156-0.147l0.065,0.07l-0.181-0.122c-0.126-0.111,0.038-0.015-0.004-0.063l0.048,0.046
			c-0.029-0.053,0.049-0.004,0.098,0.009c-0.036-0.018-0.091-0.044-0.108-0.07c-0.005-0.014,0.066,0.039,0.091,0.045
			c-0.12-0.082-0.174-0.142-0.105-0.118c0.017,0.012,0.033,0.024,0.044,0.031c-0.018-0.017-0.047-0.04-0.014-0.026l0.132,0.093
			l-0.119-0.098c0.043,0.016-0.046-0.062,0.044,0l0.023,0.023l0.076-0.041l0.107,0.072c-0.142-0.106,0.079,0.005-0.104-0.119
			c0.107,0.057-0.037-0.095,0.163,0.055c0.044-0.029-0.137-0.19-0.003-0.17c0.186,0.106,0.163,0.019,0.203,0
			c-0.029-0.115-0.064-0.203-0.069-0.301c0.263,0.147-0.008-0.151,0.154-0.085l-0.083-0.084c0.166,0.094,0.021-0.091,0.189-0.009
			c-0.032-0.042-0.041-0.057-0.043-0.062c-0.005-0.002-0.024-0.014-0.082-0.062c0.049,0.024,0.016-0.04,0.128,0.059l0.009,0.012
			c0.112,0.099-0.027-0.076,0.079-0.002l-0.126-0.099l0.036-0.001l0.02,0.025c-0.199-0.324,0.217-0.008,0.046-0.302
			c0.117,0.13-0.052-0.077,0.087,0.054c0.19,0.148-0.005-0.069-0.036-0.129c-0.006-0.007-0.014-0.015-0.023-0.025l0.041-0.01
			c0.157,0.185-0.123-0.16,0.009-0.001c0.194,0.062,0.147-0.164,0.287-0.173l-0.045-0.043c0.029-0.009,0.006-0.087,0.088-0.026
			c0.05,0.038,0.013-0.027-0.024-0.085l0.004-0.006c0.14,0.054,0.09,0.133,0.112,0.172c0.321,0.138,0.648,0.266,0.975,0.39
			c0.344,0.082,0.691,0.165,1.019,0.243c0.436,0.131,0.872,0.195,1.296,0.272l0.062,0.392l0.174,0.049
			c-0.298,0.109,0.056,0.28-0.184,0.407l0.149,0.013c0.005,0.039-0.088,0.03-0.114,0.038c-0.006,0.356,0.153,0.749-0.067,1.049
			c-0.102,0.019-0.054,0.12-0.159,0.131c0.169,0.128,0.158,0.238,0.125,0.342l-0.016-0.007l0.021,0.056
			c-0.013,0-0.03-0.002-0.041-0.005c0.121,0.077-0.023,0.149-0.088,0.211l-0.016-0.007c-0.095,0.407,0.118,0.834-0.154,1.209
			c-0.271,0.146,0.024,0.427-0.212,0.625c-0.153,0.018-0.116,0.498-0.053,0.549l0.188-0.026c0.056,0.184-0.137,0.236-0.016,0.404
			l-0.037-0.014c-0.045,0.016,0.356,0.085-0.173,0.25l-0.019-0.003c0.002,0.009,0.038,0.014-0.012,0.023l0.116-0.025
			c0.041,0.031,0.124,0.064,0.131,0.099c-0.021,0.004-0.059,0.001-0.087-0.002l0.018,0.083l-0.12,0.008
			c0.059,0.033,0.306,0.056,0.159,0.102c0.174-0.001,0.097,0.046,0.185,0.05c-0.021,0.001-0.054,0.003-0.084,0.005
			c0.014,0.042,0.05,0.121,0.135,0.15c0,0,0.382-0.102,0.569-0.117c-0.055,0.047,0.019,0.017,0.078,0.014l-0.042-0.009
			c0.046-0.026,0.153-0.012,0.187-0.023l-0.03-0.003l0.014,0.004c-0.019-0.001-0.032-0.004-0.042-0.007
			c-0.023-0.002-0.041-0.006-0.033-0.014l0.011,0.003c-0.014-0.015,0.007-0.036,0.017-0.045l0.089,0.013
			c-0.167-0.048,0.286-0.123,0.296-0.153c0.118-0.016-0.017-0.075,0.047-0.106c0.038-0.059,0.135-0.013,0.217-0.033
			c0.062-0.031-0.105-0.007-0.108-0.024l0.132-0.029c0.006,0.029,0.062,0.022,0.098,0.022c0.021-0.039,0.196-0.078,0.02-0.118
			c0.094-0.042,0.166-0.031,0.179-0.053c-0.034,0.003-0.066,0.014-0.103,0.009c0.082-0.01-0.018-0.014-0.036-0.007
			c-0.072-0.045,0.353-0.124,0.157-0.161l0.036,0.005c-0.145-0.03-0.288-0.04-0.365-0.076l0.067-0.005l-0.059-0.034
			c0.05-0.008,0.088,0.006,0.105,0.008c-0.062-0.049,0.027-0.09,0.054-0.133l-0.405-0.014c0.099-0.025,0.296-0.066,0.169-0.095
			l0.138-0.002c0.268-0.038-0.103-0.073-0.021-0.092l0.151-0.016l-0.008,0.139c0.07-0.024,0.122,0.029,0.203,0.042l-0.003-0.099
			c-0.071-0.017-0.118-0.095-0.109-0.123c0.026-0.036-0.075-0.11,0.089-0.146l-0.146-0.054l0.096-0.038l0.118,0.016
			c-0.015,0.045,0.016,0.137,0.014,0.196l-0.089-0.016l0.028,0.064L20.26,31.3c0.026-0.004,0.035-0.025,0.036-0.054
			c0,0,0,0.001,0,0.001l0.054,0.009c0.006-0.035-0.04-0.083-0.025-0.105c0.025-0.007,0.153-0.016,0.23,0.019l-0.067-0.146
			c0.019-0.037,0.045-0.15,0.083-0.375c0.001,0,0,0.001,0.001,0.001c0.025-0.058,0.098-0.051,0.2-0.056
			c-0.012-0.003-0.011-0.003-0.029-0.007l-0.057-0.032c0.015-0.02-0.062-0.043,0.021-0.055l0.018-0.002h-0.012
			c0.069,0-0.125-0.016-0.035-0.059c0.102-0.003-0.174-0.048-0.139-0.07l0.205,0.005c0.123-0.031-0.076-0.072-0.065-0.144
			c0.077-0.023,0.251-0.012,0.399,0.035c-0.179-0.061-0.118-0.033-0.199-0.089c0.076,0.005,0.092,0.013,0.158,0.033
			c0.095-0.023-0.064-0.034-0.055-0.062c-0.142-0.031-0.366-0.076-0.374-0.086l-0.046,0.004c-0.071-0.042-0.102-0.08-0.024-0.103
			l0.071,0.013l-0.03-0.042l0.092,0.012l-0.02-0.057l-0.026,0.003c-0.01-0.014-0.035-0.06,0.018-0.075l0.05,0.009
			c0.169-0.041-0.029-0.127-0.034-0.206l0.103,0.026c0.107-0.011-0.158-0.032-0.102-0.055l0.128,0.018
			c-0.164-0.053,0.041-0.03,0.107-0.039l-0.168-0.017l0.041-0.03c0.062-0.031,0.215,0.008,0.301,0.027l-0.127-0.046l0.148,0.017
			c-0.168-0.045,0.031-0.015-0.056-0.063c0.056,0.006,0.087,0.019,0.112,0.011l-0.199-0.087l0.087,0.048l-0.215-0.037
			c-0.157-0.06,0.031-0.044-0.024-0.078l0.061,0.027c-0.045-0.049,0.047-0.038,0.099-0.054c-0.042,0.001-0.103,0.003-0.128-0.018
			c-0.01-0.014,0.076,0.005,0.103-0.003c-0.144-0.024-0.215-0.064-0.143-0.082c0.021,0.004,0.04,0.008,0.053,0.011
			c-0.022-0.01-0.059-0.02-0.022-0.026l0.159,0.03l-0.148-0.045c0.045-0.01-0.068-0.049,0.039-0.032l0.031,0.014l0.052-0.116
			l0.128,0.016c-0.175-0.036,0.074-0.057-0.146-0.083c0.122-0.007-0.075-0.101,0.172-0.055c0.027-0.078-0.206-0.151-0.075-0.233
			c0.214-0.009,0.156-0.113,0.185-0.173c-0.075-0.132-0.146-0.219-0.201-0.35c0.304-0.047-0.082-0.195,0.093-0.26l-0.114-0.032
			c0.192-0.039-0.028-0.138,0.162-0.199c-0.05-0.022-0.065-0.033-0.068-0.037c-0.007,0.003-0.029,0.006-0.104,0.003
			c0.055-0.018-0.007-0.065,0.142-0.052l0.015,0.006c0.149,0.013-0.062-0.07,0.069-0.085l-0.161,0.003l0.031-0.039l0.029,0.013
			c-0.332-0.194,0.178-0.249-0.153-0.436c0.175,0.029-0.092-0.037,0.099-0.032c0.239-0.036-0.053-0.083-0.117-0.119
			c-0.01-0.001-0.021-0.002-0.035-0.003l0.021-0.061c0.242,0.041-0.2-0.048,0.005-0.011c0.07-0.062,0.078-0.134,0.073-0.208
			c0.039,0,0.078-0.001,0.117-0.001L21.1,26.609l0.189-0.036c0.009,0.012,0.011,0.03,0.006,0.042c0.2-0.123,0.557-0.052,0.843-0.057
			l-0.014,0.019c0.398-0.076,0.799-0.146,1.165-0.274c0.173-0.078,0.348-0.157,0.523-0.236c0.021,0.051,0.129,0.081,0.012,0.171
			l0.143-0.043c0.016,0.019-0.073,0.045-0.096,0.059c0.096,0.197,0.354,0.335,0.248,0.581c-0.086,0.053-0.011,0.085-0.104,0.137
			c0.193-0.007,0.215,0.055,0.221,0.121l-0.017,0.004l0.039,0.017c-0.012,0.005-0.028,0.012-0.038,0.016
			c0.136-0.019,0.037,0.08,0.004,0.141l-0.016,0.004c0.077,0.242,0.416,0.323,0.358,0.645c-0.149,0.227,0.191,0.177,0.107,0.41
			c-0.11,0.104,0.161,0.306,0.232,0.284l0.127-0.135c0.132,0.041,0.007,0.192,0.2,0.186l-0.035,0.021
			c-0.018,0.043,0.289-0.224,0.04,0.24l-0.014,0.013c0.007,0.002,0.033-0.022,0.007,0.02l0.06-0.099
			c0.046-0.017,0.12-0.064,0.146-0.056c-0.012,0.018-0.037,0.045-0.058,0.065l0.062,0.022l-0.069,0.096
			c0.058-0.031,0.225-0.214,0.161-0.081c0.106-0.136,0.087-0.058,0.144-0.125c-0.013,0.018-0.031,0.044-0.049,0.068
			c0.033,0.005,0.102,0.007,0.168-0.051c0,0,0.174-0.34,0.289-0.485c-0.012,0.056,0.021-0.009,0.057-0.055l-0.031,0.029
			c0.018-0.043,0.094-0.12,0.109-0.147l-0.021,0.021l0.012-0.009c-0.014,0.013-0.023,0.022-0.031,0.03
			c-0.016,0.017-0.029,0.029-0.028,0.021l0.009-0.007c-0.016,0.006-0.012-0.015-0.011-0.024l0.064-0.064
			c-0.134,0.109,0.137-0.24,0.134-0.251c0.076-0.086-0.042-0.005-0.012-0.056c0.004-0.039,0.092-0.095,0.143-0.154
			c0.033-0.048-0.079,0.069-0.088,0.069l0.084-0.094c0.017,0.001,0.055-0.038,0.08-0.061c0.001-0.021,0.117-0.138-0.029-0.034
			c0.057-0.072,0.114-0.116,0.116-0.129c-0.024,0.022-0.045,0.046-0.074,0.068c0.059-0.056-0.019,0.008-0.03,0.022
			c-0.072,0.033,0.218-0.248,0.065-0.142c-0.037,0.026-0.072,0.051-0.105,0.075l-0.009,0.08h-0.004
			c-0.021,0-0.038-0.019-0.055-0.034c-0.039,0.027-0.078,0.054-0.106,0.069l0.05-0.044l-0.058,0.028
			c0.035-0.034,0.069-0.053,0.084-0.064c-0.051,0.02-0.031-0.015-0.017-0.044c-0.002-0.003-0.006-0.009-0.007-0.011l-0.303,0.233
			c0.065-0.069,0.204-0.201,0.095-0.132l0.106-0.083c0.196-0.17-0.108,0.041-0.051-0.014l0.114-0.094l0.006,0.011
			c-0.001-0.022,0.009-0.049,0.055-0.089l-0.133,0.032l0.066-0.083l0.104-0.07c0.003,0.021,0.053,0.027,0.075,0.04l-0.072,0.043
			h0.046l0.021-0.013c0.018-0.014,0.015-0.021,0.009-0.029c0,0,0.001,0,0.001,0l0.047-0.031c-0.008-0.012-0.062,0.002-0.057-0.012
			c0.018-0.017,0.119-0.092,0.193-0.126l-0.105,0.052c-0.035-0.038-0.041-0.036,0.053-0.149l-0.051,0.034
			c-0.035,0.008-0.07,0.016,0.014-0.034c0.003-0.037,0.054-0.102,0.179-0.19l-0.127,0.063c0.004-0.009,0.188-0.118,0.012-0.028
			l-0.062,0.017c0.006-0.013-0.068,0.02-0.002-0.027h0.001l0.014-0.009l-0.011,0.005c0.047-0.046-0.112,0.059-0.051,0.001
			c0.086-0.052-0.164,0.074-0.141,0.049l0.176-0.101c0.094-0.07-0.09,0.018-0.104-0.008c0.058-0.044,0.212-0.127,0.354-0.185
			c-0.173,0.069-0.111,0.047-0.199,0.07c0.068-0.035,0.083-0.041,0.146-0.067c0.075-0.053-0.065,0.021-0.066,0.008
			c-0.132,0.058-0.341,0.151-0.35,0.154l-0.038,0.024c-0.075,0.021-0.113-0.032-0.055-0.077l0.061-0.079l0.035,0.006
			c0.112-0.081-0.073-0.021-0.102-0.044l0.098-0.038c0.091-0.052-0.149,0.063-0.107,0.03l0.118-0.052
			c-0.16,0.058,0.026-0.029,0.082-0.062l-0.153,0.071l0.026-0.029c0.044-0.038,0.191-0.094,0.274-0.127l-0.127,0.043l0.136-0.061
			c-0.163,0.061,0.022-0.019-0.069,0.005c0.052-0.023,0.083-0.033,0.104-0.047l-0.204,0.061l0.092-0.023l-0.201,0.083
			c-0.159,0.05,0.013-0.028-0.048-0.015l0.063-0.018c-0.056,0.004,0.029-0.033,0.069-0.06c-0.036,0.019-0.09,0.046-0.119,0.05
			c-0.014,0,0.07-0.032,0.09-0.046c-0.135,0.055-0.211,0.072-0.152,0.035c0.02-0.007,0.038-0.015,0.05-0.019
			c-0.022,0.006-0.058,0.019-0.027,0l0.15-0.058l-0.146,0.048c0.038-0.023-0.074,0.012,0.027-0.028l0.031-0.009l0.019-0.062
			l0.12-0.048c-0.168,0.061,0.053-0.051-0.153,0.032c0.109-0.053-0.093-0.004,0.142-0.09c0.007-0.038-0.225,0.031-0.125-0.05
			c0.193-0.088,0.115-0.1,0.128-0.132c-0.102-0.016-0.188-0.02-0.271-0.046c0.271-0.127-0.12-0.042,0.027-0.129l-0.114,0.029
			c0.17-0.081-0.059-0.042,0.105-0.129c-0.052,0.007-0.068,0.009-0.072,0.009c-0.006,0.002-0.026,0.009-0.096,0.036
			c0.047-0.025-0.021-0.022,0.121-0.067l0.016-0.002c0.143-0.044-0.075-0.005,0.045-0.054l-0.151,0.054l0.021-0.025l0.031-0.005
			c-0.362,0.033,0.11-0.147-0.219-0.122c0.17-0.04-0.092,0.012,0.091-0.042c0.226-0.083-0.059-0.017-0.124-0.014
			c-0.009,0.002-0.02,0.005-0.033,0.009l0.015-0.031c0.236-0.051-0.197,0.036,0.004-0.006c0.156-0.112-0.044-0.147,0.017-0.243
			l-0.06,0.018c0.005-0.015-0.032-0.023-0.021-0.04c0.18-0.087,0.361-0.174,0.534-0.275c0.551-0.184,0.956-0.664,1.428-1.082
			c0.131,0.092,0.25,0.19,0.236,0.372c-0.066,0.076,0.018,0.092-0.055,0.169c0.187-0.055,0.229,0.005,0.256,0.073l-0.015,0.008
			l0.042,0.007c-0.009,0.008-0.022,0.019-0.031,0.026c0.125-0.056,0.058,0.068,0.043,0.135l-0.014,0.008
			c0.139,0.211,0.501,0.213,0.498,0.537c-0.114,0.245,0.231,0.135,0.149,0.357c-0.101,0.112,0.141,0.233,0.209,0.207l0.124-0.137
			c0.123,0.021,0.008,0.167,0.173,0.138l-0.033,0.021c-0.026,0.035,0.298-0.212-0.013,0.195l-0.014,0.011
			c0.005,0.001,0.033-0.021,0.001,0.016l0.073-0.085c0.045-0.018,0.12-0.062,0.141-0.056c-0.013,0.015-0.041,0.039-0.064,0.058
			l0.052,0.015l-0.084,0.083c0.059-0.029,0.25-0.186,0.163-0.073c0.127-0.116,0.093-0.049,0.159-0.106
			c-0.016,0.015-0.038,0.037-0.06,0.058c0.029,0.004,0.093,0.006,0.169-0.04c0,0,0.233-0.286,0.363-0.417
			c-0.018,0.052,0.021-0.007,0.063-0.047l-0.035,0.024c0.021-0.04,0.107-0.106,0.125-0.132l-0.023,0.019l0.012-0.008
			c-0.015,0.011-0.025,0.02-0.034,0.026c-0.018,0.014-0.033,0.025-0.031,0.017l0.01-0.006c-0.017,0.004-0.013-0.017-0.01-0.026
			l0.071-0.056c-0.145,0.096,0.148-0.234,0.142-0.252c0.077-0.085-0.049-0.015-0.019-0.068c-0.001-0.047,0.092-0.097,0.141-0.16
			c0.029-0.054-0.08,0.069-0.09,0.065l0.08-0.1c0.02,0.006,0.057-0.035,0.082-0.059c-0.004-0.028,0.102-0.162-0.044-0.055
			c0.047-0.08,0.103-0.125,0.101-0.142c-0.022,0.024-0.04,0.05-0.068,0.073c0.054-0.061-0.02,0.007-0.029,0.022
			c-0.074,0.034,0.189-0.288,0.033-0.167l0.027-0.023c-0.075,0.058-0.143,0.112-0.203,0.159L30.52,24.5h-0.005
			c-0.024,0-0.046-0.032-0.064-0.068c-0.005,0.003-0.013,0.009-0.017,0.012l0.015-0.015c-0.003-0.005-0.006-0.009-0.009-0.014
			l-0.019,0.009c0.007-0.008,0.01-0.008,0.017-0.015c-0.015-0.033-0.023-0.062-0.029-0.079l-0.229,0.215
			c0.057-0.077,0.177-0.229,0.073-0.15l0.097-0.097c0.021-0.025,0.02-0.027,0.028-0.04c-0.004-0.007-0.008-0.013-0.011-0.021
			c-0.042,0.028-0.102,0.076-0.077,0.043l0.075-0.085c0-0.029,0.008-0.062,0.039-0.105l-0.121,0.03l0.051-0.109l0.092-0.092
			c0.012,0.025,0.072,0.031,0.102,0.052l-0.064,0.052l0.052,0.003l0.021-0.016c0.014-0.017,0.007-0.027-0.002-0.037l0.043-0.038
			c-0.014-0.017-0.07-0.003-0.069-0.021c0.015-0.021,0.099-0.115,0.169-0.157l-0.099,0.064c-0.056-0.047-0.059-0.042,0.001-0.184
			l-0.043,0.042c-0.036,0.012-0.071,0.023,0.001-0.042c-0.012-0.045,0.019-0.127,0.118-0.245l-0.112,0.085
			c0-0.012,0.156-0.158,0.001-0.036l-0.061,0.025c0.001-0.016-0.066,0.029-0.013-0.033v0h0.001l0.011-0.013l-0.009,0.007
			c0.03-0.061-0.098,0.081-0.055,0.005c0.07-0.072-0.146,0.105-0.131,0.073l0.146-0.141c0.072-0.095-0.088,0.03-0.114-0.001
			c0.043-0.061,0.171-0.177,0.299-0.265c-0.155,0.104-0.1,0.07-0.184,0.109c0.058-0.051,0.071-0.06,0.128-0.099
			c0.057-0.073-0.062,0.033-0.068,0.019c-0.114,0.087-0.295,0.228-0.306,0.23l-0.031,0.033c-0.07,0.036-0.109,0.044-0.065-0.016
			l0.057-0.045l-0.042,0.007l0.071-0.059l-0.041-0.005l-0.018,0.019c-0.014,0.002-0.053,0.005-0.023-0.035l0.04-0.032
			c0.102-0.129-0.081-0.021-0.122-0.043L30.1,23.12c0.072-0.077-0.129,0.098-0.1,0.052l0.101-0.081
			c-0.142,0.094,0.015-0.038,0.059-0.086l-0.129,0.11l0.016-0.038c0.029-0.052,0.157-0.144,0.229-0.197l-0.113,0.072l0.114-0.096
			c-0.142,0.101,0.016-0.025-0.069,0.018c0.043-0.037,0.071-0.053,0.086-0.073l-0.185,0.107l0.085-0.043l-0.171,0.134
			c-0.143,0.088,0.001-0.036-0.056-0.008l0.057-0.033c-0.056,0.015,0.016-0.043,0.046-0.084c-0.029,0.029-0.072,0.071-0.102,0.082
			c-0.014,0.002,0.059-0.051,0.072-0.071c-0.113,0.089-0.186,0.125-0.141,0.07c0.017-0.012,0.033-0.024,0.043-0.032
			c-0.021,0.012-0.051,0.033-0.027,0.007l0.129-0.098l-0.127,0.086c0.029-0.034-0.069,0.029,0.017-0.038l0.028-0.016l-0.006-0.073
			l0.102-0.08c-0.144,0.104,0.034-0.068-0.14,0.07c0.089-0.083-0.095,0.016,0.107-0.131c-0.008-0.043-0.212,0.085-0.144-0.027
			c0.159-0.142,0.077-0.138,0.076-0.175c-0.106,0.005-0.193,0.021-0.285,0.011c0.218-0.203-0.139-0.015-0.026-0.145l-0.103,0.06
			c0.137-0.129-0.075-0.031,0.053-0.165c-0.048,0.022-0.064,0.027-0.068,0.028c-0.004,0.004-0.021,0.02-0.082,0.062
			c0.037-0.039-0.03-0.019,0.094-0.102l0.014-0.006c0.125-0.083-0.076,0.013,0.023-0.069l-0.129,0.095l0.011-0.032l0.028-0.013
			c-0.284,0.103-0.078-0.08-0.151-0.096c0.062-0.103,0.108-0.187,0.115-0.217l-0.263,0.041c0.152-0.266,0.312-0.423,0.45-0.586
			c0.123-0.176,0.235-0.349,0.304-0.613l0.02,0.045c0.037-0.026-0.019-0.09,0.005-0.205l0.022,0.009l0.123-0.129
			c-0.061,0.316,0.238,0.084,0.232,0.336l0.08-0.126c0.033,0.01-0.017,0.088-0.022,0.115c0.292,0.139,0.678,0.141,0.828,0.453
			c-0.027,0.099,0.075,0.094,0.04,0.195c0.175-0.108,0.259-0.055,0.33,0.011l-0.012,0.012l0.053-0.001
			c-0.004,0.011-0.014,0.026-0.021,0.036c0.113-0.087,0.117,0.065,0.146,0.143l-0.012,0.012c0.313,0.209,0.748,0.135,0.97,0.5
			c0.034,0.301,0.364,0.102,0.464,0.366c-0.032,0.149,0.399,0.226,0.461,0.178l0.033-0.185c0.174-0.012,0.164,0.184,0.344,0.105
			l-0.022,0.033c0.002,0.047,0.171-0.324,0.168,0.223l-0.007,0.017c0.008,0,0.021-0.033,0.016,0.018l0.01-0.118
			c0.038-0.033,0.089-0.104,0.12-0.104c-0.002,0.021-0.015,0.057-0.025,0.083l0.077,0.002l-0.025,0.117
			c0.045-0.05,0.129-0.283,0.13-0.131c0.044-0.168,0.064-0.084,0.09-0.168c-0.004,0.021-0.011,0.053-0.017,0.083
			c0.038-0.004,0.115-0.022,0.161-0.098c0,0,0.013-0.391,0.051-0.575c0.024,0.062,0.019-0.015,0.032-0.072l-0.019,0.038
			C34.757,21.871,34.786,21.79,34.791,21.749z M20.441,30.927c0.001-0.023,0.002-0.012,0.004,0.008L20.441,30.927z"/>
		<path fill="#FFFFFF" d="M34.284,22.72L34.284,22.72C34.259,22.778,34.27,22.757,34.284,22.72z"/>
		<polygon fill="#FFFFFF" points="34.259,20.815 34.261,20.817 34.291,20.734 		"/>
		<path fill="#FFFFFF" d="M34.692,20.98c0.006,0.007,0.015,0.005,0.026-0.011C34.707,20.943,34.7,20.956,34.692,20.98z"/>
		<path fill="#FFFFFF" d="M34.511,22.691c0.01,0.01,0.02-0.026,0.028-0.069c-0.017,0.001-0.024,0.001-0.024,0.001
			C34.514,22.64,34.512,22.676,34.511,22.691z"/>
	</g>
	<g>
		<path fill="#FFFFFF" d="M69.374,23.489l0.006-0.003c-0.007-0.029-0.013-0.055-0.018-0.074L69.374,23.489z"/>
		<path fill="#FFFFFF" d="M70.447,23.133l0.01,0.003C70.447,23.121,70.439,23.104,70.447,23.133z"/>
		<path fill="#FFFFFF" d="M60.741,22.642c0,0,0.003,0,0.006,0.001c0-0.007,0-0.013,0-0.021L60.741,22.642z"/>
		<path fill="#FFFFFF" d="M60.747,22.643c0.001,0.048,0.023,0.066,0.059,0.066c0.026-0.038-0.024-0.061-0.015-0.096
			C60.8,22.644,60.761,22.644,60.747,22.643z"/>
		<path fill="#FFFFFF" d="M71.349,22.577c0.014,0.018,0.026,0.031,0.038,0.042l0.003-0.001L71.349,22.577z"/>
		<path fill="#FFFFFF" d="M72.679,21.844l-0.014-0.021c-0.036,0-0.088,0.044-0.147,0.107l0.059,0.069L72.679,21.844z"/>
		<path fill="#FFFFFF" d="M73.616,20.469l0.021,0.194c0.023-0.036,0.082-0.069,0.155-0.103l-0.001-0.038
			C73.738,20.531,73.673,20.529,73.616,20.469z"/>
		<path fill="#FFFFFF" d="M73.645,20.734l-0.008-0.071C73.621,20.686,73.617,20.709,73.645,20.734z"/>
		<path fill="#FFFFFF" d="M73.791,20.5v0.022c0.042-0.007,0.076-0.022,0.084-0.022H73.791z"/>
		<polygon fill="#FFFFFF" points="73.4,21.365 73.312,21.334 73.394,21.372 		"/>
		<path fill="#FFFFFF" d="M74.408,19.912c0.018-0.024,0.027-0.049,0.02-0.075C74.369,19.898,74.381,19.909,74.408,19.912z"/>
		<path fill="#FFFFFF" d="M60.008,27.619v0.002c0.024,0.017,0.046,0.031,0.062,0.042L60.008,27.619z"/>
		<path fill="#FFFFFF" d="M59.705,27.762l-0.008-0.002C59.713,27.769,59.729,27.778,59.705,27.762z"/>
		<polygon fill="#FFFFFF" points="60.94,25.742 60.941,25.745 60.956,25.756 		"/>
		<path fill="#FFFFFF" d="M60.941,25.745c-0.033-0.024-0.04-0.022-0.031-0.005c0.033,0.033,0.037,0.02,0.063,0.042
			C60.953,25.771,60.944,25.751,60.941,25.745z"/>
		<path fill="#FFFFFF" d="M59.531,27.96c-0.02-0.011-0.035-0.02-0.049-0.027v0L59.531,27.96z"/>
		<path fill="#FFFFFF" d="M57.863,28.531l-0.041-0.032c0.002,0.005,0.008,0.011,0.017,0.018L57.863,28.531z"/>
		<path fill="#FFFFFF" d="M59.072,28.112l0.021,0.014c0.024,0.007,0.038-0.005,0.046-0.024l-0.077-0.047L59.072,28.112z"/>
		<polygon fill="#FFFFFF" points="58.011,25.837 58.013,25.837 58.019,25.826 		"/>
		<polygon fill="#FFFFFF" points="57.89,28.546 57.863,28.531 57.874,28.54 		"/>
		<path fill="#FFFFFF" d="M59.098,28.128c-0.009-0.003-0.014-0.004-0.021-0.006l0.012,0.004L59.098,28.128z"/>
		<polygon fill="#FFFFFF" points="57.875,28.54 57.874,28.54 57.874,28.539 		"/>
		<polygon fill="#FFFFFF" points="58.812,28.192 58.811,28.193 58.891,28.231 		"/>
		<path fill="#FFFFFF" d="M58.619,28.579c-0.008,0.004-0.007,0.012,0.008,0.027C58.654,28.598,58.643,28.589,58.619,28.579z"/>
		<path fill="#FFFFFF" d="M57.007,28.089c-0.01,0.006,0.024,0.022,0.062,0.04c0-0.014,0-0.021,0-0.021
			C57.055,28.104,57.021,28.093,57.007,28.089z"/>
		<path fill="#FFFFFF" d="M66.981,30.147l0.001,0.002c0.029,0.007,0.054,0.013,0.073,0.017L66.981,30.147z"/>
		<path fill="#FFFFFF" d="M66.955,26.844l0.002,0.002c0.006-0.001,0.011-0.002,0.019-0.004L66.955,26.844z"/>
		<path fill="#FFFFFF" d="M66.957,26.846c-0.04,0.009-0.043,0.02-0.024,0.03c0.046,0.001,0.039-0.019,0.073-0.022
			C66.984,26.863,66.964,26.85,66.957,26.846z"/>
		<path fill="#FFFFFF" d="M66.57,30.855l0.057,0.006C66.604,30.859,66.586,30.856,66.57,30.855L66.57,30.855z"/>
		<path fill="#FFFFFF" d="M65.22,32.467l-0.051-0.014c0.004,0.004,0.012,0.008,0.022,0.011L65.22,32.467z"/>
		<path fill="#FFFFFF" d="M66.784,30.599l-0.073,0.009C66.72,30.595,66.866,30.617,66.784,30.599z"/>
		<path fill="#FFFFFF" d="M66.26,31.5h0.004c-0.011,0-0.016-0.006-0.025-0.007V31.5H66.26z"/>
		<path fill="#FFFFFF" d="M66.849,30.59c-0.032,0.005-0.05,0.004-0.077,0.005c0.005,0.001,0.009,0.002,0.013,0.003L66.849,30.59z"/>
		<polygon fill="#FFFFFF" points="66.014,31.528 66.011,31.531 66.101,31.534 		"/>
		<path fill="#FFFFFF" d="M65.955,32.096c-0.005,0.009-0.002,0.018,0.018,0.027C65.996,32.1,65.98,32.096,65.955,32.096z"/>
		<path fill="#FFFFFF" d="M64.249,32.446c-0.007,0.014,0.031,0.013,0.074,0.01c-0.005-0.018-0.008-0.026-0.008-0.026
			C64.3,32.434,64.266,32.442,64.249,32.446z"/>
		<path fill="#FFFFFF" d="M72.727,26.483L72.727,26.483c0.028-0.012,0.052-0.022,0.07-0.03L72.727,26.483z"/>
		<path fill="#FFFFFF" d="M72.631,26.706l-0.007,0.004C72.641,26.702,72.656,26.694,72.631,26.706z"/>
		<polygon fill="#FFFFFF" points="71.894,25.324 71.896,25.324 71.913,25.317 		"/>
		<path fill="#FFFFFF" d="M71.896,25.324c-0.038,0.016-0.04,0.021-0.021,0.02c0.045-0.013,0.036-0.019,0.068-0.03
			C71.924,25.324,71.902,25.324,71.896,25.324z"/>
		<path fill="#FFFFFF" d="M72.658,26.856c-0.02,0.012-0.035,0.021-0.049,0.028v0L72.658,26.856z"/>
		<path fill="#FFFFFF" d="M72.199,28.16l-0.039,0.035c0.005-0.002,0.012-0.007,0.02-0.014L72.199,28.16z"/>
		<path fill="#FFFFFF" d="M72.601,27.346c0.001-0.001,0,0,0.002-0.001c0.01-0.007,0.019-0.013,0.028-0.02L72.601,27.346z"/>
		<path fill="#FFFFFF" d="M72.328,26.535c-0.04,0.029-0.004,0.025,0.01,0.025l0.021-0.027l0.035-0.019l-0.014-0.002
			c-0.004,0.002-0.002,0.002-0.006,0.005L72.328,26.535z"/>
		<path fill="#FFFFFF" d="M72.371,27.391c0,0.001,0.004,0.007,0.005,0.009l0.017-0.013c-0.001,0.006-0.006,0.016-0.01,0.024
			c0.008,0.018,0.022,0.033,0.047,0.055c0.021-0.016,0.043-0.029,0.067-0.046l0.009-0.087l0.004-0.155
			c-0.074,0.062-0.111,0.093-0.164,0.147l-0.002-0.005C72.344,27.356,72.376,27.375,72.371,27.391z"/>
		<path fill="#FFFFFF" d="M71.38,28.867L71.38,28.867C71.333,28.91,71.352,28.895,71.38,28.867z"/>
		<path fill="#FFFFFF" d="M71.578,28.901c0.004,0.011,0.026-0.019,0.051-0.054c-0.014-0.003-0.02-0.004-0.02-0.004
			C71.602,28.857,71.586,28.888,71.578,28.901z"/>
		<path fill="#FFFFFF" d="M76.493,23.128L76.493,23.128c0.025-0.017,0.046-0.033,0.062-0.045L76.493,23.128z"/>
		<path fill="#FFFFFF" d="M76.486,23.415l-0.005,0.006C76.495,23.41,76.51,23.398,76.486,23.415z"/>
		<path fill="#FFFFFF" d="M76.578,23.602c-0.017,0.015-0.03,0.026-0.042,0.036v0.001L76.578,23.602z"/>
		<path fill="#FFFFFF" d="M76.357,25.137l-0.044,0.029c0.005-0.001,0.013-0.005,0.021-0.011L76.357,25.137z"/>
		<path fill="#FFFFFF" d="M76.378,24.259c0.012,0.024,0.024,0.043,0.024,0.055c0.001,0.001,0.004,0.011,0.006,0.016l0.064-0.062
			c0.003,0.034-0.04,0.11,0.027,0.085c-0.011,0.009-0.037,0.031-0.062,0.055c0.001,0.002,0.002,0.003,0.002,0.005l0.04-0.02
			l-0.031,0.034c0,0.001,0.001,0.002,0.002,0.003c0.022-0.014,0.05-0.034,0.077-0.055l0.008-0.129v-0.038l0.003-0.002l-0.003,0.002
			l0.003-0.2c-0.062,0.075-0.094,0.113-0.136,0.179l-0.014-0.02l-0.023,0.027c0,0.015-0.001,0.03,0.002,0.042
			C76.397,24.217,76.402,24.223,76.378,24.259z"/>
		<path fill="#FFFFFF" d="M75.465,25.754L75.465,25.754C75.414,25.792,75.435,25.778,75.465,25.754z"/>
		<path fill="#FFFFFF" d="M75.637,25.774c0.001,0.009,0.028-0.016,0.059-0.045c-0.012-0.002-0.018-0.003-0.018-0.003
			C75.668,25.737,75.646,25.763,75.637,25.774z"/>
		<path fill="#FFFFFF" d="M79.529,19.598l0.003,0c0.016-0.025,0.029-0.047,0.04-0.064L79.529,19.598z"/>
		<path fill="#FFFFFF" d="M79.711,19.916l-0.003,0.008C79.717,19.908,79.726,19.892,79.711,19.916z"/>
		<path fill="#FFFFFF" d="M77.098,18.595l0.003-0.001c0.002-0.006,0.003-0.01,0.006-0.018L77.098,18.595z"/>
		<path fill="#FFFFFF" d="M77.101,18.593c-0.014,0.039-0.009,0.046,0.009,0.034c0.023-0.04,0.006-0.042,0.021-0.073
			C77.125,18.577,77.106,18.589,77.101,18.593z"/>
		<path fill="#FFFFFF" d="M79.939,20.101c-0.01,0.021-0.018,0.036-0.024,0.05v0L79.939,20.101z"/>
		<path fill="#FFFFFF" d="M80.785,21.76l-0.025,0.046c0.004-0.003,0.01-0.009,0.015-0.019L80.785,21.76z"/>
		<polygon fill="#FFFFFF" points="80.792,21.748 80.791,21.749 80.791,21.749 		"/>
		<path fill="#FFFFFF" d="M80.791,21.749c-0.006,0.017-0.011,0.029-0.017,0.038c-0.009,0.021-0.017,0.038-0.021,0.029l0.006-0.01
			c-0.017,0.01-0.028-0.014-0.033-0.025l0.034-0.084c-0.085,0.151-0.021-0.299-0.042-0.315c0.021-0.116-0.065,0.001-0.072-0.065
			c-0.037-0.049,0.028-0.132,0.035-0.215c-0.006-0.066-0.036,0.1-0.051,0.1l0.016-0.132c0.025,0,0.036-0.055,0.046-0.089
			c-0.024-0.028-0.004-0.201-0.087-0.041c-0.006-0.098,0.024-0.164,0.011-0.18c-0.008,0.033-0.009,0.065-0.023,0.099
			c0.017-0.08-0.017,0.014-0.017,0.033c-0.059,0.06,0.009-0.358-0.08-0.181l0.016-0.033c-0.068,0.131-0.119,0.265-0.172,0.331
			l0.016-0.065l-0.044,0.049c0.009-0.049,0.03-0.082,0.038-0.098c-0.058,0.048-0.062-0.043-0.089-0.078l-0.138,0.38
			c0.01-0.098,0.039-0.292-0.023-0.179l0.041-0.13c0.055-0.259-0.091,0.082-0.08,0.001l0.036-0.146l0.028,0.016
			c0.004-0.081,0.014-0.129,0.033-0.225l-0.002-0.026L80.149,20.5h-0.006c-0.003,0-0.005,0.008-0.008,0.009
			c-0.005-0.004-0.003-0.012-0.01-0.015l-0.04,0.077c-0.014,0.026-0.027,0.053-0.035,0.047c-0.02-0.032-0.093,0.069-0.068-0.091
			l-0.08,0.136l0.006-0.092l0.056-0.104c0.03,0.022,0.116,0.012,0.162,0.026l0.025-0.048c-0.025-0.012-0.079,0.022-0.091,0.003
			c0.002-0.024,0.039-0.145,0.091-0.21l-0.069,0.097c-0.092-0.026-0.095-0.028-0.12-0.196l-0.021,0.058
			c-0.034,0.021-0.067,0.042-0.026-0.047c-0.044-0.048-0.063-0.146-0.024-0.298l-0.075,0.12c-0.007-0.014,0.078-0.21-0.021-0.04
			l-0.054,0.042c-0.01-0.018-0.059,0.047-0.037-0.034v0l0.005-0.016l-0.005,0.01c-0.005-0.075-0.061,0.111-0.062,0.018
			c0.036-0.095-0.101,0.149-0.104,0.11l0.079-0.188c0.021-0.122-0.083,0.053-0.134,0.025c0.011-0.077,0.083-0.234,0.174-0.359
			c-0.112,0.15-0.068,0.1-0.142,0.161c0.033-0.069,0.044-0.082,0.084-0.138c0.019-0.093-0.05,0.051-0.066,0.036
			c-0.077,0.123-0.196,0.318-0.207,0.323l-0.015,0.043c-0.059,0.055-0.1,0.073-0.088-0.003l0.037-0.062l-0.045,0.017l0.045-0.082
			l-0.051,0.004l-0.008,0.024c-0.015,0.005-0.06,0.017-0.052-0.034l0.026-0.044c0.034-0.165-0.108-0.004-0.171-0.02l0.06-0.086
			c0.035-0.101-0.086,0.137-0.082,0.079l0.064-0.112c-0.105,0.136-0.007-0.045,0.013-0.107l-0.079,0.149l-0.008-0.045
			c0.002-0.064,0.092-0.193,0.141-0.268l-0.086,0.104l0.072-0.13c-0.102,0.142,0-0.032-0.07,0.035
			c0.026-0.049,0.049-0.074,0.053-0.099l-0.146,0.159l0.071-0.067l-0.114,0.186c-0.109,0.128-0.021-0.04-0.07,0.003l0.045-0.049
			c-0.056,0.029-0.01-0.051-0.001-0.102c-0.016,0.038-0.039,0.094-0.065,0.111c-0.015,0.006,0.035-0.068,0.039-0.093
			c-0.076,0.124-0.137,0.178-0.121,0.107c0.012-0.017,0.022-0.034,0.03-0.045c-0.018,0.017-0.039,0.048-0.029,0.013l0.088-0.136
			l-0.096,0.122c0.012-0.044-0.064,0.046-0.007-0.046l0.022-0.024l-0.062-0.083l0.065-0.111c-0.1,0.147-0.011-0.085-0.122,0.106
			c0.047-0.113-0.105,0.036,0.033-0.173c-0.044-0.049-0.198,0.139-0.201-0.005c0.087-0.196-0.013-0.177-0.044-0.222
			c-0.128,0.026-0.223,0.062-0.343,0.069c0.103-0.285-0.179,0.01-0.147-0.167l-0.075,0.092c0.061-0.183-0.114-0.021-0.07-0.208
			c-0.039,0.037-0.054,0.046-0.059,0.048c-0.001,0.006-0.009,0.027-0.047,0.092c0.013-0.054-0.051-0.016,0.028-0.142l0.012-0.011
			c0.08-0.126-0.08,0.033-0.029-0.087l-0.074,0.142l-0.013-0.04l0.022-0.022c-0.302,0.231-0.098-0.236-0.383-0.027
			c0.105-0.141-0.07,0.065,0.026-0.099c0.094-0.224-0.081,0.012-0.138,0.053c-0.006,0.008-0.012,0.017-0.021,0.029l-0.03-0.044
			c0.148-0.193-0.133,0.154-0.005-0.009c-0.019-0.22-0.257-0.146-0.343-0.292l-0.025,0.057c-0.005-0.005-0.016-0.004-0.023-0.006
			c-0.002-0.006-0.002-0.016-0.006-0.021c0,0-0.016,0.011-0.019,0.013c-0.025-0.004-0.047-0.014-0.032-0.074
			c0.024-0.101-0.131,0.105-0.146,0.108c-0.08,0.077,0.001-0.122,0.007-0.105c-0.044,0.009-0.179,0.186-0.172,0.08
			c0.086-0.186-0.207,0.112-0.096-0.09l-0.01,0.017c0.027-0.172-0.154,0.042-0.139-0.119c0,0,0.01-0.014,0.019-0.027l-0.446,0.549
			l-0.307,0.629c-0.108,0.066-0.215,0.123-0.245,0.15c-0.153,0.036-0.091,0.212-0.206,0.296c-0.127,0.162-0.166,0.023-0.283,0.071
			c-0.112,0.08,0.104,0.032,0.083,0.078l-0.184,0.066c0.034-0.081-0.036-0.068-0.073-0.073c-0.078,0.104-0.316,0.186-0.186,0.319
			c-0.155,0.104-0.226,0.055-0.275,0.109c0.042,0,0.097-0.022,0.127-0.002c-0.108,0.009-0.004,0.037,0.028,0.025
			c-0.003,0.071-0.173,0.133-0.311,0.196l0.003,0.282c-0.068,0.01-0.084,0.087-0.099,0.076c-0.022,0.14-0.19,0.284-0.296,0.387
			l0.404,0.167c-0.152,0.042-0.43,0.115-0.359,0.213l-0.154-0.03c-0.369,0.001-0.044,0.204-0.173,0.222l-0.196-0.012l0.091-0.085
			c-0.143,0.036-0.212,0.038-0.351,0.039l0.003,0.004c0.009-0.001,0.017,0.001,0.023,0.007l-0.01,0.015
			c0.042,0.062,0.03,0.144-0.035,0.203c-0.103,0.072-0.099,0.221-0.345,0.246l0.065,0.147c0,0-0.166,0.038-0.17,0.033l-0.078-0.091
			c0.115-0.087,0.272-0.32,0.401-0.452l-0.036-0.042c-0.077,0.077-0.13,0.204-0.189,0.246c-0.041,0.008-0.188-0.022-0.196-0.128
			l0.031,0.134c-0.258,0.253-0.274,0.243-0.651,0.369l0.062,0.028c-0.037,0.073-0.076,0.146-0.151,0.081
			c-0.19,0.121-0.419,0.202-0.616,0.163l0.054,0.136c-0.046,0.017-0.223-0.129-0.135,0.048l-0.053,0.102
			c-0.061,0.022-0.053,0.11-0.158,0.077l-0.021-0.008l0.007,0.01c-0.157,0.018,0.066,0.108-0.119,0.12
			c-0.096-0.061,0.038,0.185-0.049,0.198l-0.169-0.137c-0.182-0.03-0.106,0.161-0.291,0.269c-0.121-0.013-0.236-0.146-0.247-0.317
			c0.003,0.213,0.017,0.127-0.055,0.252c-0.049-0.063-0.044-0.083-0.049-0.154c-0.133-0.045-0.03,0.085-0.105,0.108
			c0.038,0.14,0.104,0.359,0.082,0.378l0.048,0.03c-0.051,0.102-0.129,0.17-0.25,0.14l-0.023-0.069l-0.087,0.073l-0.039-0.084
			l-0.133,0.083l0.028,0.016c-0.029,0.025-0.13,0.099-0.208,0.077l-0.014-0.05c-0.222-0.071-0.308,0.161-0.522,0.212l0.003-0.107
			c-0.097-0.088,0.019,0.161-0.081,0.126l-0.033-0.125c-0.039,0.18-0.106-0.017-0.169-0.07l0.058,0.161l-0.105-0.016
			c-0.118-0.034-0.104-0.197-0.104-0.287l-0.048,0.145l-0.039-0.144c-0.023,0.182-0.055-0.018-0.131,0.093
			c-0.016-0.054,0.002-0.091-0.031-0.108l-0.122,0.24l0.079-0.111l0.018,0.218c-0.079,0.182-0.133,0.009-0.2,0.074
			c0.001,0.001,0.044-0.067,0.044-0.07c-0.113,0.063-0.132-0.034-0.203-0.079c0.024,0.04,0.062,0.099,0.016,0.128
			c-0.035,0.013-0.025-0.076-0.062-0.099c0.004,0.146-0.079,0.225-0.164,0.159c0-0.021,0.001-0.041,0.005-0.054
			c-0.019,0.024-0.027,0.062-0.064,0.028l0.012-0.162l-0.06,0.156c-0.047-0.042-0.107,0.077-0.106-0.033l0.024-0.033l-0.341-0.027
			l-0.006-0.129c-0.033,0.179-0.183-0.061-0.173,0.161c-0.062-0.119-0.255,0.095-0.21-0.156c-0.218,0.003-0.349,0.197-0.605,0.049
			c-0.073-0.224-0.332-0.187-0.496-0.229c-0.164,0.025-0.314,0.049-0.457,0.071c-0.141,0-0.283-0.004-0.457-0.02
			c-0.118-0.343-0.525-0.045-0.69-0.265l-0.099,0.094c-0.08-0.205-0.362-0.112-0.485-0.36c-0.066,0.026-0.098,0.029-0.11,0.028
			c0.007,0.009,0.011,0.036-0.015,0.106c-0.034-0.073-0.172-0.063-0.102-0.196l0.021-0.008c0.07-0.132-0.194-0.011-0.199-0.155
			l-0.036,0.159l-0.092-0.071l0.042-0.015c-0.629,0.13-0.547-0.483-1.116-0.442c0.147-0.113-0.129,0.027-0.029-0.136
			c0.034-0.263-0.213-0.073-0.334-0.074c-0.006,0.008-0.013,0.016-0.026,0.025c0,0-0.133-0.108-0.131-0.111
			c0.223-0.132-0.215,0.083-0.02-0.023c-0.229-0.438-0.814-0.641-1.136-1.065l-0.026,0.062c-0.084-0.104-0.252-0.17-0.252-0.313
			c0.001-0.142-0.266-0.049-0.302-0.071c-0.155-0.007-0.071-0.225-0.046-0.183c-0.104-0.064-0.346,0.002-0.392-0.181
			c0.108-0.166-0.438-0.227-0.267-0.377l-0.017,0.011c-0.005-0.27-0.346-0.257-0.372-0.529c0,0,0.018-0.005,0.033-0.01l-0.859,0.036
			l-0.538,0.56l-0.223,0.729c-0.001,0,0.862,0.907,0.889,0.884l0.521,0.892c-0.036,0.035,1.023,0.878,1.596,1.297
			c-0.088,0.048-0.062,0.217-0.233,0.182l0.11,0.1c-0.016,0.033-0.084-0.03-0.109-0.04c-0.183,0.276-0.24,0.648-0.545,0.769
			c-0.096-0.035-0.097,0.067-0.194,0.024c0.097,0.181-0.042,0.257-0.11,0.323l-0.094-0.012v0.051c0-0.005,0.056-0.015,0.047-0.022
			c0.084,0.112-0.021,0.104-0.097,0.122c-0.197,0.274-0.118,0.671-0.452,0.834c-0.287,0.006-0.079,0.325-0.336,0.361
			c-0.144-0.05-0.21,0.292-0.164,0.354l0.176,0.06c0.008,0.151-0.176,0.101-0.104,0.265l-0.03-0.025
			c-0.043-0.01,0.3,0.21-0.211,0.09l-0.015-0.009c-0.001,0.006,0.03,0.025-0.017,0.01l0.109,0.034
			c0.03,0.038,0.096,0.096,0.095,0.122c-0.02-0.006-0.052-0.024-0.077-0.039l-0.003,0.063l-0.108-0.047
			c0.045,0.048,0.259,0.172,0.118,0.138c0.154,0.076,0.075,0.074,0.152,0.115c-0.02-0.008-0.049-0.021-0.076-0.033
			c0.003,0.034,0.017,0.103,0.085,0.161c0,0,0.361,0.101,0.533,0.172c-0.061,0.009,0.013,0.021,0.065,0.044l-0.035-0.024
			c0.043,0.002,0.117,0.045,0.156,0.058c-0.015-0.01-0.026-0.017-0.035-0.022c-0.02-0.012-0.034-0.023-0.025-0.025l0.009,0.007
			c-0.008-0.017,0.016-0.022,0.025-0.025l0.077,0.048c-0.138-0.105,0.286,0.037,0.304,0.019c0.109,0.039,0.004-0.061,0.068-0.057
			c0.05-0.026,0.125,0.048,0.205,0.067c0.064,0.003-0.094-0.049-0.093-0.063l0.127,0.034c-0.002,0.024,0.051,0.042,0.083,0.057
			c0.029-0.019,0.197,0.024,0.048-0.077c0.097,0.008,0.159,0.045,0.176,0.034c-0.031-0.012-0.063-0.017-0.095-0.035
			c0.077,0.026-0.013-0.017-0.031-0.02c-0.053-0.062,0.351,0.053,0.184-0.053l0.031,0.019c-0.125-0.081-0.253-0.146-0.314-0.203
			l0.063,0.023l-0.046-0.048c0.048,0.015,0.078,0.04,0.094,0.049c-0.044-0.06,0.047-0.054,0.082-0.074l-0.365-0.173
			c0.095,0.022,0.285,0.072,0.176,0l0.126,0.053C59,28.154,58.672,27.981,58.75,28l0.143,0.049l-0.018,0.024
			c0.072,0.011,0.121,0.025,0.201,0.048l-0.014-0.005v-0.005c0-0.041-0.092-0.08-0.077-0.095c0.033-0.015-0.046-0.09,0.112-0.053
			l-0.122-0.086l0.097,0.014l0.104,0.061c-0.024,0.027-0.019,0.107-0.036,0.149l0.047,0.028c0.014-0.023-0.017-0.076,0.003-0.085
			c0.024,0.004,0.144,0.048,0.205,0.104l-0.093-0.074c0.034-0.084,0.029-0.087,0.192-0.097l-0.056-0.023
			c-0.021-0.033-0.042-0.066,0.044-0.021c0.045-0.037,0.139-0.047,0.287,0l-0.117-0.079c0.013-0.006,0.205,0.089,0.038-0.017
			l-0.041-0.053c0.017-0.008-0.048-0.058,0.031-0.031h0.001l0.016,0.006l-0.01-0.006c0.071,0.001-0.109-0.065-0.019-0.058
			c0.093,0.041-0.146-0.104-0.109-0.105l0.185,0.087c0.117,0.029-0.054-0.081-0.027-0.126c0.074,0.016,0.229,0.095,0.352,0.189
			c-0.147-0.116-0.099-0.071-0.159-0.144c0.067,0.036,0.079,0.047,0.135,0.088c0.091,0.024-0.051-0.05-0.036-0.063
			c-0.12-0.08-0.312-0.205-0.316-0.215l-0.043-0.017c-0.055-0.057-0.072-0.096,0.002-0.078l0.061,0.039l-0.018-0.041l0.08,0.047
			l-0.005-0.046l-0.024-0.009c-0.005-0.014-0.018-0.054,0.032-0.042l0.044,0.028c0.16,0.047,0.002-0.096,0.016-0.151l0.085,0.062
			c0.099,0.041-0.134-0.091-0.078-0.081l0.109,0.068c-0.133-0.107,0.044-0.001,0.104,0.022l-0.146-0.086l0.043-0.002
			c0.062,0.008,0.188,0.102,0.261,0.153l-0.102-0.088l0.127,0.078c-0.139-0.105,0.03,0.004-0.035-0.066
			c0.048,0.029,0.072,0.052,0.097,0.058l-0.156-0.147l0.065,0.07l-0.181-0.122c-0.126-0.111,0.038-0.015-0.004-0.063l0.048,0.046
			c-0.029-0.053,0.049-0.004,0.098,0.009c-0.036-0.018-0.091-0.044-0.108-0.07c-0.005-0.014,0.066,0.039,0.091,0.045
			c-0.12-0.082-0.174-0.142-0.105-0.118c0.017,0.012,0.033,0.024,0.044,0.031c-0.018-0.017-0.047-0.04-0.014-0.026l0.132,0.093
			l-0.119-0.098c0.043,0.016-0.046-0.062,0.044,0l0.023,0.023l0.076-0.041l0.107,0.072c-0.142-0.106,0.079,0.005-0.104-0.119
			c0.107,0.057-0.037-0.095,0.163,0.055c0.044-0.029-0.137-0.19-0.003-0.17c0.186,0.106,0.163,0.019,0.203,0
			c-0.029-0.115-0.064-0.203-0.069-0.301c0.263,0.147-0.008-0.151,0.154-0.085l-0.083-0.084c0.166,0.094,0.021-0.091,0.189-0.009
			c-0.032-0.042-0.041-0.057-0.043-0.062c-0.005-0.002-0.024-0.014-0.082-0.062c0.049,0.024,0.016-0.04,0.128,0.059l0.009,0.012
			c0.112,0.099-0.027-0.076,0.079-0.002l-0.126-0.099l0.036-0.001l0.02,0.025c-0.199-0.324,0.217-0.008,0.046-0.302
			c0.117,0.13-0.052-0.077,0.087,0.054c0.19,0.148-0.005-0.069-0.036-0.129c-0.006-0.007-0.014-0.015-0.023-0.025l0.041-0.01
			c0.157,0.185-0.123-0.16,0.009-0.001c0.194,0.062,0.147-0.164,0.287-0.173l-0.045-0.043c0.029-0.009,0.006-0.087,0.088-0.026
			c0.05,0.038,0.013-0.027-0.024-0.085l0.004-0.006c0.14,0.054,0.09,0.133,0.112,0.172c0.321,0.138,0.648,0.266,0.975,0.39
			c0.344,0.082,0.691,0.165,1.019,0.243c0.436,0.131,0.872,0.195,1.296,0.272l0.062,0.392l0.174,0.049
			c-0.298,0.109,0.056,0.28-0.184,0.407l0.149,0.013c0.005,0.039-0.088,0.03-0.114,0.038c-0.006,0.356,0.153,0.749-0.067,1.049
			c-0.102,0.019-0.054,0.12-0.159,0.131c0.169,0.128,0.158,0.238,0.125,0.342l-0.016-0.007l0.021,0.056
			c-0.013,0-0.03-0.002-0.041-0.005c0.121,0.077-0.023,0.149-0.088,0.211l-0.016-0.007c-0.095,0.407,0.118,0.834-0.154,1.209
			c-0.271,0.146,0.024,0.427-0.212,0.625c-0.153,0.018-0.116,0.498-0.053,0.549l0.188-0.026c0.056,0.184-0.137,0.236-0.016,0.404
			l-0.037-0.014c-0.045,0.016,0.356,0.085-0.173,0.25l-0.019-0.003c0.002,0.009,0.038,0.014-0.012,0.023l0.116-0.025
			c0.041,0.031,0.124,0.064,0.131,0.099c-0.021,0.004-0.059,0.001-0.087-0.002l0.018,0.083l-0.12,0.008
			c0.059,0.033,0.306,0.056,0.159,0.102c0.174-0.001,0.097,0.046,0.185,0.05c-0.021,0.001-0.054,0.003-0.084,0.005
			c0.014,0.042,0.05,0.121,0.135,0.15c0,0,0.382-0.102,0.569-0.117c-0.055,0.047,0.019,0.017,0.078,0.014l-0.042-0.009
			c0.046-0.026,0.153-0.012,0.187-0.023l-0.03-0.003l0.014,0.004c-0.019-0.001-0.032-0.004-0.042-0.007
			c-0.023-0.002-0.041-0.006-0.033-0.014l0.011,0.003c-0.014-0.015,0.007-0.036,0.017-0.045l0.089,0.013
			c-0.167-0.048,0.286-0.123,0.296-0.153c0.118-0.016-0.017-0.075,0.047-0.106c0.038-0.059,0.135-0.013,0.217-0.033
			c0.062-0.031-0.105-0.007-0.108-0.024l0.132-0.029c0.006,0.029,0.062,0.022,0.098,0.022c0.021-0.039,0.196-0.078,0.02-0.118
			c0.094-0.042,0.166-0.031,0.179-0.053c-0.034,0.003-0.066,0.014-0.103,0.009c0.082-0.01-0.018-0.014-0.036-0.007
			c-0.072-0.045,0.353-0.124,0.157-0.161l0.036,0.005c-0.145-0.03-0.288-0.04-0.365-0.076l0.067-0.005l-0.059-0.034
			c0.05-0.008,0.088,0.006,0.105,0.008c-0.062-0.049,0.027-0.09,0.054-0.133l-0.405-0.014c0.099-0.025,0.296-0.066,0.169-0.095
			l0.138-0.002c0.268-0.038-0.103-0.073-0.021-0.092l0.151-0.016l-0.008,0.139c0.07-0.024,0.122,0.029,0.203,0.042l-0.003-0.099
			c-0.071-0.017-0.118-0.095-0.109-0.123c0.026-0.036-0.075-0.11,0.089-0.146l-0.146-0.054l0.096-0.038l0.118,0.016
			c-0.015,0.045,0.016,0.137,0.014,0.196l-0.089-0.016l0.028,0.064L66.26,31.3c0.026-0.004,0.035-0.025,0.036-0.054
			c0,0,0,0.001,0,0.001l0.054,0.009c0.006-0.035-0.04-0.083-0.025-0.105c0.025-0.007,0.153-0.016,0.23,0.019l-0.067-0.146
			c0.019-0.037,0.045-0.15,0.083-0.375c0.001,0,0,0.001,0.001,0.001c0.025-0.058,0.098-0.051,0.2-0.056
			c-0.012-0.003-0.011-0.003-0.029-0.007l-0.057-0.032c0.015-0.02-0.062-0.043,0.021-0.055l0.018-0.002h-0.012
			c0.069,0-0.125-0.016-0.035-0.059c0.102-0.003-0.174-0.048-0.139-0.07l0.205,0.005c0.123-0.031-0.076-0.072-0.065-0.144
			c0.077-0.023,0.251-0.012,0.399,0.035c-0.179-0.061-0.118-0.033-0.199-0.089c0.076,0.005,0.092,0.013,0.158,0.033
			c0.095-0.023-0.064-0.034-0.055-0.062c-0.142-0.031-0.366-0.076-0.374-0.086l-0.046,0.004c-0.071-0.042-0.102-0.08-0.024-0.103
			l0.071,0.013l-0.03-0.042l0.092,0.012l-0.02-0.057l-0.026,0.003c-0.01-0.014-0.035-0.06,0.018-0.075l0.05,0.009
			c0.169-0.041-0.029-0.127-0.034-0.206l0.103,0.026c0.107-0.011-0.158-0.032-0.102-0.055l0.128,0.018
			c-0.164-0.053,0.041-0.03,0.107-0.039l-0.168-0.017l0.041-0.03c0.062-0.031,0.215,0.008,0.301,0.027l-0.127-0.046l0.148,0.017
			c-0.168-0.045,0.031-0.015-0.056-0.063c0.056,0.006,0.087,0.019,0.112,0.011l-0.199-0.087l0.087,0.048l-0.215-0.037
			c-0.157-0.06,0.031-0.044-0.024-0.078l0.061,0.027c-0.045-0.049,0.047-0.038,0.099-0.054c-0.042,0.001-0.103,0.003-0.128-0.018
			c-0.01-0.014,0.076,0.005,0.103-0.003c-0.144-0.024-0.215-0.064-0.143-0.082c0.021,0.004,0.04,0.008,0.053,0.011
			c-0.022-0.01-0.059-0.02-0.022-0.026l0.159,0.03l-0.148-0.045c0.045-0.01-0.068-0.049,0.039-0.032l0.031,0.014l0.052-0.116
			l0.128,0.016c-0.175-0.036,0.074-0.057-0.146-0.083c0.122-0.007-0.075-0.101,0.172-0.055c0.027-0.078-0.206-0.151-0.075-0.233
			c0.214-0.009,0.156-0.113,0.185-0.173c-0.075-0.132-0.146-0.219-0.201-0.35c0.304-0.047-0.082-0.195,0.093-0.26l-0.114-0.032
			c0.192-0.039-0.028-0.138,0.162-0.199c-0.05-0.022-0.065-0.033-0.068-0.037c-0.007,0.003-0.029,0.006-0.104,0.003
			c0.055-0.018-0.007-0.065,0.142-0.052l0.015,0.006c0.149,0.013-0.062-0.07,0.069-0.085l-0.161,0.003l0.031-0.039l0.029,0.013
			c-0.332-0.194,0.178-0.249-0.153-0.436c0.175,0.029-0.092-0.037,0.099-0.032c0.239-0.036-0.053-0.083-0.117-0.119
			c-0.01-0.001-0.021-0.002-0.035-0.003l0.021-0.061c0.242,0.041-0.2-0.048,0.005-0.011c0.07-0.062,0.078-0.134,0.073-0.208
			c0.039,0,0.078-0.001,0.117-0.001L67.1,26.609l0.189-0.036c0.009,0.012,0.011,0.03,0.006,0.042c0.2-0.123,0.557-0.052,0.843-0.057
			l-0.014,0.019c0.398-0.076,0.799-0.146,1.165-0.274c0.173-0.078,0.348-0.157,0.523-0.236c0.021,0.051,0.129,0.081,0.012,0.171
			l0.143-0.043c0.016,0.019-0.073,0.045-0.096,0.059c0.096,0.197,0.354,0.335,0.248,0.581c-0.086,0.053-0.011,0.085-0.104,0.137
			c0.193-0.007,0.215,0.055,0.221,0.121l-0.017,0.004l0.039,0.017c-0.012,0.005-0.028,0.012-0.038,0.016
			c0.136-0.019,0.037,0.08,0.004,0.141l-0.016,0.004c0.077,0.242,0.416,0.323,0.358,0.645c-0.149,0.227,0.191,0.177,0.107,0.41
			c-0.11,0.104,0.161,0.306,0.232,0.284l0.127-0.135c0.132,0.041,0.007,0.192,0.2,0.186l-0.035,0.021
			c-0.018,0.043,0.289-0.224,0.04,0.24l-0.014,0.013c0.007,0.002,0.033-0.022,0.007,0.02l0.06-0.099
			c0.046-0.017,0.12-0.064,0.146-0.056c-0.012,0.018-0.037,0.045-0.058,0.065l0.062,0.022l-0.069,0.096
			c0.058-0.031,0.225-0.214,0.161-0.081c0.106-0.136,0.087-0.058,0.144-0.125c-0.013,0.018-0.031,0.044-0.049,0.068
			c0.033,0.005,0.102,0.007,0.168-0.051c0,0,0.174-0.34,0.289-0.485c-0.012,0.056,0.021-0.009,0.057-0.055l-0.031,0.029
			c0.018-0.043,0.094-0.12,0.109-0.147l-0.021,0.021l0.012-0.009c-0.014,0.013-0.023,0.022-0.031,0.03
			c-0.016,0.017-0.029,0.029-0.028,0.021l0.009-0.007c-0.016,0.006-0.012-0.015-0.011-0.024l0.064-0.064
			c-0.134,0.109,0.137-0.24,0.134-0.251c0.076-0.086-0.042-0.005-0.012-0.056c0.004-0.039,0.092-0.095,0.143-0.154
			c0.033-0.048-0.079,0.069-0.088,0.069l0.084-0.094c0.017,0.001,0.055-0.038,0.08-0.061c0.001-0.021,0.117-0.138-0.029-0.034
			c0.057-0.072,0.114-0.116,0.116-0.129c-0.024,0.022-0.045,0.046-0.074,0.068c0.059-0.056-0.019,0.008-0.03,0.022
			c-0.072,0.033,0.218-0.248,0.065-0.142c-0.037,0.026-0.072,0.051-0.105,0.075l-0.009,0.08h-0.004
			c-0.021,0-0.038-0.019-0.055-0.034c-0.039,0.027-0.078,0.054-0.106,0.069l0.05-0.044l-0.058,0.028
			c0.035-0.034,0.069-0.053,0.084-0.064c-0.051,0.02-0.031-0.015-0.017-0.044c-0.002-0.003-0.006-0.009-0.007-0.011l-0.303,0.233
			c0.065-0.069,0.204-0.201,0.095-0.132l0.106-0.083c0.196-0.17-0.108,0.041-0.051-0.014l0.114-0.094l0.006,0.011
			c-0.001-0.022,0.009-0.049,0.055-0.089l-0.133,0.032l0.066-0.083l0.104-0.07c0.003,0.021,0.053,0.027,0.075,0.04l-0.072,0.043
			h0.046l0.021-0.013c0.018-0.014,0.015-0.021,0.009-0.029c0,0,0.001,0,0.001,0l0.047-0.031c-0.008-0.012-0.062,0.002-0.057-0.012
			c0.018-0.017,0.119-0.092,0.193-0.126l-0.105,0.052c-0.035-0.038-0.041-0.036,0.053-0.149l-0.051,0.034
			c-0.035,0.008-0.07,0.016,0.014-0.034c0.003-0.037,0.054-0.102,0.179-0.19l-0.127,0.063c0.004-0.009,0.188-0.118,0.012-0.028
			l-0.062,0.017c0.006-0.013-0.068,0.02-0.002-0.027h0.001l0.014-0.009l-0.011,0.005c0.047-0.046-0.112,0.059-0.051,0.001
			c0.086-0.052-0.164,0.074-0.141,0.049l0.176-0.101c0.094-0.07-0.09,0.018-0.104-0.008c0.058-0.044,0.212-0.127,0.354-0.185
			c-0.173,0.069-0.111,0.047-0.199,0.07c0.068-0.035,0.083-0.041,0.146-0.067c0.075-0.053-0.065,0.021-0.066,0.008
			c-0.132,0.058-0.341,0.151-0.35,0.154l-0.038,0.024c-0.075,0.021-0.113-0.032-0.055-0.077l0.061-0.079l0.035,0.006
			c0.112-0.081-0.073-0.021-0.102-0.044l0.098-0.038c0.091-0.052-0.149,0.063-0.107,0.03l0.118-0.052
			c-0.16,0.058,0.026-0.029,0.082-0.062l-0.153,0.071l0.026-0.029c0.044-0.038,0.191-0.094,0.274-0.127l-0.127,0.043l0.136-0.061
			c-0.163,0.061,0.022-0.019-0.069,0.005c0.052-0.023,0.083-0.033,0.104-0.047l-0.204,0.061l0.092-0.023l-0.201,0.083
			c-0.159,0.05,0.013-0.028-0.048-0.015l0.063-0.018c-0.056,0.004,0.029-0.033,0.069-0.06c-0.036,0.019-0.09,0.046-0.119,0.05
			c-0.014,0,0.07-0.032,0.09-0.046c-0.135,0.055-0.211,0.072-0.152,0.035c0.02-0.007,0.038-0.015,0.05-0.019
			c-0.022,0.006-0.058,0.019-0.027,0l0.15-0.058l-0.146,0.048c0.038-0.023-0.074,0.012,0.027-0.028l0.031-0.009l0.019-0.062
			l0.12-0.048c-0.168,0.061,0.053-0.051-0.153,0.032c0.109-0.053-0.093-0.004,0.142-0.09c0.007-0.038-0.225,0.031-0.125-0.05
			c0.193-0.088,0.115-0.1,0.128-0.132c-0.102-0.016-0.188-0.02-0.271-0.046c0.271-0.127-0.12-0.042,0.027-0.129l-0.114,0.029
			c0.17-0.081-0.059-0.042,0.105-0.129c-0.052,0.007-0.068,0.009-0.072,0.009c-0.006,0.002-0.026,0.009-0.096,0.036
			c0.047-0.025-0.021-0.022,0.121-0.067l0.016-0.002c0.143-0.044-0.075-0.005,0.045-0.054l-0.151,0.054l0.021-0.025l0.031-0.005
			c-0.362,0.033,0.11-0.147-0.219-0.122c0.17-0.04-0.092,0.012,0.091-0.042c0.226-0.083-0.059-0.017-0.124-0.014
			c-0.009,0.002-0.02,0.005-0.033,0.009l0.015-0.031c0.236-0.051-0.197,0.036,0.004-0.006c0.156-0.112-0.044-0.147,0.017-0.243
			l-0.06,0.018c0.005-0.015-0.032-0.023-0.021-0.04c0.18-0.087,0.361-0.174,0.534-0.275c0.551-0.184,0.956-0.664,1.428-1.082
			c0.131,0.092,0.25,0.19,0.236,0.372c-0.066,0.076,0.018,0.092-0.055,0.169c0.187-0.055,0.229,0.005,0.256,0.073l-0.015,0.008
			l0.042,0.007c-0.009,0.008-0.022,0.019-0.031,0.026c0.125-0.056,0.058,0.068,0.043,0.135l-0.014,0.008
			c0.139,0.211,0.501,0.213,0.498,0.537c-0.114,0.245,0.231,0.135,0.149,0.357c-0.101,0.112,0.141,0.233,0.209,0.207l0.124-0.137
			c0.123,0.021,0.008,0.167,0.173,0.138l-0.033,0.021c-0.026,0.035,0.298-0.212-0.013,0.195l-0.014,0.011
			c0.005,0.001,0.033-0.021,0.001,0.016l0.073-0.085c0.045-0.018,0.12-0.062,0.141-0.056c-0.013,0.015-0.041,0.039-0.064,0.058
			l0.052,0.015l-0.084,0.083c0.059-0.029,0.25-0.186,0.163-0.073c0.127-0.116,0.093-0.049,0.159-0.106
			c-0.016,0.015-0.038,0.037-0.06,0.058c0.029,0.004,0.093,0.006,0.169-0.04c0,0,0.233-0.286,0.363-0.417
			c-0.018,0.052,0.021-0.007,0.063-0.047l-0.035,0.024c0.021-0.04,0.107-0.106,0.125-0.132l-0.023,0.019l0.012-0.008
			c-0.015,0.011-0.025,0.02-0.034,0.026c-0.018,0.014-0.033,0.025-0.031,0.017l0.01-0.006c-0.017,0.004-0.013-0.017-0.01-0.026
			l0.071-0.056c-0.145,0.096,0.148-0.234,0.142-0.252c0.077-0.085-0.049-0.015-0.019-0.068c-0.001-0.047,0.092-0.097,0.141-0.16
			c0.029-0.054-0.08,0.069-0.09,0.065l0.08-0.1c0.02,0.006,0.057-0.035,0.082-0.059c-0.004-0.028,0.102-0.162-0.044-0.055
			c0.047-0.08,0.103-0.125,0.101-0.142c-0.022,0.024-0.04,0.05-0.068,0.073c0.054-0.061-0.02,0.007-0.029,0.022
			c-0.074,0.034,0.189-0.288,0.033-0.167l0.027-0.023c-0.075,0.058-0.143,0.112-0.203,0.159L76.52,24.5h-0.005
			c-0.024,0-0.046-0.032-0.064-0.068c-0.005,0.003-0.013,0.009-0.017,0.012l0.015-0.015c-0.003-0.005-0.006-0.009-0.009-0.014
			l-0.019,0.009c0.007-0.008,0.01-0.008,0.017-0.015c-0.015-0.033-0.023-0.062-0.029-0.079l-0.229,0.215
			c0.057-0.077,0.177-0.229,0.073-0.15l0.097-0.097c0.021-0.025,0.02-0.027,0.028-0.04c-0.004-0.007-0.008-0.013-0.011-0.021
			c-0.042,0.028-0.102,0.076-0.077,0.043l0.075-0.085c0-0.029,0.008-0.062,0.039-0.105l-0.121,0.03l0.051-0.109l0.092-0.092
			c0.012,0.025,0.072,0.031,0.102,0.052l-0.064,0.052l0.052,0.003l0.021-0.016c0.014-0.017,0.007-0.027-0.002-0.037l0.043-0.038
			c-0.014-0.017-0.07-0.003-0.069-0.021c0.015-0.021,0.099-0.115,0.169-0.157l-0.099,0.064c-0.056-0.047-0.059-0.042,0.001-0.184
			l-0.043,0.042c-0.036,0.012-0.071,0.023,0.001-0.042c-0.012-0.045,0.019-0.127,0.118-0.245l-0.112,0.085
			c0-0.012,0.156-0.158,0.001-0.036l-0.061,0.025c0.001-0.016-0.066,0.029-0.013-0.033v0h0.001l0.011-0.013l-0.009,0.007
			c0.03-0.061-0.098,0.081-0.055,0.005c0.07-0.072-0.146,0.105-0.131,0.073l0.146-0.141c0.072-0.095-0.088,0.03-0.114-0.001
			c0.043-0.061,0.171-0.177,0.299-0.265c-0.155,0.104-0.1,0.07-0.184,0.109c0.058-0.051,0.071-0.06,0.128-0.099
			c0.057-0.073-0.062,0.033-0.068,0.019c-0.114,0.087-0.295,0.228-0.306,0.23l-0.031,0.033c-0.07,0.036-0.109,0.044-0.065-0.016
			l0.057-0.045l-0.042,0.007l0.071-0.059l-0.041-0.005l-0.018,0.019c-0.014,0.002-0.053,0.005-0.023-0.035l0.04-0.032
			c0.102-0.129-0.081-0.021-0.122-0.043L76.1,23.12c0.072-0.077-0.129,0.098-0.1,0.052l0.101-0.081
			c-0.142,0.094,0.015-0.038,0.059-0.086l-0.129,0.11l0.016-0.038c0.029-0.052,0.157-0.144,0.229-0.197l-0.113,0.072l0.114-0.096
			c-0.142,0.101,0.016-0.025-0.069,0.018c0.043-0.037,0.071-0.053,0.086-0.073l-0.185,0.107l0.085-0.043l-0.171,0.134
			c-0.143,0.088,0.001-0.036-0.056-0.008l0.057-0.033c-0.056,0.015,0.016-0.043,0.046-0.084c-0.029,0.029-0.072,0.071-0.102,0.082
			c-0.014,0.002,0.059-0.051,0.072-0.071c-0.113,0.089-0.186,0.125-0.141,0.07c0.017-0.012,0.033-0.024,0.043-0.032
			c-0.021,0.012-0.051,0.033-0.027,0.007l0.129-0.098l-0.127,0.086c0.029-0.034-0.069,0.029,0.017-0.038l0.028-0.016l-0.006-0.073
			l0.102-0.08c-0.144,0.104,0.034-0.068-0.14,0.07c0.089-0.083-0.095,0.016,0.107-0.131c-0.008-0.043-0.212,0.085-0.144-0.027
			c0.159-0.142,0.077-0.138,0.076-0.175c-0.106,0.005-0.193,0.021-0.285,0.011c0.218-0.203-0.139-0.015-0.026-0.145l-0.103,0.06
			c0.137-0.129-0.075-0.031,0.053-0.165c-0.048,0.022-0.064,0.027-0.068,0.028c-0.004,0.004-0.021,0.02-0.082,0.062
			c0.037-0.039-0.03-0.019,0.094-0.102l0.014-0.006c0.125-0.083-0.076,0.013,0.023-0.069l-0.129,0.095l0.011-0.032l0.028-0.013
			c-0.284,0.103-0.078-0.08-0.151-0.096c0.062-0.103,0.108-0.187,0.115-0.217l-0.263,0.041c0.152-0.266,0.312-0.423,0.45-0.586
			c0.123-0.176,0.235-0.349,0.304-0.613l0.02,0.045c0.037-0.026-0.019-0.09,0.005-0.205l0.022,0.009l0.123-0.129
			c-0.061,0.316,0.238,0.084,0.232,0.336l0.08-0.126c0.033,0.01-0.017,0.088-0.022,0.115c0.292,0.139,0.678,0.141,0.828,0.453
			c-0.027,0.099,0.075,0.094,0.04,0.195c0.175-0.108,0.259-0.055,0.33,0.011l-0.012,0.012l0.053-0.001
			c-0.004,0.011-0.014,0.026-0.021,0.036c0.113-0.087,0.117,0.065,0.146,0.143l-0.012,0.012c0.313,0.209,0.748,0.135,0.97,0.5
			c0.034,0.301,0.364,0.102,0.464,0.366c-0.032,0.149,0.399,0.226,0.461,0.178l0.033-0.185c0.174-0.012,0.164,0.184,0.344,0.105
			l-0.022,0.033c0.002,0.047,0.171-0.324,0.168,0.223l-0.007,0.017c0.008,0,0.021-0.033,0.016,0.018l0.01-0.118
			c0.038-0.033,0.089-0.104,0.12-0.104c-0.002,0.021-0.015,0.057-0.025,0.083l0.077,0.002l-0.025,0.117
			c0.045-0.05,0.129-0.283,0.13-0.131c0.044-0.168,0.064-0.084,0.09-0.168c-0.004,0.021-0.011,0.053-0.017,0.083
			c0.038-0.004,0.115-0.022,0.161-0.098c0,0,0.013-0.391,0.051-0.575c0.024,0.062,0.019-0.015,0.032-0.072l-0.019,0.038
			C80.757,21.871,80.786,21.79,80.791,21.749z M66.441,30.927c0.001-0.023,0.002-0.012,0.004,0.008L66.441,30.927z"/>
		<polygon fill="#FFFFFF" points="80.795,21.732 80.785,21.76 80.791,21.749 		"/>
		<path fill="#FFFFFF" d="M80.284,22.72L80.284,22.72C80.259,22.778,80.27,22.757,80.284,22.72z"/>
		<polygon fill="#FFFFFF" points="80.259,20.815 80.261,20.817 80.291,20.734 		"/>
		<path fill="#FFFFFF" d="M80.692,20.98c0.006,0.007,0.015,0.005,0.026-0.011C80.707,20.943,80.7,20.956,80.692,20.98z"/>
		<path fill="#FFFFFF" d="M80.511,22.691c0.01,0.01,0.02-0.026,0.028-0.069c-0.017,0.001-0.024,0.001-0.024,0.001
			C80.514,22.64,80.512,22.676,80.511,22.691z"/>
	</g>
</g>
</svg>
