<?xml version="1.0" encoding="utf-8"?>
<!-- Generator: Adobe Illustrator 16.0.0, SVG Export Plug-In . SVG Version: 6.00 Build 0)  -->
<!DOCTYPE svg PUBLIC "-//W3C//DTD SVG 1.1//EN" "http://www.w3.org/Graphics/SVG/1.1/DTD/svg11.dtd">
<svg version="1.1" id="Layer_1" xmlns="http://www.w3.org/2000/svg" xmlns:xlink="http://www.w3.org/1999/xlink" x="0px" y="0px"
	 width="53.083px" height="76.417px" viewBox="0 0 53.083 76.417" enable-background="new 0 0 53.083 76.417" xml:space="preserve">
<g>
	<path fill="#FFFFFF" d="M33.674,73.157c-3.05-0.358-4.938-0.89-6.83-1.431c-1.886-0.569-3.804-1.14-6.787-2.226
		c-2.799-1.143-5.731-2.511-8.197-4.1c-1.363-0.483-3.109-2.224-4.415-3.177l-0.321-0.562c-0.478-0.312-0.894-0.79-1.187-1.26
		l0.062-0.009c-0.601-0.544-1.055-1.339-1.285-1.634l0.058-0.004l-0.467-0.807l0.146,0.104c-0.713-1.122-1.024-2.429-0.852-3.468
		l-0.232,0.071c0.201-0.586,0.225-1.007,0.434-1.361c0.196-0.406,0.418-0.823,0.653-1.226c0.47-0.79,0.985-1.576,1.906-2.54
		l0.021,0.062c1.643-3.011,3.668-3.905,5.573-6.899c-0.239,0.374,0.204-0.071,0.221-0.012c1.025-1.248,2.165-2.562,1.866-2.86
		c0.795-0.883,0.745-0.628,0.969-0.633c-0.144-0.121,0.496-0.936,1.11-1.626l-0.236,0.366l1.749-1.992l-0.606,0.142
		c1.027-0.964,0.556,0.033,1.406-1.015l-0.224-0.184c1.371-1.384,2.467-1.92,3.916-3.143c5.462-5.59,10.832-12.119,16.383-16.851
		l0.382-0.062c0.321,0.125,1.112-1.734,1.514-1.717l0.505-0.683c0.215-0.125,0.616-0.428,0.364-0.087
		c0.57-0.52,0.62-0.636,0.66-0.802l0.251,0.03l0.49-0.396l0.147,0.469l0.054,0.237c0.026,0.133,0.025,0.034,0.078,0.438
		c0.079,0.61,0.155,1.23,0.242,1.887c0.124,3.972,1.704,11.187,2.614,15.333c1.454,5.814,1.366,12.854,2.811,18.789
		c-0.014,0.199,0.159,0.694,0.194,0.685l0.744,5.519c0,0,0.938,6.703,1.294,10.746c0.049,0.486,0.105,0.944,0.146,1.389
		c0,0.366,0.006,0.686,0.035,0.957c0.069,0.528,0.143,0.844,0.361,0.724c0.163-0.112,0.515-0.653,0.844-1.9
		c0.113-0.616,0.236-1.395,0.369-2.354c0.062-0.998,0.129-2.116,0.204-3.385l0.079,0.133c-0.152-3.081-0.346-5.019-0.988-7.07
		c0.379-0.394-0.296-2.511-0.272-3.243l0.043,0.07c-0.597-1.809-0.292-3.859-0.87-5.588c0.047,0.062,0.167,0.083,0.235,0.49
		c-0.254-1.284-0.632-3.048-0.397-3.186c-0.57-3.085-1.166-7.419-1.892-9.331l0.091,0.128c-0.446-1.089-0.285-1.46-0.627-2.699
		l0.039-0.146c-0.467-1.189-0.641-3.58-0.916-4.558l0.15-0.091l-0.441-2.437l0.115,0.923c-0.494-0.245-0.031-1.896-0.595-3.622
		c-0.214-1.663-1.46-3.219-1.493-4.981c-0.328-0.791,0.443,0.673,0.108-0.529c0.228-0.075,0.228,0.549,0.368,0.208
		c-0.299-1.214-0.019-1.958-0.379-3.518l0.173-0.12c-0.17-0.72-0.22-1.365-0.272-2.021c-0.06-0.486-0.114-0.964-0.172-1.455
		c-0.048-0.503-0.138-0.553-0.215-0.824L44.56,6.936h-0.374c-0.228,0.051-0.458,0.129-0.729,0.345
		c-1.009,0.628-1.425,0.944-1.849,1.14c-0.221,0.112-0.449,0.258-0.777,0.544c-0.294,0.254-0.853,0.807-1.093,1.161l-0.77,0.395
		c-0.684,0.6-0.261,0.669-1.068,1.281c-0.066-0.158-1.002,0.799-0.68,0.279c-1.807,1.418-3.058,3.484-5.465,5.314
		c-0.242,0.674-1.436,1.622-1.615,2.125c-0.148-0.037-2.135,2.137-1.152,0.732l0.29-0.254l0.017-0.271
		c-1.439,0.978-2.039,2.35-3.252,3.526c0.386-0.32,0.84-0.811,0.611-0.403l-1.103,1.11l0.115-0.344l-1.689,1.627l0.358-0.105
		c-0.86,0.757-1.377,0.829-2.073,1.942c-0.297,0.528,0.931-0.603,0.136,0.307c-1.151,1.015-2.868,2.546-4.25,3.938
		c0.28,0.013-0.084,0.386-0.425,0.815l-0.179-0.088c-1.225,1.701-0.809,0.282-2.065,1.938l0.03-0.225l-0.088,0.666
		c-0.992,1.605-0.965,0.479-1.991,2.337c0.529-0.624,0.561-0.013-0.175,0.682l0.037-0.316c-0.348,0.445-0.414,0.624-0.692,0.877
		c0.152-0.307-0.071-0.298-0.597,0.328l0.199-0.56l-0.79,1.372c-0.939,0.77-2.015,2.341-2.524,2.558c0,0-1.775,1.867-1.949,2.499
		c0.207-0.507-0.76,0.545-0.655,0.108c-0.287,0.632-1.418,2.267-2.071,2.773l0.074-0.137c-1,1.102-1.709,2.171-2.363,3.277
		c-0.324,0.565-0.638,1.11-0.959,1.792c-0.374,0.761-0.464,1.548-0.687,2.342c0.2-0.124,0.106,1.567,0.371,1.135
		c0.225,1.584,0.591,2.936,1.042,3.979c0.441,1.053,0.971,1.765,1.612,1.944c0.802,1.017,0.819,1.308,1.213,1.87L4.283,63.08
		c1.701,1.738,2.265,2.146,3.617,3.29c0.776,0.444,1.085,0.267,2.325,1.201c-0.505-0.149,0.042,0.175,0.537,0.5
		c-0.327-0.188-0.458-0.2,0.133,0.308l0.42,0.15l-0.004,0.042c0.869,0.457,0.746,0.319,0.366,0.083l-0.086-0.162
		c0.771,0.678,2.447,1.393,2.44,1.655c2.634,1.323,4.692,1.817,6.991,2.549c0.21,0.2-0.374,0.167-1.043-0.049
		c0,0,0.397,0.157,0.816,0.279c0.408,0.12,0.821,0.25,0.821,0.25c-0.075,0.173-0.981-0.197-1.487-0.358
		c1.837,1.006,4.104,1.056,6.367,1.879l0.519-0.038l0.134,0.059c0.016-0.087,0.562-0.075,0.913-0.025
		c0.298,0.246-0.104,0.395,1.078,0.594c0.894,0.354,2.663,0.341,3.9,0.391c-0.657-0.112-0.438-0.179-0.147-0.208
		c0.591,0.075,0.917,0.241,1.385,0.212l0.041,0.232c-0.221-0.237,1.572-0.115,1.792-0.232c0.341,0.184-0.929,0.129-1.085,0.228
		c2.399,0.055,1.202,0.071,3.611,0.004c1.274-0.232-0.247-0.212,0.362-0.44c1.12-0.08,2.184-0.37,3.481-0.432l-0.431-0.129
		c2.083-0.528,2.87-0.72,4.639-1.168c3.572-1.942,4.318-4.271,4.291-5.166c0.069-0.964-0.208-1.036-0.542-0.532
		c-0.177,0.166-0.369,0.412-0.545,0.686c-0.209,0.267-0.499,0.507-0.701,0.766c-0.547,0.436-0.983,0.814-1.01,0.793
		c-2.096,1.252-4.132,1.834-6.33,2.317C39.639,73.057,37.156,73.381,33.674,73.157"/>
	<path fill="#FFFFFF" d="M37.71,48.983c-0.857,0.075-1.563-0.145-2.177-0.2c-0.621-0.079-1.159-0.154-1.662-0.387
		c-1.03-0.383-2.093-0.62-3.659-1.426c-0.775-0.316-1.46-0.845-2.142-1.373l-1.049-0.744c-0.321-0.266-0.558-0.595-0.84-0.882
		c-0.341-0.195-0.76-0.553-1.027-1.035c-0.262-0.479-0.521-0.974-0.864-1.315l-0.015-0.378c-0.216-0.241-0.354-0.59-0.369-0.915
		l0.057,0.003c-0.271-0.407-0.361-0.93-0.503-1.131l0.058,0.005l-0.11-0.554l0.081,0.083c-0.176-0.782-0.464-1.631-0.27-2.375
		l-0.218,0.062c0.191-0.799,0.138-1.347,0.177-1.88c0.097-0.52,0.197-1.036,0.514-1.692l0.043,0.037c0-0.969,0.533-1.567,0.9-2.179
		c0.436-0.604,1.042-1.044,1.387-1.996c-0.098,0.237,0.142-0.005,0.17,0.046c0.561-0.624,1.242-1.206,0.999-1.568
		c0.513-0.391,0.517-0.166,0.665-0.088c-0.107-0.154,0.339-0.485,0.77-0.744l-0.166,0.175c0,0,0.3-0.204,0.611-0.37
		c0.337-0.121,0.675-0.246,0.675-0.246l-0.392-0.233c0.783-0.149,0.325,0.337,0.998,0.025l-0.08-0.275
		c0.508-0.187,0.982-0.012,1.402,0.046c0.431,0.108,0.832,0.154,1.32,0.341c2.004,0.079,4.134,0.674,5.774,2.038
		c1.667,1.231,2.651,3.277,2.452,5.148l-0.211,0.167c-0.32,0.049,0.393,1.019,0.092,1.147l0.055,0.441
		c-0.089,0.104-0.215,0.333-0.227,0.111c-0.115,0.371-0.067,0.395-0.045,0.699l-0.335,0.32c-0.212,0.33-0.374,0.649-0.516,0.981
		c-0.203,0.292-0.402,0.588-0.595,0.895c-0.398,0.595-0.904,1.106-1.626,1.43c-0.909,0.229-2.188,0.542-3.521,0.296
		c-1.297-0.204-2.625-0.969-3.245-1.717c-0.985-1.044-1.053-2.954-0.149-4.147c0.871-1.327,2.023-1.672,3.262-1.792l0.298-0.025
		c-0.005,0.008,0.576,0.137,1.019,0.516c0.501,0.336,0.662,0.793,0.662,0.793c0.006-0.003,0.335,0.567,0.199,1.37
		c-0.145,0.848-0.852,1.596-1.615,1.65c-0.771,0.129-1.404-0.304-1.541,0.092c-0.033,0.166,0.021,0.627,0.705,1.131
		c0.604,0.461,2.31,1.006,3.978-0.495l-0.021,0.128c1.715-1.858,1.417-4.079,0.293-5.272c0.139-0.241-0.178-0.662-0.568-1.048
		c-0.401-0.283-0.649-0.462-1.11-0.79l0.068-0.008c-1.319-0.441-2.86-1.206-4.226-0.545c0.04-0.038,0.032-0.195,0.361-0.25
		c-1.041,0.225-2.191,1.052-2.382,0.936c-1.047,0.784-1.802,1.989-2.239,3.257c-0.42,1.272-0.255,2.528,0.051,3.214l-0.082-0.088
		c0.389,0.761,0.271,1.053,0.762,1.847l-0.002,0.125c0.54,0.741,1.633,2.026,2.275,2.321l-0.06,0.163l1.544,0.798l-0.57-0.324
		c0.204-0.15,0.442,0.066,0.827,0.324c0.403,0.188,0.952,0.511,1.591,0.438c1.225,0.173,2.273-0.854,3.297-1.033
		c0.436-0.361-0.332,0.471,0.376,0.071c0.111,0.209-0.315,0.258-0.046,0.366c0.439-0.17,0.632-0.249,1.037-0.407
		c0.332-0.146,0.752-0.246,1.075-0.67l0.147,0.108c0.437-0.557,0.921-0.94,1.295-1.38c0.385-0.416,0.809-0.774,0.836-1.273
		c0.427-1.293,1.015-0.581,1.05-2.125l0.385-0.49c0.208-0.616-0.224-0.495-0.029-1.169c0.155,0.059,0.185-0.872,0.304-0.461
		c0.243-0.807-0.079-1.634-0.227-2.487c-0.345-0.823-0.562-1.717-0.975-2.724c-0.243-0.129-0.454-0.44-0.653-0.744
		c-0.256-0.266-0.489-0.524-0.683-0.577c0.101-0.163-1.416-1.536-0.381-0.912l0.154,0.229l0.225-0.012
		c-0.264-0.624-0.761-0.887-1.231-1.164c-0.496-0.246-0.945-0.533-1.448-0.821c0.294,0.179,0.636,0.491,0.332,0.399l-0.93-0.536
		l0.275-0.029l-1.419-0.799l0.13,0.271c-0.673-0.408-0.895-0.72-1.827-0.711c-0.415,0.042,0.659,0.432-0.146,0.283
		c-0.481-0.242-1.12-0.333-1.812-0.462c-0.361-0.054-0.717-0.109-1.051-0.159c-0.383,0.021-0.737,0.038-1.054,0.055
		c0.149,0.195-0.212,0.228-0.574,0.32l-0.071-0.179c-1.355,0.487-0.609-0.292-1.948,0.308l0.076-0.163L28.63,23.5
		c-1.065,0.731-0.809-0.095-1.851,1.002c0.474-0.3,0.424,0.228-0.193,0.486l0.053-0.233c-0.305,0.22-0.376,0.337-0.605,0.436
		c0.139-0.199-0.065-0.295-0.466,0.096l0.16-0.419l-0.611,0.944c-0.364,0.2-0.78,0.533-1.088,0.874
		c-0.277,0.357-0.521,0.673-0.72,0.719c0,0-0.287,0.324-0.577,0.707c-0.296,0.384-0.595,0.82-0.539,1.078
		c0.02-0.39-0.475,0.424-0.522,0.087c-0.035,0.508-0.481,1.742-0.888,2.15l0.017-0.096c-0.388,0.911-0.525,1.763-0.668,2.558
		c-0.097,0.819-0.029,1.601-0.236,2.483c0.221-0.08,0.046,0.849,0.333,0.607c0.239,0.881,0.194,1.684,0.217,2.374
		c-0.003,0.682,0.266,1.181,0.735,1.365c0.291,0.74,0.105,0.969,0.196,1.385l-0.101-0.17c0.634,1.367,0.967,1.695,1.474,2.702
		c0.364,0.429,0.777,0.229,1.331,1.036c-0.33-0.141-0.048,0.15,0.195,0.433c-0.168-0.167-0.262-0.184-0.019,0.261l0.254,0.129
		l-0.019,0.042c0.445,0.433,0.407,0.308,0.234,0.079l0.005-0.145c0.257,0.657,1.361,1.106,1.229,1.384
		c0.765,0.516,1.389,1.015,2.093,1.273c0.712,0.253,1.384,0.482,2.072,0.761c0.102,0.204-0.266,0.157-0.685,0.008l0.993,0.432
		c-0.087,0.179-0.604-0.169-0.923-0.283c1.021,0.978,2.588,0.634,3.957,1.315l0.336-0.08l0.078,0.055
		c0.013-0.067,0.355-0.125,0.58-0.15c0.188,0.183-0.073,0.395,0.682,0.434c0.581,0.191,1.694,0.078,2.453-0.046
		c-0.413,0.016-0.282-0.096-0.11-0.176c0.367-0.045,0.594,0.104,0.865-0.003l0.058,0.22c-0.158-0.195,0.94-0.349,1.065-0.457
		c0.23,0.141-0.553,0.212-0.63,0.357c1.477-0.241,0.761-0.037,2.215-0.387c0.708-0.408-0.193-0.162,0.112-0.474
		c0.65-0.262,1.227-0.619,2.021-0.732l-0.306-0.108c1.164-0.503,1.73-1.036,2.612-1.214c0.982-0.694,1.486-1.522,1.9-2.088
		c0.399-0.582,0.637-0.993,0.756-1.289c0.234-0.607,0.021-0.77-0.338-0.632c-0.743,0.141-2.062,1.081-2.062,1.081
		c-0.638,0.508-1.352,0.69-1.911,1.04c-0.597,0.287-1.072,0.732-1.699,0.923c-0.582,0.253-1.223,0.532-1.908,0.836
		C39.52,48.688,38.682,48.808,37.71,48.983"/>
	<path fill="#FFFFFF" d="M31.015,71.776c-0.372-0.403-0.518-0.865-0.722-1.194c-0.183-0.349-0.339-0.653-0.399-1.006
		c-0.181-0.674-0.453-1.282-0.688-2.353c-0.143-0.513-0.152-1.054-0.161-1.593c-0.058-0.541-0.086-1.082,0.039-1.551
		c-0.097-0.258-0.081-0.599,0.051-0.911c0.141-0.312,0.281-0.632,0.269-0.952l0.241-0.125c0.003-0.208,0.109-0.425,0.29-0.532
		l0.038,0.034c0.05-0.312,0.296-0.542,0.321-0.708l0.031,0.042l0.223-0.274l0.014,0.095c0.277-0.424,0.578-0.903,1.034-1.073
		l-0.161-0.146c0.495-0.179,0.731-0.436,0.999-0.64c0.288-0.166,0.584-0.333,1.047-0.379l0.001,0.05
		c0.447-0.482,0.978-0.407,1.422-0.437c0.475,0.021,0.913,0.187,1.528-0.104l0.035,0.155c0.517,0.007,1.062,0.104,1.192-0.304
		c0.395,0.104,0.27,0.236,0.272,0.399c0.056-0.179,0.405-0.113,0.703-0.004l-0.168,0.016c0,0,0.216,0.066,0.429,0.142
		c0.198,0.121,0.393,0.229,0.393,0.229l0.035-0.395c0.363,0.366-0.126,0.429,0.308,0.615l0.168-0.232
		c0.515,0.478,0.51,1.081,0.69,1.68c0.711,1.01,1.281,2.237,1.289,3.581c0.085,1.272-0.532,2.566-1.566,3.106l-0.217-0.108
		c-0.214-0.237-0.227,0.712-0.456,0.524l-0.171,0.241l-0.166-0.137c-0.227,0.084-0.206,0.133-0.334,0.299l-0.298-0.117
		c-0.874,0.108-1.719,0.429-2.539,0.004c-0.405-0.408-0.976-0.861-1.366-1.539c-0.401-0.628-0.596-1.534-0.522-2.088
		c0.03-0.86,0.986-1.576,1.84-1.484c0.945,0.029,1.231,0.408,1.793,0.757l0.144,0.1c0,0,0.133,0.279,0.108,0.582
		c0.023,0.325-0.111,0.462-0.103,0.475c0,0-0.104,0.271-0.418,0.465l-0.271,0.113l-0.152,0.029l-0.084,0.017l-0.005,0.004
		c0.513,0.108,0.143,0.024,0.253,0.049l-0.012-0.004l-0.02-0.003l-0.043-0.009l-0.096-0.021l-0.361-0.079l-0.178-0.034l0.015-0.033
		l-0.079-0.008l-0.239-0.154l-0.168-0.195l-0.473-0.186c-0.146,0.032-0.403,0.24-0.499,0.855c-0.09,0.545,0.493,1.88,1.996,2.229
		l-0.082,0.062c1.908,0.183,3.124-1.069,3.218-2.324c0.253-0.013,0.357-0.4,0.396-0.816c-0.025-0.387-0.062-0.799-0.054-1.006
		l0.041,0.033c-0.429-0.936-0.562-2.262-1.641-2.72l0.336,0.071c-0.632-0.495-1.649-0.769-1.65-0.986
		c-0.968-0.245-2-0.133-2.934,0.208c-0.934,0.345-1.574,1.04-1.788,1.551l0.005-0.095c-0.204,0.619-0.479,0.636-0.674,1.289
		l-0.088,0.05c-0.113,0.67-0.407,1.842-0.256,2.333l-0.162,0.045l0.245,1.211L31.94,66c0.442,0.038-0.082,1.011,0.65,1.688
		c0.443,0.79,1.672,0.708,2.141,1.228c0.423,0.016-0.448,0.103,0.094,0.273c-0.1,0.214-0.295-0.02-0.271,0.221
		c0.53,0.196,0.76,0.686,1.518,0.723l-0.009,0.179c0.52-0.041,0.942,0.071,1.343,0.109c0.403,0.058,0.794,0.141,1.077-0.104
		c0.887-0.362,0.811,0.453,1.655-0.299l0.482,0.062c0.44-0.154,0.13-0.424,0.611-0.574c0.062,0.142,0.595-0.261,0.439,0.026
		c1.125-0.536,1.511-1.785,2.434-2.998c-0.114-0.413,0.264-1.074,0.059-1.369c0.177-0.012,0.238-1.476,0.426-0.615l-0.063,0.192
		l0.157,0.127c0.475-0.856-0.1-1.576-0.113-2.386c0.012,0.253-0.003,0.569-0.115,0.366l-0.104-0.749l0.177,0.129l-0.153-1.155
		l-0.146,0.208c-0.048-0.558,0.116-0.865-0.365-1.352c-0.246-0.2-0.02,0.586-0.305,0.083c-0.062-0.382-0.271-0.79-0.486-1.247
		c-0.202-0.471-0.495-0.902-0.839-1.261c-0.087,0.217-0.262,0.029-0.481-0.125l0.104-0.158c-0.919-0.486-0.028-0.565-1.002-1.014
		l0.147-0.054l-0.433,0.17c-0.932-0.179-0.261-0.595-1.395-0.562c0.381,0.125,0.01,0.445-0.387,0.192l0.176-0.121
		c-0.263-0.066-0.361-0.029-0.518-0.12c0.176-0.042,0.158-0.237-0.245-0.288l0.323-0.15l-0.818,0.159
		c-0.539-0.35-1.446-0.142-1.667-0.371c0,0-1.239-0.145-1.468,0.212c0.219-0.216-0.453-0.15-0.296-0.386
		c-0.295,0.257-1.162,0.599-1.584,0.495l0.062-0.042c-0.687,0.154-1.22,0.466-1.718,0.761c-0.484,0.321-0.883,0.71-1.479,0.953
		c0.173,0.133-0.436,0.412-0.124,0.532c-0.699,1.032-2.048,1.285-1.58,2.196c-0.271,0.482-0.53,0.441-0.729,0.666l0.035-0.138
		c-0.463,0.957-0.499,1.282-0.835,1.988c-0.053,0.396,0.351,0.566,0.113,1.197c-0.109-0.246-0.137,0.033-0.182,0.287
		c0.004-0.162-0.044-0.225-0.213,0.091l0.069,0.2l-0.04,0.008c-0.028,0.428,0.037,0.362,0.091,0.17l0.11-0.053
		c-0.305,0.412-0.016,1.202-0.305,1.248c-0.002,1.294,0.476,2.133,0.809,3.106c-0.107,0.15-0.277-0.058-0.394-0.341l0.2,0.707
		c-0.189,0.059-0.199-0.381-0.283-0.603c-0.188,1.002,0.854,1.647,0.985,2.711l0.223,0.129l0.005,0.062l0.386,0.225
		c-0.07,0.203-0.351,0.182-0.05,0.611c0.098,0.428,0.705,0.948,1.116,1.277c-0.176-0.225-0.034-0.221,0.092-0.17
		c0.181,0.175,0.158,0.399,0.354,0.49l-0.155,0.17c0.082-0.22,0.643,0.316,0.772,0.308c-0.012,0.228-0.38-0.167-0.52-0.125
		c0.763,0.698,0.351,0.395,1.154,1.031c0.555,0.163,0.056-0.232,0.394-0.249c0.417,0.228,0.877,0.345,1.247,0.761l-0.034-0.267
		c0.779,0.362,1.292,0.445,1.732,0.903c3.305,0.146,3.529-0.678,3.165-1.015c-0.355-0.449-1.315-0.79-1.315-0.79
		c-0.487-0.154-0.838-0.457-1.228-0.599c-0.37-0.184-0.783-0.225-1.122-0.441c-0.358-0.165-0.771-0.358-1.194-0.557
		C31.898,72.529,31.499,72.175,31.015,71.776"/>
</g>
<g>
	<path fill="#FFFFFF" d="M33.458,8.615C33.476,8.611,33.479,8.597,33.458,8.615L33.458,8.615z"/>
	<path fill="#FFFFFF" d="M21.677,17.226l-0.012,0.009c0.006,0.032,0.012,0.059,0.016,0.08L21.677,17.226z"/>
	<path fill="#FFFFFF" d="M19.483,18.458h-0.018C19.476,18.458,19.481,18.458,19.483,18.458z"/>
	<path fill="#FFFFFF" d="M25.991,13.759c0.018-0.011,0.022-0.023,0.023-0.036C26.009,13.736,26.003,13.748,25.991,13.759z"/>
	<path fill="#FFFFFF" d="M37.134,7.031c0,0-0.005,0.002-0.009,0.004c0.009,0.005,0.015,0.008,0.025,0.015L37.134,7.031z"/>
	<path fill="#FFFFFF" d="M37.102,7.088c-0.05-0.014,0.004-0.043,0.023-0.053c-0.059-0.032-0.111-0.026-0.159,0
		C36.977,7.08,37.072,7.058,37.102,7.088z"/>
	<path fill="#FFFFFF" d="M43.459,9.072l-0.028-0.003C43.44,9.072,43.45,9.073,43.459,9.072z"/>
	<path fill="#FFFFFF" d="M24.428,12.091c0.008-0.011,0.013-0.018,0.021-0.03C24.434,12.072,24.429,12.082,24.428,12.091z"/>
	<path fill="#FFFFFF" d="M42.65,8.262l-0.056,0.049C42.622,8.294,42.639,8.278,42.65,8.262z"/>
	<path fill="#FFFFFF" d="M21.249,17.314v0.034C21.249,17.339,21.249,17.328,21.249,17.314z"/>
	<path fill="#FFFFFF" d="M17.381,19.302c-0.01-0.021-0.021-0.035-0.032-0.047l-0.007,0.002L17.381,19.302z"/>
	<path fill="#FFFFFF" d="M7.133,15.98l-0.019,0.023l0.066,0C7.163,15.989,7.147,15.981,7.133,15.98z"/>
	<path fill="#FFFFFF" d="M14.186,19.848c-0.002,0.008-0.009,0.017-0.009,0.026c0.061,0.026,0.208,0.013,0.39-0.031l-0.003-0.091
		C14.563,19.751,14.189,19.862,14.186,19.848z"/>
	<path fill="#FFFFFF" d="M11.301,17.497l0.197,0.242c-0.432-0.046-0.705-0.234-0.968-0.38c-0.132-0.073-0.261-0.142-0.404-0.203
		c-0.136-0.079-0.277-0.172-0.455-0.25l0.057-0.008c-0.033-0.05-0.119,0-0.291-0.079c-0.171-0.074-0.445-0.274-0.713-0.914
		l0.013-0.013c-0.033-0.028-0.059-0.001-0.087-0.096l0.079,0.23c-0.125-0.057-0.269-0.074-0.405-0.188
		c-0.012-0.04,0.005-0.075,0.023-0.098c0,0-0.337-0.27-0.326-0.285l0.003-0.184c-0.131-0.062-0.28,0.146-0.403-0.226
		c-0.045,0.217-0.192-0.076-0.232,0.015c0.005-0.028,0.004-0.081,0.005-0.125c-0.151-0.157-0.448-0.446-0.585-0.475
		c0,0,0.254,0.889,0.27,1.201c-0.166-0.28-0.07-0.053-0.074,0.034l0.047-0.011c0.089,0.177,0.007,0.476,0.046,0.572
		c0.007-0.006,0.013,0.203,0.019,0.203H7.096c0.009,0,0.022-0.024,0.037-0.023c0.016-0.017,0.035,0.023,0.063,0.023H7.181
		c0.064,0,0.136-0.052,0.174-0.004l-0.065-0.052c0.226-0.022,0.517,0.805,0.665,0.955c0.064,0.232,0.344,0.259,0.521,0.44
		c0.311,0.257,0.086,0.209,0.208,0.392c0.178,0.196,0.018-0.124,0.105-0.069l0.181,0.279c-0.152-0.095-0.104,0.005-0.095,0.054
		c0.196,0.186,0.509,0.525,0.674,0.397c0.293,0.239,0.267,0.306,0.408,0.384c-0.036-0.054-0.12-0.128-0.104-0.161
		c0.102,0.138,0.072,0.013,0.025-0.029c0.12,0.009,0.343,0.227,0.578,0.386c0.243,0.141,0.479,0.262,0.529,0.173l-0.01,0.035
		c0.092-0.127,0.051-0.288,0.222-0.324l0.083,0.092l0.166-0.02c0.09,0.075,0.032,0.099,0.028,0.117
		c0.257,0.026,0.601,0.111,0.91,0.171l-0.272-0.433c0.231,0.118,0.684,0.352,0.74,0.228l0.15,0.15
		c0.521,0.229,0.359-0.133,0.564-0.066l0.27,0.131l-0.261,0.013c0.266,0.059,0.375,0.101,0.599,0.182l0.002-0.004
		c-0.016-0.005-0.025-0.011-0.028-0.02l0.037-0.006c0.024-0.071,0.154-0.134,0.333-0.171c0.262-0.031,0.436-0.176,0.879-0.107
		l0.065-0.167c0.003,0.009,0.319,0.003,0.32,0.003l0.032,0.115c-0.286,0.098-0.86,0.228-1.249,0.321l0.002,0.056
		c0.234-0.046,0.489-0.152,0.645-0.171c0.079,0.009,0.303,0.09,0.181,0.198l0.117-0.144c0.759-0.226,0.75-0.244,1.578-0.378
		l-0.086-0.028c0.135-0.096,0.268-0.191,0.346-0.119c0.448-0.18,0.958-0.292,1.297-0.311l-0.002-0.159
		c0.093-0.04,0.326,0.08,0.28-0.119l0.163-0.156c0.129-0.055,0.165-0.165,0.344-0.167v0.058l0.001,0.058h0.034l-0.007-0.066
		c0.307-0.094-0.06-0.133,0.288-0.239c0.148,0.029,0.02-0.234,0.183-0.295l0.251,0.079c0.329-0.062,0.271-0.267,0.658-0.5
		c0.225-0.051,0.401,0.03,0.365,0.241c0.064-0.266,0.01-0.153,0.18-0.372c0.075,0.042,0.061,0.07,0.05,0.16
		c0.243-0.053,0.082-0.32,0.231-0.413c-0.037-0.148-0.114-0.594-0.072-0.594h-0.081c0.111,0,0.258-0.123,0.478-0.181l0.033,0.156
		l0.168-0.112l0.064,0.091l0.247-0.199l-0.051,0.011c0.056-0.055,0.24-0.221,0.384-0.264l0.025,0.047
		c0.422-0.103,0.574-0.461,0.937-0.755l0.013,0.122c0.189-0.011-0.061-0.156,0.123-0.227l0.084,0.099
		c0.033-0.236,0.195-0.1,0.326-0.117l-0.145-0.104l0.196-0.1c0.226-0.097,0.245,0.083,0.271,0.175l0.051-0.204l0.115,0.101
		c-0.008-0.21,0.113-0.048,0.223-0.249c0.047,0.035,0.025,0.092,0.096,0.069l0.146-0.375l-0.107,0.199l-0.111-0.189
		c0.071-0.262,0.245-0.157,0.331-0.298l-0.045,0.116c0.167-0.193,0.234-0.128,0.376-0.175c-0.06-0.006-0.149-0.013-0.086-0.097
		c0.052-0.054,0.078,0.037,0.149,0.013c-0.075-0.125,0.021-0.295,0.192-0.339c0.011,0.018,0.021,0.035,0.021,0.052
		c0.019-0.044,0.013-0.086,0.091-0.103l0.064,0.154l0.017-0.206c0.1-0.021,0.136-0.195,0.192-0.102l-0.022,0.058l0.579-0.394
		l0.086,0.097c-0.053-0.183,0.344-0.177,0.19-0.339c0.179,0.015,0.36-0.38,0.45-0.135c0.375-0.259,0.427-0.6,0.942-0.837
		c0.285,0.053,0.676-0.318,0.975-0.509c0.501-0.486,0.822-0.789,1.358-1.251c0.511,0.009,0.817-0.654,1.285-0.76l0.042-0.167
		c0.352,0.012,0.626-0.412,1.074-0.462c0.062-0.096,0.101-0.137,0.119-0.153c-0.02,0.004-0.055,0-0.099-0.062
		c0.127-0.018,0.31-0.173,0.364-0.036l-0.02,0.027c0.054,0.14,0.283-0.22,0.457-0.163l-0.135-0.111l0.21-0.075l-0.04,0.054
		c0.349-0.388,0.691-0.475,1.018-0.562c0.328-0.093,0.64-0.172,1.013-0.435c-0.062,0.2,0.141-0.136,0.203,0.043
		c0.271,0.179,0.371-0.182,0.536-0.262c-0.002-0.009-0.002-0.021,0.005-0.036l0.312-0.027c-0.142,0.267,0.187-0.233,0.053-0.003
		c0.815-0.014,1.824-0.117,2.688,0.144l-0.021-0.073c0.21,0.088,0.505,0.109,0.634,0.257c0.124,0.145,0.42-0.031,0.483,0.009
		c0.22,0.001,0.279,0.277,0.21,0.226c0.191,0.073,0.479-0.02,0.689,0.202c-0.032,0.215,0.762,0.345,0.632,0.53l0.015-0.013
		c0.098,0.184,0.266,0.266,0.428,0.373c0.153,0.118,0.312,0.24,0.404,0.444c0,0-0.018,0.006-0.038,0.006
		c0,0,0.276,0.037,0.553,0.075c0.286,0.047,0.571,0.094,0.571,0.094l0.402-0.693c0,0-0.03-0.258-0.06-0.517
		C44.889,7.765,44.852,7.5,44.852,7.5c0.064-0.054-1.901-1.488-1.948-1.424c0,0-0.404-0.293-0.811-0.587
		c-0.198-0.16-0.433-0.263-0.606-0.349C41.312,5.056,41.194,5,41.194,5s-0.296-0.107-0.749-0.225
		c-0.464-0.047-1.089-0.205-1.702-0.173c-0.308,0.011-0.614,0.021-0.902,0.031c-0.285,0.015-0.537,0.083-0.76,0.116
		c-0.44,0.082-0.733,0.136-0.733,0.136l-0.276,0.259c-0.973-0.061-1.934,0.677-2.854,0.899l0.048,0.143
		c-0.231,0.126-0.257,0.035-0.327,0.042c-2.189,1.146-4.04,2.742-5.838,3.847c-0.22,0.043-0.677,0.461-0.866,0.474
		c-0.437,0.557-1.001,0.99-1.553,1.387l0.011-0.029l-0.235,0.215c-0.019-0.001-0.03-0.015-0.029-0.03
		c-0.205,0.321-0.733,0.56-1.114,0.779l0.011-0.028c-2.043,1.486-3.812,3.093-6.062,3.958c-1.082,0.235-2.16,0.977-3.352,0.927
		c-0.056-0.035-0.238-0.047-0.481-0.041c-0.123,0.006-0.26,0.013-0.404,0.02c-0.141-0.013-0.288-0.027-0.438-0.042
		C11.979,17.679,11.415,17.458,11.301,17.497z"/>
	<path fill="#FFFFFF" d="M8.347,15.74l0.008,0.006C8.398,15.702,8.371,15.709,8.347,15.74z"/>
	<polygon fill="#FFFFFF" points="12.404,19.676 12.385,19.673 12.45,19.769 	"/>
	<path fill="#FFFFFF" d="M8.733,18.376c0.133,0.118,0.148,0.11,0.142,0.074C8.825,18.412,8.777,18.383,8.733,18.376z"/>
	<path fill="#FFFFFF" d="M7.452,14.89c-0.046-0.065-0.057-0.019-0.06,0.044c0.059,0.062,0.097,0.102,0.097,0.102
		C7.479,15,7.462,14.927,7.452,14.89z"/>
	<path fill="#FFFFFF" d="M7.003,15.694l-0.056,0.012C6.988,15.738,7.001,15.724,7.003,15.694z"/>
</g>
<g>
	<path fill="#FFFFFF" d="M33.498,3.03C33.513,3.038,33.521,3.03,33.498,3.03L33.498,3.03z"/>
	<path fill="#FFFFFF" d="M21.585,4.634l-0.012,0.005c0.002,0.032,0.004,0.059,0.004,0.08L21.585,4.634z"/>
	<path fill="#FFFFFF" d="M19.627,5.241l-0.015-0.003C19.62,5.254,19.625,5.272,19.627,5.241z"/>
	<path fill="#FFFFFF" d="M25.88,3.044c0.018-0.001,0.025-0.01,0.029-0.021C25.901,3.032,25.893,3.04,25.88,3.044z"/>
	<path fill="#FFFFFF" d="M37.018,3.846c0,0-0.005,0-0.009,0c0.004,0.008,0.008,0.014,0.014,0.023L37.018,3.846z"/>
	<path fill="#FFFFFF" d="M36.962,3.881c-0.034-0.034,0.026-0.036,0.047-0.036c-0.031-0.053-0.076-0.07-0.13-0.068
		C36.863,3.821,36.953,3.842,36.962,3.881z"/>
	<path fill="#FFFFFF" d="M42.776,7.065l-0.027,0.002C42.759,7.068,42.768,7.067,42.776,7.065z"/>
	<path fill="#FFFFFF" d="M25.196,0.861c0.011-0.006,0.018-0.01,0.029-0.017C25.209,0.846,25.201,0.853,25.196,0.861z"/>
	<path fill="#FFFFFF" d="M41.97,6.389l-0.052,0.053C41.944,6.423,41.959,6.406,41.97,6.389z"/>
	<path fill="#FFFFFF" d="M21.577,4.719l-0.002,0.032C21.577,4.743,21.577,4.732,21.577,4.719z"/>
	<path fill="#FFFFFF" d="M17.815,5.939c-0.009-0.021-0.02-0.036-0.03-0.048L17.78,5.892L17.815,5.939z"/>
	<path fill="#FFFFFF" d="M8.095,5.12L8.088,5.148l0.056-0.032C8.123,5.112,8.107,5.114,8.095,5.12z"/>
	<path fill="#FFFFFF" d="M15.118,6.512c0,0.009-0.005,0.018-0.003,0.027c0.052,0.011,0.173-0.019,0.325-0.066l-0.015-0.089
		L15.118,6.512z"/>
	<path fill="#FFFFFF" d="M12.114,4.769l0.242,0.181c-0.396,0.057-0.688,0.013-0.959-0.047c-0.272-0.052-0.529-0.065-0.879-0.088
		l0.045-0.03c-0.073-0.085-0.261,0.369-1.18-0.461L9.39,4.306C9.352,4.296,9.341,4.33,9.283,4.259L9.43,4.428
		C9.306,4.433,9.182,4.481,9.028,4.441c-0.023-0.03-0.021-0.068-0.015-0.097L8.642,4.248L8.579,4.089
		C8.447,4.098,8.398,4.348,8.163,4.086c0.04,0.208-0.187,0.027-0.188,0.123C7.97,4.183,7.95,4.139,7.935,4.1
		C7.753,4.038,7.403,3.93,7.28,3.97c0.001,0,0.53,0.642,0.654,0.902C7.697,4.711,7.858,4.86,7.886,4.936L7.92,4.905
		c0.138,0.11,0.095,0.21,0.161,0.273l0.007-0.03L8.072,5.157c0.001-0.021,0.01-0.031,0.022-0.038
		c0.007-0.022,0.021-0.036,0.061-0.01L8.144,5.116c0.069,0.017,0.176,0.082,0.225,0.103L8.336,5.304
		c0.178-0.121,0.72,0.529,0.891,0.594c0.131,0.176,0.387,0.08,0.585,0.186c0.336,0.107,0.142,0.168,0.299,0.285
		c0.207,0.105-0.022-0.113,0.066-0.1l0.236,0.184c-0.154-0.024-0.082,0.048-0.061,0.089c0.22,0.083,0.578,0.262,0.672,0.1
		c0.307,0.122,0.303,0.194,0.439,0.218c-0.044-0.038-0.133-0.078-0.13-0.114c0.121,0.093-0.013-0.013-0.062-0.037
		c0.188-0.029,0.978,0.375,0.978,0.173v0.037c0-0.148,0.046-0.291,0.179-0.373l0.128,0.065l0.151-0.064
		c0.093,0.047,0.06,0.087,0.06,0.105c0.217-0.071,0.53-0.038,0.8-0.043l-0.317-0.37c0.223,0.069,0.649,0.211,0.674,0.078
		l0.152,0.108c0.486,0.164,0.284-0.173,0.473-0.133l0.251,0.098l-0.153,0.043c0.235,0.027,0.604,0.056,0.604,0.11V6.539
		c0-0.002-0.09-0.008-0.094-0.016l-0.004-0.011c0.008-0.079,0.091-0.16,0.243-0.199c0.221-0.043,0.347-0.195,0.735-0.146
		l0.033-0.171l0.275-0.003l0.038,0.113c-0.242,0.089-0.71,0.266-1.036,0.367l0.009,0.055c0.194-0.057,0.4-0.172,0.532-0.198
		c0.068,0.005,0.269,0.077,0.176,0.188l0.084-0.148c0.621-0.239,0.633-0.233,1.323-0.356l-0.077-0.034
		c0.113-0.083,0.402-0.165,0.475-0.088c0.393-0.132,0.287-0.223,1.287-0.187V5.551c0-0.026,0.106,0.122,0.067-0.077l0.056-0.128
		c0.113-0.036,0.103-0.137,0.254-0.113h-0.021l0,0l0.019,0.005l-0.011-0.01c0.264-0.044-0.055-0.116,0.252-0.157
		c0.127,0.056,0.027-0.206,0.174-0.233l0.212,0.13c0.287,0.004,0.249-0.2,0.599-0.342c0.195-0.001,0.339,0.127,0.287,0.314
		c0.082-0.234,0.023-0.14,0.191-0.305c0.06,0.059,0.044,0.083,0.025,0.164c0.211,0.011,0.084-0.109,0.221-0.159
		c-0.014-0.149-0.052-0.383-0.011-0.407L21.493,4.21c0.116-0.127,0.262-0.219,0.455-0.214l0.02,0.07l0.165-0.101l0.044,0.083
		l0.244-0.122l-0.043-0.01c0.056-0.032,0.24-0.141,0.37-0.13l0.013,0.05c0.369,0.048,0.563-0.236,0.934-0.375l-0.018,0.116
		c0.157,0.059-0.014-0.166,0.153-0.166l0.045,0.121c0.086-0.202,0.186-0.014,0.296,0.022l-0.092-0.15l0.187-0.013
		c0.208,0.001,0.176,0.173,0.172,0.266l0.095-0.164l0.065,0.137c0.05-0.193,0.103,0.001,0.245-0.134
		c0.028,0.051-0.006,0.093,0.057,0.101l0.223-0.278l-0.143,0.135l-0.035-0.216c0.134-0.208,0.242-0.043,0.353-0.123l-0.07,0.079
		c0.191-0.09,0.224-0.001,0.35,0.024c-0.045-0.033-0.113-0.081-0.037-0.125c0.058-0.023,0.05,0.068,0.112,0.082
		c-0.019-0.145,0.113-0.248,0.26-0.206c0.003,0.021,0.004,0.041-0.002,0.055c0.029-0.029,0.039-0.069,0.105-0.047l-0.002,0.165
		l0.082-0.172c0.084,0.029,0.173-0.107,0.184,0.002l-0.037,0.04l0.578-0.071l0.029,0.126c0.027-0.186,0.318,0.008,0.268-0.208
		c0.124,0.099,0.412-0.167,0.381,0.093c0.375-0.033,0.559-0.26,1.03-0.172c0.179,0.203,0.618,0.108,0.913,0.113
		c0.57-0.149,0.945-0.167,1.543-0.198c0.332,0.32,0.896-0.04,1.265,0.152l0.12-0.11c0.225,0.233,0.644,0.084,0.965,0.333
		c0.096-0.034,0.145-0.041,0.165-0.041c-0.015-0.009-0.035-0.035-0.029-0.11c0.091,0.071,0.309,0.047,0.264,0.19l-0.028,0.01
		c-0.045,0.144,0.319-0.009,0.403,0.139l-0.026-0.167l0.186,0.063l-0.059,0.02c0.459-0.107,0.748,0.024,1.021,0.165
		c0.276,0.134,0.539,0.268,0.972,0.236c-0.158,0.133,0.18-0.038,0.127,0.146c0.11,0.288,0.37,0.065,0.552,0.056
		c0.003-0.009,0.009-0.019,0.023-0.029c0.003-0.005,0.266,0.116,0.263,0.124c-0.246,0.152,0.264-0.098,0.043,0.026
		c0.606,0.499,1.604,0.685,2.323,1.196L39.528,5.02c0.184,0.125,0.459,0.203,0.553,0.376c0.093,0.171,0.396,0.055,0.459,0.081
		c0.216,0.005,0.247,0.272,0.185,0.222c0.185,0.077,0.466-0.011,0.651,0.21c-0.029,0.208,0.718,0.291,0.594,0.48l0.014-0.014
		c0.184,0.345,0.616,0.328,0.829,0.676c0,0-0.017,0.009-0.036,0.013l1.07-0.061l0.314-0.727l-0.18-0.925c0,0-0.414-0.275-0.829-0.55
		c-0.206-0.136-0.413-0.272-0.567-0.375c-0.158-0.098-0.272-0.149-0.272-0.149l-1.229-1.027c-0.001,0-0.828-0.509-1.738-0.859
		C38.899,2.2,38.454,2.008,38.12,1.864c-0.329-0.156-0.569-0.206-0.569-0.206l-0.322,0.077c-0.633-0.5-1.644-0.542-2.396-0.895
		l-0.051,0.143c-0.228-0.036-0.192-0.124-0.243-0.16c-0.523-0.086-1.059-0.175-1.6-0.265c-0.533-0.082-1.08-0.054-1.609-0.089
		c-0.531-0.009-1.054-0.079-1.566-0.061c-0.512,0.021-1.012,0.026-1.5,0.007c-0.195-0.087-0.76,0.004-0.919-0.09
		c-0.601,0.285-1.247,0.415-1.869,0.512l0.02-0.021L25.21,0.9c-0.016-0.009-0.021-0.027-0.014-0.04
		c-0.304,0.181-0.84,0.173-1.24,0.237l0.019-0.022c-2.306,0.581-4.2,1.734-6.306,2.394c-1.029,0.16-1.993,0.9-3.098,0.978
		c-0.113-0.07-0.684,0.09-1.243,0.158C12.768,4.713,12.208,4.727,12.114,4.769z"/>
	<path fill="#FFFFFF" d="M9.014,4.345l0.008,0.002C9.043,4.288,9.022,4.306,9.014,4.345z"/>
	<polygon fill="#FFFFFF" points="13.588,6.607 13.571,6.608 13.646,6.689 	"/>
	<path fill="#FFFFFF" d="M10.215,6.531c0.145,0.053,0.154,0.04,0.138,0.01C10.3,6.526,10.252,6.52,10.215,6.531z"/>
	<path fill="#FFFFFF" d="M7.969,4.033C7.906,3.999,7.915,4.044,7.935,4.1c0.071,0.025,0.116,0.041,0.116,0.041
		C8.021,4.111,7.999,4.064,7.969,4.033z"/>
	<path fill="#FFFFFF" d="M7.886,4.936L7.844,4.973C7.889,4.98,7.895,4.962,7.886,4.936z"/>
</g>
</svg>
