<?xml version="1.0" encoding="utf-8"?>
<!-- Generator: Adobe Illustrator 16.0.0, SVG Export Plug-In . SVG Version: 6.00 Build 0)  -->
<!DOCTYPE svg PUBLIC "-//W3C//DTD SVG 1.1//EN" "http://www.w3.org/Graphics/SVG/1.1/DTD/svg11.dtd">
<svg version="1.1" id="Layer_1" xmlns="http://www.w3.org/2000/svg" xmlns:xlink="http://www.w3.org/1999/xlink" x="0px" y="0px"
	 width="61px" height="85.958px" viewBox="0 0 61 85.958" enable-background="new 0 0 61 85.958" xml:space="preserve">
<g>
	<g>
		<path fill="#FFFFFF" d="M1.083,85.12C1.226,85.125,1.307,85.115,1.083,85.12L1.083,85.12z"/>
		<path fill="#FFFFFF" d="M25.711,42.141c0.025,0,0.038,0,0.062,0c0.046-0.03,0.089-0.056,0.13-0.076L25.711,42.141z"/>
		<path fill="#FFFFFF" d="M36.041,42.328c0.024,0.003,0.04,0.005,0.063,0.008C36.099,42.318,36.111,42.3,36.041,42.328z"/>
		<path fill="#FFFFFF" d="M1.054,42.744c-0.001,0.153,0.006,0.244,0.016,0.312C1.063,42.953,1.06,42.858,1.054,42.744z"/>
		<path fill="#FFFFFF" d="M21.076,84.96c0,0-0.026,0.001-0.046,0.002c0.037,0.006,0.068,0.011,0.111,0.018L21.076,84.96z"/>
		<path fill="#FFFFFF" d="M20.868,85.011c-0.229-0.022,0.062-0.042,0.162-0.048c-0.251-0.041-0.503-0.044-0.758-0.025
			C20.274,84.983,20.756,84.977,20.868,85.011z"/>
		<path fill="#FFFFFF" d="M55.417,84.831l-0.104,0.019C55.356,84.845,55.388,84.838,55.417,84.831z"/>
		<path fill="#FFFFFF" d="M3.446,44.694L3.43,44.706C3.441,44.707,3.444,44.702,3.446,44.694z"/>
		<path fill="#FFFFFF" d="M49.997,84.785l-0.06,0.073C49.989,84.828,50.002,84.805,49.997,84.785z"/>
		<path fill="#FFFFFF" d="M25.903,42.065l0.074-0.029C25.952,42.043,25.929,42.053,25.903,42.065z"/>
		<path fill="#FFFFFF" d="M45.586,42.376c0.003,0.022,0.025,0.041,0.051,0.056c0.012,0,0.021,0,0.026,0L45.586,42.376z"/>
		<path fill="#FFFFFF" d="M59.332,77.744c0.009-0.003,0.019-0.012,0.028-0.025l-0.052-0.192
			C59.313,77.627,59.321,77.698,59.332,77.744z"/>
		<path fill="#FFFFFF" d="M59.054,42.694c0.021-0.009,0.073-0.017,0.081-0.025c-0.167-0.013-0.482-0.02-0.905-0.024
			c-0.297-0.001-0.663-0.002-1.076-0.003l-0.046,0.09L59.054,42.694z"/>
		<path fill="#FFFFFF" d="M58.079,57.043l0.182-1.396c0.083,4.479-0.099,6.57,0.048,10.404l-0.04-0.151
			c-0.041,0.559,0.366,1.1-0.132,7.1h-0.019c0.004,0,0.04,0.152-0.009,0.579l0.111-1.097c0.046,0.639,0.133,1.182,0.145,2.033
			c-0.02,0.181-0.058,0.235-0.086,0.253l0.03,2.084l-0.117,0.638c0.063,0.638,0.311,0.347,0.173,2.054
			c0.172-0.644,0.103,0.847,0.19,0.636c-0.02,0.104-0.053,0.282-0.082,0.439c0.02,1.015,0.068,2.927,0.156,3.4
			c0,0,0.361-3.973,0.545-5.041c-0.047,1.429,0.021,0.377,0.078,0.095l-0.043-0.095c0.043-0.856,0.15-0.856,0.181-1.285
			c-0.009,0-0.019,0.013-0.03,0.025l0.015,0.055c-0.019,0.041-0.032,0.017-0.043-0.029c-0.023,0.01-0.041-0.029-0.035-0.262
			l0.012,0.045c-0.016-0.358,0.001-0.976,0.009-1.245l0.091-0.005c-0.173-0.635,0.263-4.267,0.269-5.119
			c0.114-0.855-0.028-1.918,0.029-2.987c0.028-1.704,0.132-0.852,0.209-1.707c0.058-1.068-0.105,0.216-0.111-0.212l0.126-1.28
			c0.011,0.744,0.065,0.34,0.101,0.204c0.016-1.106,0.182-2.851,0.001-3.191c0.087-1.493,0.159-1.496,0.168-2.136
			c-0.033,0.215-0.063,0.64-0.1,0.644c0.079-0.598-0.02-0.049-0.037,0.196C59.983,59.775,60.392,56,60.193,56h0.036
			c-0.148-1-0.291-0.108-0.373-0.745l0.066-0.543l-0.063-0.7c0.048-0.429,0.087-0.248,0.104-0.248
			c-0.067-1.042,0.014-2.511,0.033-3.774l-0.402,1.33c0.094-1.065,0.282-2.991,0.152-3.203l0.135-0.642
			c0.259-2.136-0.111-1.492-0.034-2.345c0,0,0.037-0.242,0.074-0.645c0.036-0.384,0.073-0.769,0.073-0.769l-0.002,1.407
			c0.06-1.011,0.096-1.632,0.141-2.382c-0.28-0.022-0.602-0.048-0.982-0.078l-0.017,0.004c0.088,0.006,0.143,0.013,0.149,0.021
			l-0.23,0.004c-0.118,0.037-0.389,0.067-0.758,0.089c-0.167,0.007-0.342,0.016-0.531,0.024c-0.163,0.002-0.336,0.004-0.523,0.006
			c-1.068-0.021-1.903,0.088-3.609-0.068l-0.472,0.151l-1.327-0.09v-0.12c1-0.011,3.664-0.031,5.273-0.044l0.053-0.055
			c-0.956,0-2.032,0.053-2.664,0.041c-0.308-0.024-1.09-0.148-0.518-0.229l-0.588,0.117c-3.191,0.014-3.211,0.02-6.541-0.116
			l0.29,0.06c-0.66,0.036-1.319,0.07-1.503-0.028c-2-0.02-4.07-0.095-5.369-0.247l-0.283,0.141
			c-0.423-0.008-1.056-0.221-1.262-0.023l-0.902-0.114C37.243,42.177,36.889,42,36.231,42l0,0h-0.003
			c-0.04,0-0.081,0.166-0.124,0.16c0,0.004,0.004,0.096,0.007,0.1c-1.306-0.062,0.013,0.171-1.482,0.09
			c-0.48-0.101-0.531,0.201-1.26,0.169l-0.731-0.192c-1.321-0.116-1.547,0.092-3.461,0.093c-0.918-0.072-1.362-0.243-0.754-0.396
			c-0.837,0.186-0.381,0.122-1.49,0.211c-0.171-0.077-0.053-0.092,0.192-0.161c-0.985-0.09-0.608,0.069-1.352,0.065
			c-0.216,0.144-0.465,0.374-0.706,0.382l0.287,0.045c-0.786,0.077-1.646,0.113-2.562,0.041l0.034-0.072l-0.974,0.037l-0.062-0.093
			l-1.39,0.029l0.19,0.025c-0.326,0.012-1.398,0.044-2.012-0.004l0.022-0.051c-1.729-0.161-3.155,0.05-5.181,0.067l0.266-0.105
			c-0.689-0.104-0.189,0.162-1.012,0.109l-0.041-0.129c-0.724,0.169-0.936-0.036-1.434-0.1l0.232,0.169l-0.939-0.036
			c-1.034-0.056-0.635-0.213-0.483-0.302l-0.704,0.133L9.17,42.136c-0.515,0.173-0.515-0.028-1.417,0.065
			c-0.074-0.057,0.154-0.089-0.152-0.113l-1.488,0.21l0.897-0.093L6.9,42.423c-0.935,0.166-1.266-0.023-1.933,0.037l0.459-0.064
			c-1.089,0.053-1.146-0.04-1.762-0.088c0.191,0.041,0.482,0.101,0.041,0.129c-0.08,0.003-0.132,0-0.168-0.007
			c-0.057-0.007-0.099-0.018-0.134-0.03c-0.073-0.023-0.146-0.052-0.421-0.063c-0.093,0.116-0.903,0.188-1.836,0.178
			c-0.003,0.233-0.011,0.47-0.024,0.701c-0.021-0.029-0.041-0.069-0.054-0.158c0.023,0.329,0.061,0.5,0.025,1.018l-0.161-0.39
			l0.153,1.102c-0.044,0.497,0.073,1.019-0.035,0.986l-0.033-0.229l-0.039,3.059l-0.129,0.043c0.178,0.302-0.067,1.666,0.154,1.565
			c-0.121,0.577,0.086,2.271-0.164,1.932c-0.02,2.009,0.221,3.095,0.1,5.538c-0.213,0.87-0.145,3.254-0.166,4.821
			c0.088,3.065,0.146,5.07,0.236,8.178c-0.297,1.884,0.102,4.699-0.065,6.726l0.118,0.555c-0.094,0.674-0.084,1.525-0.072,2.444
			c0.001,0.46,0.002,0.935,0.004,1.416c-0.023,0.626-0.046,1.256-0.073,1.986c0.042,0.768,0.062,1.152,0.071,1.315
			c0.052-0.001,0.072-0.001,0.09-0.001c-0.022-0.001-0.05-0.003-0.084-0.004c0.01-0.148,0.036-0.338,0.098-0.448
			c-0.004,0.119-0.009,0.237-0.014,0.363c0.951,0.026,2.41-0.01,2.287,0.122l-0.247,0.016c-0.044,0.037,0.127,0.051,0.414,0.054
			c0.159,0.002,0.386-0.007,0.633-0.017c0.495-0.02,1.075-0.042,1.376,0.022l-0.33-0.16l1.022,0.027l-0.274,0.031
			c4.442-0.355,6.449,0.152,10.62-0.172c-0.553,0.175,0.822-0.091,0.877,0.099c1.052,0.24,1.948-0.052,2.812-0.116
			c0-0.009,0.011-0.02,0.06-0.035l1.508,0.022c-0.9,0.241,1.086-0.2,0.259,0.005c3.932,0.18,9.062-0.003,13.612,0.08l-0.2-0.062
			c1.154,0.012,2.59-0.063,3.466,0.036s1.915-0.157,2.255-0.167c0.96-0.107,1.833,0.105,1.422,0.094
			c1.025-0.029,1.991-0.25,3.415-0.155c0.486,0.205,3.886-0.201,3.929,0.03l0.015-0.02c1.824,0.162,3.545-0.114,5.51,0.033
			c0,0-0.038,0.017-0.104,0.032l3.998-0.699l-1.139-0.77l-3.465-0.625l-9.392,0.135l-7.495-0.244l-18.24,0.083l-1.303,0.174
			c-3.585-0.304-8.182,0.045-12.043-0.171l-0.08,0.149c-1.088,0.009-1.014-0.084-1.283-0.11L3.537,82.76l-0.19,0.008
			c-0.033-4.182-0.067-8.397-0.1-12.498c-0.022-4.514-0.017-8.908,0.068-13.032c0.1-0.878,0.041-3.551,0.146-4.24
			c-0.092-1.479-0.137-3.003-0.157-4.527C3.3,47.706,3.295,46.945,3.29,46.189c0.003-0.486,0.006-0.969,0.009-1.446l0.017,0.028
			c-0.004-0.034-0.008-0.068-0.008-0.098l0.117-0.021c0.016,0.012,0.022,0.03,0.021,0.041c0.027-0.016,0.037-0.029,0.105-0.038
			c0.227-0.006,0.458-0.011,0.697-0.017c0.484-0.006,1.002,0,1.531,0.011c1.047,0.032,2.163,0.067,3.123,0.096l-0.112,0.016
			c11.247,0.027,21.688-0.251,32.843-0.043c2.593,0.122,5.397,0.099,8.298,0.07c1.452-0.009,2.926-0.019,4.407-0.029
			c0.741,0.005,1.483,0.011,2.23,0.016l1.117,0.021l0.279,0.007c0.026,0.002,0.018,0.005,0.027,0.008
			c0.01,0.005,0.018,0.011,0.023,0.018c-0.002,0.007-0.003,0.019-0.006,0.036c-0.012,0.02-0.021,0.03-0.026,0.033
			c-0.003,0.492-0.007,1.058-0.011,1.671c0.004,1.323,0.008,2.846,0.013,4.318C58.007,53.832,58.047,56.562,58.079,57.043z"/>
		<path fill="#FFFFFF" d="M57.833,74.761v-0.046C57.833,74.716,57.833,74.785,57.833,74.761z"/>
		<polygon fill="#FFFFFF" points="59.999,49.897 59.997,49.976 60.086,49.68 		"/>
		<path fill="#FFFFFF" d="M60.051,65.823c0.021-0.716,0.005-0.749-0.021-0.648C60.026,65.434,60.031,65.66,60.051,65.823z"/>
		<path fill="#FFFFFF" d="M58.399,80.606c-0.006,0.376,0.032,0.233,0.074,0.012c-0.007-0.384-0.012-0.65-0.012-0.65
			C58.442,80.163,58.419,80.407,58.399,80.606z"/>
		<path fill="#FFFFFF" d="M59.253,79.073l0.051,0.118C59.292,78.969,59.273,78.978,59.253,79.073z"/>
	</g>
	<g>
		<path fill="#FFFFFF" d="M12.03,42.443C11.938,42.438,11.892,42.447,12.03,42.443L12.03,42.443z"/>
		<path fill="#FFFFFF" d="M45.552,30.931c0,0.029,0,0.042,0.001,0.07c0.03,0.051,0.056,0.098,0.075,0.144L45.552,30.931z"/>
		<path fill="#FFFFFF" d="M45.364,42.167l-0.008,0.017C45.374,42.178,45.393,42.177,45.364,42.167z"/>
		<path fill="#FFFFFF" d="M30.979,11.694c-0.107,0.005-0.165,0.016-0.207,0.029C30.832,11.712,30.895,11.702,30.979,11.694z"/>
		<path fill="#FFFFFF" d="M7.36,28.145c0,0,0.002,0.029,0.003,0.05c0.006-0.041,0.011-0.076,0.019-0.124L7.36,28.145z"/>
		<path fill="#FFFFFF" d="M7.412,28.375c-0.022,0.253-0.043-0.07-0.049-0.18c-0.041,0.279-0.044,0.559-0.025,0.841
			C7.384,29.035,7.378,28.501,7.412,28.375z"/>
		<path fill="#FFFFFF" d="M26.937,3.083l-0.109,0.029C26.872,3.103,26.906,3.093,26.937,3.083z"/>
		<path fill="#FFFFFF" d="M32.038,14.016c-0.054-0.002-0.108-0.003-0.16-0.005C31.96,14.02,32.007,14.019,32.038,14.016z"/>
		<path fill="#FFFFFF" d="M21.134,4.013L21.09,4.1C21.137,4.056,21.144,4.03,21.134,4.013z"/>
		<path fill="#FFFFFF" d="M45.628,31.145l0.029,0.083C45.65,31.199,45.64,31.173,45.628,31.145z"/>
		<path fill="#FFFFFF" d="M53.675,42.458c0.005,0.022,0.029,0.041,0.057,0.056c0.014,0,0.023,0,0.03,0L53.675,42.458z"/>
		<path fill="#FFFFFF" d="M38.248,2.499c0.003,0.009,0.011,0.021,0.023,0.033l0.22-0.019C38.379,2.5,38.3,2.496,38.248,2.499z"/>
		<path fill="#FFFFFF" d="M55.362,31.467c-0.009-0.013-0.017-0.047-0.026-0.05c-0.024,0.249-0.03,0.904-0.026,1.742l0.09,0.051
			L55.362,31.467z"/>
		<path fill="#FFFFFF" d="M56.782,15.276c0,0,0.071,0.414,0.122,0.827c0.042,0.414,0.084,0.827,0.084,0.827
			c-0.556-2.587-1.354-4.397-2.289-5.997c-0.959-1.584-2.092-2.993-3.881-4.386l0.218,0.13c-0.243-0.223-0.488-0.337-1.385-0.937
			c-0.912-0.565-2.447-1.715-5.762-3.124l0.006-0.017c-0.237-0.076-0.246-0.042-0.705-0.237c0,0,0.286,0.121,0.572,0.242
			c0.284,0.127,0.567,0.254,0.567,0.254c-0.715-0.203-1.354-0.322-2.302-0.562c-0.195-0.073-0.255-0.127-0.268-0.16
			c0,0-0.585-0.13-1.171-0.261c-0.589-0.11-1.177-0.219-1.177-0.219L38.71,1.417c-0.734-0.042-0.436,0.223-2.348-0.133
			c0.709,0.243-0.967,0.008-0.736,0.122c-0.096-0.031-0.313-0.078-0.489-0.122c-1.148-0.081-3.31-0.084-3.84,0.015
			c0,0,1.118,0.086,2.377,0.258c1.261,0.166,2.652,0.436,3.232,0.602c-1.581-0.218-0.419-0.027-0.114,0.066l0.11-0.03
			c0.943,0.159,0.927,0.272,1.392,0.372c0.002-0.009-0.011-0.021-0.022-0.034L38.21,2.536c-0.042-0.026-0.014-0.035,0.038-0.038
			c-0.008-0.025,0.038-0.036,0.294,0.011l-0.051,0.003c0.396,0.046,1.07,0.185,1.361,0.254l-0.013,0.09
			c0.362-0.017,1.515,0.291,2.651,0.722c1.141,0.423,2.247,0.978,2.673,1.168c0.815,0.469,1.924,0.857,2.888,1.53
			c1.534,1.052,0.699,0.627,1.398,1.233c0.863,0.766-0.114-0.23,0.25,0.056c0,0,0.245,0.246,0.49,0.492
			c0.234,0.255,0.469,0.51,0.469,0.51c-0.596-0.534-0.312-0.198-0.229-0.076c0.893,0.797,1.904,2.356,2.236,2.562
			c0.809,1.374,0.696,1.436,1.01,2.035c-0.07-0.218-0.257-0.63-0.229-0.65c0.23,0.596,0.161,0.258,0.054,0.02
			c0.275,0.403,0.766,1.578,1.056,2.704c0.307,1.122,0.441,2.175,0.557,2.257l-0.035,0.007c0.183,0.197,0.267-0.191,0.457,0.475
			l-0.002,0.464l0.135,0.68c-0.013,0.466-0.07,0.241-0.088,0.243c0.073,0.554,0.091,1.236,0.027,1.914
			c-0.039,0.804-0.046,1.499-0.062,2.218l0.403-1.484c-0.093,1.182-0.282,3.314-0.152,3.55l-0.136,0.71
			c-0.258,2.37,0.112,1.655,0.035,2.601l-0.147,1.19l0.003-1.185c-0.075,1.185-0.123,1.658-0.22,2.603l0.004,0.01
			c0.007-0.065,0.014-0.107,0.022-0.116l0.004,0.166c0.073,0.144,0.123,0.762,0.118,1.596c-0.021,1.185,0.088,2.112-0.067,4.004
			l0.15,0.492L55.474,39h-0.12c-0.011-1-0.03-4.034-0.044-5.821l-0.055-0.042c0,1.061,0.053,2.263,0.041,2.964
			c-0.024,0.342-0.148,1.213-0.23,0.579l0.118,0.655c0.001,1.559,0.001,2.433,0.002,3.26c-0.008,0.41-0.016,0.808-0.024,1.277
			c-0.006,0.308-0.013,0.294-0.021,0.396c-0.009,0.077-0.02,0.161-0.03,0.256c-0.068-0.01-0.185-0.025-0.317-0.043l0.113,0.06
			c0.002,0.036-1.037,0.07-1.174-0.028c-2.219-0.02-4.518-0.095-5.958-0.247l-0.315,0.141c-0.469-0.008-1.172-0.221-1.399-0.023
			c0,0-0.062,0.004-0.157,0.01c-0.074,0.006-0.273,0.014-0.256,0.021c-0.061,0.016-0.121,0.031-0.121,0.031
			c-0.07-0.005-0.141,0.011-0.217,0.02c-0.009-0.058-0.01-0.143,0.031-0.247l0.001-0.001l0.017-0.036l-0.012,0.005
			c0.008-0.061,0.012-0.033,0.013-0.134c-0.002-0.101-0.004-0.164-0.005-0.216c-0.008-0.093-0.023-0.098-0.037-0.109
			c-0.029-0.022-0.057-0.072-0.016-0.901c0.1-0.533-0.18-0.589-0.147-1.398l0.202-0.812c0.117-1.466-0.087-1.717-0.088-3.84
			c0.072-1.02,0.246-1.513,0.399-0.837c-0.187-0.929-0.121-0.423-0.21-1.654c0.076-0.19,0.092-0.059,0.161,0.214
			c0.089-1.094-0.069-0.675-0.064-1.5c-0.145-0.24-0.374-0.516-0.383-0.784l-0.045,0.319c-0.077-0.874-0.112-1.828-0.04-2.843
			l0.072,0.038l-0.037-1.081l0.093-0.068l-0.028-1.543l-0.025,0.211c-0.018-0.38-0.032-1.513-0.008-2.271l0.053,0.025
			c0.043-2.081-0.602-3.891-2.072-5.87l0.277,0.203c-0.427-0.746-0.251-0.106-0.859-0.902l0.062-0.124
			c-0.731-0.528-0.787-0.832-1.223-1.274l0.113,0.311c0,0-0.217-0.184-0.434-0.368c-0.225-0.173-0.449-0.346-0.449-0.346
			c-1.012-0.727-0.537-0.592-0.326-0.575c0,0-0.202-0.083-0.403-0.165c-0.202-0.076-0.405-0.151-0.405-0.151l-0.076-0.211
			c-0.634-0.125-0.541-0.325-1.578-0.656c-0.062-0.085,0.205-0.015-0.129-0.172c0,0-0.436-0.114-0.871-0.203
			c-0.436-0.092-0.871-0.159-0.871-0.159c0,0,0.26,0.054,0.52,0.107c0.26,0.061,0.52,0.122,0.52,0.122l-0.191,0.165
			c-1.09-0.182-1.412-0.447-2.187-0.563l0.536,0.058c-1.249-0.234-1.299-0.316-2.002-0.48c0.215,0.073,0.539,0.186,0.027,0.135
			c-0.374-0.042-0.19-0.106-0.543-0.176c-0.104,0.106-0.615,0.103-1.365,0.062c-0.181,0.003-0.37,0.007-0.58,0.011
			c0.009-0.021,0.024-0.042,0.078-0.06c-0.211,0.041-0.316,0.086-0.686,0.093l0.198-0.184l-0.685,0.238
			c-0.474,0.018-1.126,0.258-1.085,0.142l0.257-0.08c0,0-0.88,0.142-1.748,0.363c-0.87,0.213-1.723,0.517-1.723,0.517l-0.092-0.104
			c-0.279,0.261-1.863,0.714-1.654,0.877c-0.336,0.098-0.929,0.443-1.385,0.75c-0.459,0.302-0.793,0.55-0.701,0.324
			c-1.003,0.731-1.658,1.475-2.251,2.325c-0.58,0.859-1.129,1.835-1.616,3.28c-0.254,0.489-0.518,1.492-0.576,2.603
			c-0.032,0.576-0.022,1.092-0.024,1.596c-0.002,0.507-0.004,0.998-0.005,1.434c0.088,3.401,0.146,5.622,0.236,9.075
			c-0.148,1.045-0.311,2.349-0.268,3.672c0.018,0.665-0.133,1.336-0.133,1.97c0,0.323,0,0.634,0,0.94l0.174,0.45l0.088,0.103
			l0.041,0.023l0.009,0.042c0-0.014,0.13,0.187,0.13,0.201c-0.02,0.031-0.029,0.061-0.041,0.093
			c-0.116-0.024-0.205-0.032-0.303-0.033c-0.368,0.003-0.756,0.007-1.156,0.01c-0.926,0.009-1.902,0.01-2.843-0.072
			c-0.514,0.051-0.782,0.067-0.901,0.072c0.094,0.005,0.239,0.028,0.285,0.103c-0.6-0.052-1.812,0.013-1.725-0.136l0.152-0.016
			c0.088-0.149-1.818,0.07-2.487-0.06l0.367,0.16c0,0-0.284-0.007-0.567-0.014c-0.068-0.001-0.137-0.003-0.2-0.005
			c-0.017-0.001-0.032-0.003-0.046-0.004c-0.027-0.002-0.045-0.004-0.045-0.004l0.078-0.031c-0.113,0.035-0.254,0.062-0.397,0.082
			c-0.022-0.122-0.036-0.267-0.044-0.41c-0.002-0.454-0.004-0.882-0.006-1.299c0.016-0.833,0.031-1.621,0.046-2.413
			c0.036-1.58,0.06-3.179-0.087-5.266c0.175,0.614-0.092-0.913,0.1-0.973c0.239-1.167-0.053-2.163-0.116-3.12
			c-0.009,0-0.021-0.011-0.035-0.066l0.022-1.673c0.242,1-0.199-1.205,0.006-0.287c0.078-2.162,0.117-4.738,0.049-7.252
			c0.088-2.447,0.747-4.98,1.92-7.043L9.147,12.87c0.555-1.07,1.381-2.343,2.072-2.958c0.666-0.622,1.298-1.537,1.577-1.774
			c0.713-0.743,1.618-1.076,1.248-0.84c0.869-0.636,1.65-1.368,3.087-1.92c0.278-0.018,1.211-0.476,2.135-0.833
			c0.92-0.365,1.816-0.637,1.867-0.532l0.011-0.023c1.941-0.334,3.747-0.905,5.902-0.949c0,0-0.039,0.021-0.11,0.042
			c0,0,1.068-0.273,2.161-0.49c0.548-0.103,1.097-0.205,1.508-0.281c0.413-0.078,0.69-0.095,0.69-0.133
			c0,0.039-0.314-0.18-0.635-0.361c-0.322-0.187-0.644-0.374-0.644-0.374s-0.976-0.138-1.966-0.23
			c-0.988-0.098-1.99-0.148-1.99-0.148s-2.676,0.277-5.295,0.998c-1.31,0.35-2.596,0.805-3.54,1.205
			c-0.945,0.396-1.554,0.717-1.554,0.717s-2.02,0.88-3.8,2.242c-0.895,0.667-1.721,1.433-2.298,2.05
			C8.996,8.892,8.649,9.34,8.649,9.34S8.438,9.611,8.103,10.11c-0.336,0.499-0.787,1.232-1.234,2.159
			c-0.908,1.847-1.699,4.501-1.814,7.231C5.083,24.596,5.112,29.69,5.112,29.69l0.174,1.445c-0.141,1.843-0.141,3.927-0.122,6.06
			c0.009,1.066,0.018,2.146,0.026,3.21c-0.012,1.489-0.024,2.951-0.036,4.404c0.595,0.013,1.188,0.026,1.784,0.039l0.21-0.149
			c0.272,0.001,0.506,0.001,0.712,0.001c0.112,0.003,0.209,0.006,0.295,0.008c0.166,0.008,0.278,0.02,0.362,0.032
			c0.168,0.025,0.222,0.055,0.371,0.068c3.53-0.019,7.093-0.037,10.64-0.055c-0.023-4.481-0.046-8.938-0.068-13.273
			c0.004-1.971,0.008-3.915,0.011-5.824c0.004-0.477,0.008-0.951,0.011-1.424l0.008-0.706c0.008-0.212,0.009-0.425,0.028-0.633
			c0.056-0.839,0.228-1.641,0.496-2.383c0.181-0.384,0.52-1.158,1.004-1.821c0.472-0.671,1.071-1.224,1.356-1.401
			c2.039-2.046,5.404-3.08,8.452-3.333l-0.113,0.026c0.187-0.018,0.374-0.036,0.562-0.049c0.152-0.001,0.498,0.018,0.746,0.038
			c0.06,0.019,0.065,0.037,0.018,0.044c1.65,0.015,4.219,0.752,5.914,1.704l-0.109-0.036c2.204,1.07,3.938,2.753,4.65,4.904
			c0.369,1.09,0.5,2.178,0.479,3.457c0.01,1.303,0.02,2.601,0.028,3.897c0.016,2.595,0.03,5.18,0.045,7.773
			c-0.004,2.992-0.008,5.991-0.013,9.027c2.064,0.02,4.146,0.04,6.257,0.061c1.082,0.046,2.197,0.071,3.34,0.083
			c1.586,0.001,3.199,0.003,4.846,0.005c-0.014-2.408-0.029-4.887-0.044-7.387c-0.008-2.046,0.003-4.115,0.066-6.174
			c0.074-0.606,0.083-4.249,0.065-7.888c-0.003-0.455-0.006-0.91-0.008-1.358c-0.002-0.216-0.003-0.431-0.005-0.643
			c-0.006,0.06,0.013-0.173,0.017-0.272l0.013-0.366c0.019-0.955-0.052-1.827-0.152-2.597
			C57.223,16.668,56.883,15.576,56.782,15.276z"/>
		<path fill="#FFFFFF" d="M41.761,2.137l0.053,0.013C41.826,2.087,41.743,2.091,41.761,2.137z"/>
		<polygon fill="#FFFFFF" points="55.545,23.508 55.546,23.421 55.458,23.749 		"/>
		<path fill="#FFFFFF" d="M49.898,8.049c0.564,0.516,0.591,0.538,0.532,0.444C50.23,8.302,50.044,8.147,49.898,8.049z"/>
		<path fill="#FFFFFF" d="M35.155,1.211c-0.425-0.037-0.265,0.012-0.019,0.073c0.435,0.029,0.735,0.05,0.735,0.05
			C35.651,1.296,35.382,1.25,35.155,1.211z"/>
		<path fill="#FFFFFF" d="M36.792,2.224L36.656,2.26C36.902,2.276,36.896,2.256,36.792,2.224z"/>
	</g>
</g>
</svg>
