<?xml version="1.0" encoding="utf-8"?>
<!-- Generator: Adobe Illustrator 16.0.0, SVG Export Plug-In . SVG Version: 6.00 Build 0)  -->
<!DOCTYPE svg PUBLIC "-//W3C//DTD SVG 1.1//EN" "http://www.w3.org/Graphics/SVG/1.1/DTD/svg11.dtd">
<svg version="1.1" id="Layer_1" xmlns="http://www.w3.org/2000/svg" xmlns:xlink="http://www.w3.org/1999/xlink" x="0px" y="0px"
	 width="71.66px" height="71.646px" viewBox="0 0 71.66 71.646" enable-background="new 0 0 71.66 71.646" xml:space="preserve">
<g>
	<path fill-rule="evenodd" clip-rule="evenodd" fill="#FFFFFF" d="M35.146,25.403c-5.957-0.008-10.717,4.663-10.719,10.519
		c-0.002,5.941,4.678,10.673,10.564,10.675c5.857,0.002,10.621-4.692,10.627-10.475C45.625,30.183,40.96,25.409,35.146,25.403z
		 M35.032,42.875c-3.768,0.008-6.878-3.095-6.885-6.866c-0.006-3.771,3.088-6.873,6.865-6.885c3.766-0.012,6.877,3.092,6.885,6.866
		C41.904,39.76,38.806,42.867,35.032,42.875z"/>
	<g>
		<path fill-rule="evenodd" clip-rule="evenodd" fill="#FFFFFF" d="M35.007,56.679c-2.787-0.049-5.575-0.075-8.361-0.155
			c-2.406-0.068-4.736-0.503-6.824-1.785c-2.736-1.679-4.406-4.148-4.939-7.284c-0.318-1.875-0.431-3.8-0.46-5.706
			c-0.062-4.083-0.038-8.17,0.007-12.253c0.023-2.167,0.096-4.342,0.816-6.424c1.385-3.993,4.195-6.417,8.301-7.206
			c1.864-0.358,3.8-0.438,5.705-0.467c4.099-0.063,8.199-0.038,12.297,0.006c2.152,0.023,4.311,0.096,6.381,0.81
			c4.012,1.386,6.447,4.202,7.23,8.33c0.354,1.865,0.436,3.8,0.463,5.705c0.062,4.084,0.039,8.17-0.006,12.253
			c-0.023,2.167-0.094,4.342-0.816,6.425c-1.385,3.993-4.195,6.418-8.301,7.206c-1.864,0.358-3.799,0.396-5.705,0.472
			c-1.926,0.075-3.857,0.017-5.787,0.017C35.007,56.641,35.007,56.659,35.007,56.679z M52.007,35.666
			c-0.027,0-0.056-0.001-0.084-0.002c0-1.629,0.033-3.258-0.01-4.884c-0.041-1.565-0.1-3.134-0.259-4.69
			c-0.354-3.487-2.431-5.894-5.868-6.544c-1.835-0.347-3.74-0.395-5.617-0.43c-3.436-0.064-6.873-0.056-10.311-0.003
			c-1.771,0.027-3.562,0.09-5.311,0.361c-2.984,0.464-5.021,2.175-5.846,5.134c-0.264,0.948-0.418,1.954-0.443,2.938
			c-0.088,3.735-0.143,7.473-0.129,11.21c0.008,2.378,0.062,4.764,0.27,7.131c0.305,3.502,2.399,5.898,5.838,6.559
			c1.848,0.354,3.77,0.4,5.661,0.436c3.421,0.065,6.843,0.045,10.265,0.008c1.594-0.018,3.192-0.105,4.779-0.262
			c1.471-0.145,2.846-0.626,4.028-1.565c1.917-1.524,2.656-3.624,2.769-5.954C51.892,41.964,51.923,38.813,52.007,35.666z"/>
		<path fill-rule="evenodd" clip-rule="evenodd" fill="#FFFFFF" d="M46.081,22.509c1.393,0.012,2.447,1.109,2.432,2.529
			c-0.016,1.352-1.154,2.465-2.496,2.441c-1.378-0.025-2.501-1.171-2.475-2.527C43.569,23.571,44.685,22.497,46.081,22.509z"/>
	</g>
</g>
</svg>
